# This file uses centimeters as units for non-parametric coordinates.

mtllib Bridge_Glass.mtl
g default
v 45.564113 81.577645 136.584629
v 48.770939 81.577668 136.584629
v 38.504187 131.215865 136.584629
v 40.707175 131.215865 136.584629
v 38.504187 131.215865 103.038175
v 40.707175 131.215865 103.038175
v 45.564113 81.577645 103.038175
v 48.770939 81.577668 103.038175
v 44.221207 92.293168 136.584629
v 47.428027 92.687777 136.584629
v 47.428027 92.687777 103.038175
v 44.221207 92.293168 103.038175
v 44.221207 91.251224 188.509430
v 47.428027 91.616052 188.509430
v 40.707175 126.420828 189.886321
v 38.504187 126.420828 189.886321
v 45.564113 81.344745 188.509430
v 48.770939 81.344774 188.509430
v 44.221207 90.501466 217.550231
v 47.428027 90.844870 217.550231
v 40.707175 124.370780 217.550231
v 38.504187 124.370780 217.550231
v 45.564113 81.177156 217.550231
v 48.770939 81.177173 217.550231
v 44.221207 90.501466 242.988790
v 47.428027 90.844870 242.988790
v 40.707175 119.481981 242.988790
v 38.504187 119.481981 242.988790
v 45.564113 81.177156 242.988790
v 48.770939 81.177173 242.988790
v 44.221207 90.501466 265.227321
v 47.428027 90.844870 265.227321
v 40.707175 111.594429 269.960762
v 38.504187 111.594429 269.960762
v 45.564113 81.177156 265.227321
v 48.770939 81.177173 265.227321
v 44.221207 90.501466 290.280355
v 47.428027 90.844870 290.280355
v 40.707175 106.121117 292.033489
v 38.504187 106.121117 292.033489
v 45.564113 81.177156 290.280355
v 48.770939 81.177173 290.280355
v 44.221207 90.501466 312.400164
v 47.428027 90.844870 312.400164
v 40.707175 99.744922 314.224655
v 38.504187 99.744922 314.224655
v 45.564113 81.177156 312.400164
v 48.770939 81.177173 312.400164
vt 0.375000 0.000000
vt 0.625000 0.000000
vt 0.375000 0.250000
vt 0.625000 0.250000
vt 0.375000 0.500000
vt 0.625000 0.500000
vt 0.375000 0.750000
vt 0.625000 0.750000
vt 0.375000 1.000000
vt 0.625000 1.000000
vt 0.875000 0.000000
vt 0.875000 0.250000
vt 0.125000 0.000000
vt 0.125000 0.250000
vt 0.375000 0.057613
vt 0.625000 0.057613
vt 0.625000 0.692387
vt 0.875000 0.057614
vt 0.125000 0.057614
vt 0.375000 0.692387
vt 0.625000 0.057613
vt 0.625000 0.250000
vt 0.375000 0.250000
vt 0.375000 0.057613
vt 0.375000 0.000000
vt 0.625000 0.000000
vt 0.625000 0.057613
vt 0.625000 0.250000
vt 0.375000 0.250000
vt 0.375000 0.057613
vt 0.375000 0.000000
vt 0.625000 0.000000
vt 0.625000 0.057613
vt 0.625000 0.250000
vt 0.375000 0.250000
vt 0.375000 0.057613
vt 0.375000 0.000000
vt 0.625000 0.000000
vt 0.625000 0.057613
vt 0.625000 0.250000
vt 0.375000 0.250000
vt 0.375000 0.057613
vt 0.375000 0.000000
vt 0.625000 0.000000
vt 0.625000 0.057613
vt 0.625000 0.250000
vt 0.375000 0.250000
vt 0.375000 0.057613
vt 0.375000 0.000000
vt 0.625000 0.000000
vt 0.625000 0.057613
vt 0.625000 0.250000
vt 0.375000 0.250000
vt 0.375000 0.057613
vt 0.375000 0.000000
vt 0.625000 0.000000
vn 0.010257 -0.161576 0.986807
vn 0.000364 -0.005729 0.999984
vn 0.012013 -0.189234 0.981858
vn 0.012013 -0.189234 0.981858
vn 0.000000 1.000000 0.000000
vn 0.000000 1.000000 0.000000
vn 0.000000 1.000000 0.000000
vn 0.000000 1.000000 0.000000
vn 0.000000 0.000000 -1.000000
vn 0.000000 0.000000 -1.000000
vn 0.000000 0.000000 -1.000000
vn 0.000000 0.000000 -1.000000
vn 0.000007 -1.000000 0.000000
vn 0.000007 -1.000000 0.000000
vn 0.000007 -1.000000 0.000000
vn 0.000007 -1.000000 0.000000
vn 0.987060 0.160349 0.000000
vn 0.987060 0.160349 0.000000
vn 0.985124 0.171845 0.000000
vn 0.985124 0.171845 0.000000
vn -0.990037 -0.140811 0.000000
vn -0.990037 -0.140811 0.000000
vn -0.989384 -0.145322 0.000000
vn -0.989384 -0.145322 0.000000
vn 0.000000 0.000000 1.000000
vn 0.000000 0.000000 1.000000
vn 0.992774 0.120000 0.000000
vn 0.992774 0.120000 0.000000
vn 0.000000 0.000000 -1.000000
vn 0.000000 0.000000 -1.000000
vn -0.992238 -0.124351 0.000000
vn -0.992238 -0.124351 0.000000
vn 0.983597 0.180102 0.010041
vn 0.983597 0.180102 0.010041
vn 0.983597 0.180102 0.010041
vn 0.983597 0.180102 0.010041
vn 0.000000 0.995978 0.089598
vn 0.000000 0.995978 0.089598
vn 0.000000 0.995978 0.089598
vn 0.000000 0.995978 0.089598
vn -0.988289 -0.152357 -0.008451
vn -0.988289 -0.152357 -0.008451
vn -0.988289 -0.152357 -0.008451
vn -0.988289 -0.152357 -0.008451
vn 0.000008 -0.999990 -0.004485
vn 0.000008 -0.999990 -0.004485
vn 0.000008 -0.999990 -0.004485
vn 0.000008 -0.999990 -0.004485
vn 0.992201 0.124635 0.001566
vn 0.992201 0.124635 0.001566
vn 0.992201 0.124635 0.001566
vn 0.992201 0.124635 0.001566
vn -0.991624 -0.129149 -0.001585
vn -0.991624 -0.129149 -0.001585
vn -0.991624 -0.129149 -0.001585
vn -0.991624 -0.129149 -0.001585
vn 0.981187 0.192821 0.009593
vn 0.981187 0.192821 0.009593
vn 0.981187 0.192821 0.009593
vn 0.981187 0.192821 0.009593
vn 0.000000 0.997265 0.073903
vn 0.000000 0.997265 0.073903
vn 0.000000 0.997265 0.073903
vn 0.000000 0.997265 0.073903
vn -0.986555 -0.163230 -0.008060
vn -0.986555 -0.163230 -0.008060
vn -0.986555 -0.163230 -0.008060
vn -0.986555 -0.163230 -0.008060
vn 0.000007 -0.999983 -0.005771
vn 0.000007 -0.999983 -0.005771
vn 0.000007 -0.999983 -0.005771
vn 0.000007 -0.999983 -0.005771
vn 0.991047 0.133496 0.002158
vn 0.991047 0.133496 0.002158
vn 0.991047 0.133496 0.002158
vn 0.991047 0.133496 0.002158
vn -0.990385 -0.138319 -0.002185
vn -0.990385 -0.138319 -0.002185
vn -0.990385 -0.138319 -0.002185
vn -0.990385 -0.138319 -0.002185
vn 0.977209 0.211305 0.020304
vn 0.977209 0.211305 0.020304
vn 0.977209 0.211305 0.020304
vn 0.977209 0.211305 0.020304
vn 0.000000 0.982029 0.188727
vn 0.000000 0.982029 0.188727
vn 0.000000 0.982029 0.188727
vn 0.000000 0.982029 0.188727
vn -0.983706 -0.178962 -0.017197
vn -0.983706 -0.178962 -0.017197
vn -0.983706 -0.178962 -0.017197
vn -0.983706 -0.178962 -0.017197
vn 0.000005 -1.000000 0.000000
vn 0.000005 -1.000000 0.000000
vn 0.000005 -1.000000 0.000000
vn 0.000005 -1.000000 0.000000
vn 0.990490 0.137586 0.000000
vn 0.990490 0.137586 0.000000
vn 0.990490 0.137586 0.000000
vn 0.990490 0.137586 0.000000
vn -0.989787 -0.142551 0.000000
vn -0.989787 -0.142551 0.000000
vn -0.989787 -0.142551 0.000000
vn -0.989787 -0.142551 0.000000
vn 0.965070 0.258692 0.041464
vn 0.965070 0.258692 0.041464
vn 0.965070 0.258692 0.041464
vn 0.965070 0.258692 0.041464
vn 0.000000 0.959801 0.280680
vn 0.000000 0.959801 0.280680
vn 0.000000 0.959801 0.280680
vn 0.000000 0.959801 0.280680
vn -0.975020 -0.219318 -0.035153
vn -0.975020 -0.219318 -0.035153
vn -0.975020 -0.219318 -0.035153
vn -0.975020 -0.219318 -0.035153
vn 0.000005 -1.000000 0.000000
vn 0.000005 -1.000000 0.000000
vn 0.000005 -1.000000 0.000000
vn 0.000005 -1.000000 0.000000
vn 0.990490 0.137586 0.000000
vn 0.990490 0.137586 0.000000
vn 0.990490 0.137586 0.000000
vn 0.990490 0.137586 0.000000
vn -0.989787 -0.142551 0.000000
vn -0.989787 -0.142551 0.000000
vn -0.989787 -0.142551 0.000000
vn -0.989787 -0.142551 0.000000
vn 0.938493 0.342992 0.039836
vn 0.938493 0.342992 0.039836
vn 0.938493 0.342992 0.039836
vn 0.938493 0.342992 0.039836
vn 0.000000 0.970605 0.240678
vn 0.000000 0.970605 0.240678
vn 0.000000 0.970605 0.240678
vn 0.000000 0.970605 0.240678
vn -0.955902 -0.291726 -0.033882
vn -0.955902 -0.291726 -0.033882
vn -0.955902 -0.291726 -0.033882
vn -0.955902 -0.291726 -0.033882
vn 0.000005 -1.000000 0.000000
vn 0.000005 -1.000000 0.000000
vn 0.000005 -1.000000 0.000000
vn 0.000005 -1.000000 0.000000
vn 0.990490 0.137586 0.000000
vn 0.990490 0.137586 0.000000
vn 0.990490 0.137586 0.000000
vn 0.990490 0.137586 0.000000
vn -0.989787 -0.142551 0.000000
vn -0.989787 -0.142551 0.000000
vn -0.989787 -0.142551 0.000000
vn -0.989787 -0.142551 0.000000
vn 0.876215 0.477007 0.068640
vn 0.876215 0.477007 0.068640
vn 0.876215 0.477007 0.068640
vn 0.876215 0.477007 0.068640
vn 0.000000 0.961113 0.276157
vn 0.000000 0.961113 0.276157
vn 0.000000 0.961113 0.276157
vn 0.000000 0.961113 0.276157
vn -0.910145 -0.410066 -0.059007
vn -0.910145 -0.410066 -0.059007
vn -0.910145 -0.410066 -0.059007
vn -0.910145 -0.410066 -0.059007
vn 0.000005 -1.000000 0.000000
vn 0.000005 -1.000000 0.000000
vn 0.000005 -1.000000 0.000000
vn 0.000005 -1.000000 0.000000
vn 0.990490 0.137586 0.000000
vn 0.990490 0.137586 0.000000
vn 0.990490 0.137586 0.000000
vn 0.990490 0.137586 0.000000
vn -0.989787 -0.142551 0.000000
vn -0.989787 -0.142551 0.000000
vn -0.989787 -0.142551 0.000000
vn -0.989787 -0.142551 0.000000
s 1
f 43/54/1 44/51/2 45/52/3 46/53/4
s off
f 3/3/5 4/4/6 6/6/7 5/5/8
s 2
f 5/5/9 6/6/10 11/17/11 12/20/12
s off
f 7/7/13 8/8/14 2/10/15 1/9/16
s 3
f 10/16/17 11/18/18 6/12/19 4/4/20
s 4
f 12/19/21 9/15/22 3/3/23 5/14/24
s 1
f 47/55/25 48/56/26 44/51/2 43/54/1
s 3
f 2/2/27 8/11/28 11/18/18 10/16/17
s 2
f 12/20/12 11/17/11 8/8/29 7/7/30
s 4
f 7/13/31 1/1/32 9/15/22 12/19/21
s off
f 10/16/33 4/4/34 15/22/35 14/21/36
f 4/4/37 3/3/38 16/23/39 15/22/40
f 3/3/41 9/15/42 13/24/43 16/23/44
f 1/1/45 2/2/46 18/26/47 17/25/48
f 2/2/49 10/16/50 14/21/51 18/26/52
f 9/15/53 1/1/54 17/25/55 13/24/56
f 14/21/57 15/22/58 21/28/59 20/27/60
f 15/22/61 16/23/62 22/29/63 21/28/64
f 16/23/65 13/24/66 19/30/67 22/29/68
f 17/25/69 18/26/70 24/32/71 23/31/72
f 18/26/73 14/21/74 20/27/75 24/32/76
f 13/24/77 17/25/78 23/31/79 19/30/80
f 20/27/81 21/28/82 27/34/83 26/33/84
f 21/28/85 22/29/86 28/35/87 27/34/88
f 22/29/89 19/30/90 25/36/91 28/35/92
f 23/31/93 24/32/94 30/38/95 29/37/96
f 24/32/97 20/27/98 26/33/99 30/38/100
f 19/30/101 23/31/102 29/37/103 25/36/104
f 26/33/105 27/34/106 33/40/107 32/39/108
f 27/34/109 28/35/110 34/41/111 33/40/112
f 28/35/113 25/36/114 31/42/115 34/41/116
f 29/37/117 30/38/118 36/44/119 35/43/120
f 30/38/121 26/33/122 32/39/123 36/44/124
f 25/36/125 29/37/126 35/43/127 31/42/128
f 32/39/129 33/40/130 39/46/131 38/45/132
f 33/40/133 34/41/134 40/47/135 39/46/136
f 34/41/137 31/42/138 37/48/139 40/47/140
f 35/43/141 36/44/142 42/50/143 41/49/144
f 36/44/145 32/39/146 38/45/147 42/50/148
f 31/42/149 35/43/150 41/49/151 37/48/152
f 38/45/153 39/46/154 45/52/155 44/51/156
f 39/46/157 40/47/158 46/53/159 45/52/160
f 40/47/161 37/48/162 43/54/163 46/53/164
f 41/49/165 42/50/166 48/56/167 47/55/168
f 42/50/169 38/45/170 44/51/171 48/56/172
f 37/48/173 41/49/174 47/55/175 43/54/176
