# This file uses centimeters as units for non-parametric coordinates.

mtllib CargoBay_Pipe2.mtl
g default
v 24.257335 -99.720936 225.268405
v 23.184184 -99.720936 224.488715
v 21.857696 -99.720936 224.488715
v 20.784544 -99.720936 225.268406
v 20.374637 -99.720936 226.529971
v 20.784544 -99.720936 227.791536
v 21.857696 -99.720936 228.571226
v 23.184184 -99.720936 228.571226
v 24.257335 -99.720936 227.791536
v 24.667243 -99.720936 226.529971
v 24.257335 -35.853331 225.268405
v 24.667243 -35.853331 226.529971
v 24.257335 -35.853331 227.791536
v 23.184184 -35.853331 228.571226
v 21.857696 -35.853331 228.571226
v 20.784544 -35.853331 227.791536
v 20.374637 -35.853331 226.529971
v 20.784544 -35.853331 225.268406
v 21.857696 -35.853331 224.488715
v 23.184184 -35.853331 224.488715
v 25.566540 -101.846526 224.317213
v 23.684255 -101.846526 222.949653
v 23.684255 -99.720936 222.949653
v 25.566540 -99.720936 224.317213
v 21.357624 -101.846526 222.949653
v 21.357624 -99.720936 222.949653
v 19.475340 -101.846526 224.317213
v 19.475340 -99.720936 224.317213
v 18.756371 -101.846526 226.529971
v 18.756371 -99.720936 226.529971
v 19.475340 -101.846526 228.742729
v 19.475340 -99.720936 228.742729
v 21.357625 -101.846526 230.110288
v 21.357625 -99.720936 230.110288
v 23.684256 -101.846526 230.110288
v 23.684256 -99.720936 230.110288
v 25.566540 -101.846526 228.742729
v 25.566540 -99.720936 228.742729
v 26.285508 -101.846526 226.529971
v 26.285508 -99.720936 226.529971
v 25.566540 -35.853331 224.317213
v 26.285509 -35.853331 226.529971
v 25.566540 -33.551285 224.317213
v 26.285509 -33.551285 226.529971
v 25.566540 -35.853331 228.742728
v 25.566540 -33.551285 228.742728
v 23.684256 -35.853331 230.110288
v 23.684256 -33.551285 230.110288
v 21.357625 -35.853331 230.110288
v 21.357625 -33.551285 230.110288
v 19.475340 -35.853331 228.742729
v 19.475340 -33.551285 228.742729
v 18.756371 -35.853331 226.529971
v 18.756371 -33.551285 226.529971
v 19.475339 -35.853331 224.317214
v 19.475339 -33.551285 224.317214
v 21.357624 -35.853331 222.949653
v 21.357624 -33.551285 222.949653
v 23.684255 -35.853331 222.949653
v 23.684255 -33.551285 222.949653
vt 0.625000 0.324201
vt 0.375000 0.324201
vt 0.400000 0.324201
vt 0.425000 0.324201
vt 0.450000 0.324201
vt 0.475000 0.324201
vt 0.500000 0.324201
vt 0.525000 0.324201
vt 0.550000 0.324201
vt 0.575000 0.324201
vt 0.600000 0.324201
vt 0.625000 0.675768
vt 0.375000 0.675768
vt 0.600000 0.675768
vt 0.575000 0.675768
vt 0.550000 0.675768
vt 0.525000 0.675768
vt 0.500000 0.675768
vt 0.475000 0.675768
vt 0.450000 0.675768
vt 0.425000 0.675768
vt 0.400000 0.675768
vt 0.375000 0.312500
vt 0.400000 0.312500
vt 0.400000 0.324201
vt 0.375000 0.324201
vt 0.425000 0.312500
vt 0.425000 0.324201
vt 0.450000 0.312500
vt 0.450000 0.324201
vt 0.475000 0.312500
vt 0.475000 0.324201
vt 0.500000 0.312500
vt 0.500000 0.324201
vt 0.525000 0.312500
vt 0.525000 0.324201
vt 0.550000 0.312500
vt 0.550000 0.324201
vt 0.575000 0.312500
vt 0.575000 0.324201
vt 0.600000 0.312500
vt 0.600000 0.324201
vt 0.625000 0.312500
vt 0.625000 0.324201
vt 0.600000 0.675768
vt 0.625000 0.675768
vt 0.625000 0.688440
vt 0.600000 0.688440
vt 0.575000 0.675768
vt 0.575000 0.688440
vt 0.550000 0.675768
vt 0.550000 0.688440
vt 0.525000 0.675768
vt 0.525000 0.688440
vt 0.500000 0.675768
vt 0.500000 0.688440
vt 0.475000 0.675768
vt 0.475000 0.688440
vt 0.450000 0.675768
vt 0.450000 0.688440
vt 0.425000 0.675768
vt 0.425000 0.688440
vt 0.400000 0.675768
vt 0.400000 0.688440
vt 0.375000 0.675768
vt 0.375000 0.688440
vn 0.587785 -0.000000 -0.809017
vn 0.587785 -0.000000 -0.809017
vn 0.587785 -0.000000 -0.809017
vn 0.587785 -0.000000 -0.809017
vn -0.000000 0.000000 -1.000000
vn -0.000000 0.000000 -1.000000
vn -0.000000 0.000000 -1.000000
vn -0.000000 0.000000 -1.000000
vn -0.587785 0.000000 -0.809017
vn -0.587785 0.000000 -0.809017
vn -0.587785 0.000000 -0.809017
vn -0.587785 0.000000 -0.809017
vn -0.951057 0.000000 -0.309017
vn -0.951057 0.000000 -0.309017
vn -0.951057 0.000000 -0.309017
vn -0.951057 0.000000 -0.309017
vn -0.951057 0.000000 0.309017
vn -0.951057 0.000000 0.309017
vn -0.951056 0.000000 0.309017
vn -0.951057 0.000000 0.309017
vn -0.587785 -0.000000 0.809017
vn -0.587785 -0.000000 0.809017
vn -0.587785 -0.000000 0.809017
vn -0.587785 -0.000000 0.809017
vn 0.000000 0.000000 1.000000
vn 0.000000 0.000000 1.000000
vn 0.000000 0.000000 1.000000
vn 0.000000 0.000000 1.000000
vn 0.587785 0.000000 0.809017
vn 0.587785 0.000000 0.809017
vn 0.587785 0.000000 0.809017
vn 0.587785 0.000000 0.809017
vn 0.951057 0.000000 0.309017
vn 0.951057 0.000000 0.309017
vn 0.951057 0.000000 0.309017
vn 0.951057 0.000000 0.309017
vn 0.951057 0.000000 -0.309017
vn 0.951057 0.000000 -0.309017
vn 0.951057 0.000000 -0.309017
vn 0.951057 0.000000 -0.309017
vn 0.000000 1.000000 0.000000
vn 0.000000 1.000000 0.000000
vn 0.000000 1.000000 0.000000
vn 0.000000 1.000000 0.000000
vn 0.000000 1.000000 0.000000
vn 0.000000 1.000000 0.000000
vn 0.000000 1.000000 0.000000
vn 0.000000 1.000000 0.000000
vn 0.000000 1.000000 0.000000
vn 0.000000 1.000000 0.000000
vn 0.587785 0.000000 -0.809017
vn 0.587785 0.000000 -0.809017
vn 0.587785 0.000000 -0.809017
vn 0.587785 0.000000 -0.809017
vn -0.000000 0.000000 -1.000000
vn -0.000000 0.000000 -1.000000
vn -0.000000 0.000000 -1.000000
vn -0.000000 0.000000 -1.000000
vn -0.587785 0.000000 -0.809017
vn -0.587785 0.000000 -0.809017
vn -0.587785 0.000000 -0.809017
vn -0.587785 0.000000 -0.809017
vn -0.951057 0.000000 -0.309017
vn -0.951057 0.000000 -0.309017
vn -0.951057 0.000000 -0.309017
vn -0.951057 0.000000 -0.309017
vn -0.951057 0.000000 0.309017
vn -0.951057 0.000000 0.309017
vn -0.951057 0.000000 0.309017
vn -0.951057 0.000000 0.309017
vn -0.587785 0.000000 0.809017
vn -0.587785 0.000000 0.809017
vn -0.587785 0.000000 0.809017
vn -0.587785 0.000000 0.809017
vn 0.000000 0.000000 1.000000
vn 0.000000 0.000000 1.000000
vn 0.000000 0.000000 1.000000
vn 0.000000 0.000000 1.000000
vn 0.587785 0.000000 0.809017
vn 0.587785 0.000000 0.809017
vn 0.587785 0.000000 0.809017
vn 0.587785 0.000000 0.809017
vn 0.951057 0.000000 0.309017
vn 0.951057 0.000000 0.309017
vn 0.951057 0.000000 0.309017
vn 0.951057 0.000000 0.309017
vn 0.951057 -0.000000 -0.309017
vn 0.951057 -0.000000 -0.309017
vn 0.951057 -0.000000 -0.309017
vn 0.951057 -0.000000 -0.309017
vn 0.951057 0.000000 -0.309017
vn 0.951057 0.000000 -0.309017
vn 0.951057 0.000000 -0.309017
vn 0.951057 0.000000 -0.309017
vn 0.951056 0.000000 0.309017
vn 0.951056 0.000000 0.309017
vn 0.951056 0.000000 0.309017
vn 0.951056 0.000000 0.309017
vn 0.587786 0.000000 0.809017
vn 0.587786 0.000000 0.809017
vn 0.587786 0.000000 0.809017
vn 0.587786 0.000000 0.809017
vn 0.000000 0.000000 1.000000
vn 0.000000 0.000000 1.000000
vn 0.000000 0.000000 1.000000
vn 0.000000 0.000000 1.000000
vn -0.587785 0.000000 0.809017
vn -0.587785 0.000000 0.809017
vn -0.587785 0.000000 0.809017
vn -0.587785 0.000000 0.809017
vn -0.951056 0.000000 0.309017
vn -0.951056 0.000000 0.309017
vn -0.951056 0.000000 0.309017
vn -0.951056 0.000000 0.309017
vn -0.951057 0.000000 -0.309017
vn -0.951057 0.000000 -0.309017
vn -0.951057 0.000000 -0.309017
vn -0.951057 0.000000 -0.309017
vn -0.587785 0.000000 -0.809017
vn -0.587785 0.000000 -0.809017
vn -0.587785 0.000000 -0.809017
vn -0.587785 0.000000 -0.809017
vn -0.000000 0.000000 -1.000000
vn -0.000000 0.000000 -1.000000
vn -0.000000 0.000000 -1.000000
vn -0.000000 0.000000 -1.000000
vn 0.587785 0.000000 -0.809017
vn 0.587785 0.000000 -0.809017
vn 0.587785 0.000000 -0.809017
vn 0.587785 0.000000 -0.809017
vn 0.000000 1.000000 0.000000
vn 0.000000 1.000000 -0.000000
vn 0.000000 1.000000 -0.000000
vn 0.000000 1.000000 0.000000
vn 0.000000 1.000000 0.000000
vn 0.000000 1.000000 0.000000
vn 0.000000 1.000000 -0.000001
vn 0.000000 1.000000 -0.000001
vn 0.000000 1.000000 -0.000001
vn 0.000000 1.000000 -0.000001
vn 0.000000 1.000000 -0.000000
vn 0.000000 1.000000 -0.000000
vn 0.000000 1.000000 0.000000
vn 0.000000 1.000000 0.000000
vn 0.000000 1.000000 -0.000000
vn 0.000000 1.000000 -0.000000
vn 0.000000 1.000000 -0.000000
vn 0.000000 1.000000 -0.000000
vn 0.000000 1.000000 0.000001
vn 0.000000 1.000000 0.000001
vn 0.000000 -1.000000 -0.000000
vn 0.000000 -1.000000 -0.000000
vn 0.000000 -1.000000 -0.000000
vn 0.000000 -1.000000 -0.000000
vn 0.000000 -1.000000 -0.000000
vn 0.000000 -1.000000 -0.000000
vn 0.000000 -1.000000 -0.000000
vn 0.000000 -1.000000 -0.000000
vn 0.000000 -1.000000 -0.000000
vn 0.000000 -1.000000 -0.000000
vn 0.000000 -1.000000 0.000000
vn 0.000000 -1.000000 0.000000
vn 0.000000 -1.000000 0.000000
vn 0.000000 -1.000000 0.000000
vn 0.000000 -1.000000 0.000001
vn 0.000000 -1.000000 0.000001
vn 0.000000 -1.000000 0.000003
vn 0.000000 -1.000000 0.000003
vn 0.000000 -1.000000 0.000000
vn 0.000000 -1.000000 0.000000
vn 0.000000 -1.000000 -0.000002
vn 0.000000 -1.000000 -0.000002
vn 0.000000 -1.000000 -0.000001
vn 0.000000 -1.000000 -0.000001
vn 0.000000 -1.000000 -0.000000
vn 0.000000 -1.000000 -0.000000
vn 0.000000 -1.000000 -0.000000
vn 0.000000 -1.000000 -0.000000
vn 0.000000 -1.000000 0.000000
vn 0.000000 -1.000000 0.000000
s off
f 1/2/1 2/3/2 20/22/3 11/13/4
f 2/3/5 3/4/6 19/21/7 20/22/8
f 3/4/9 4/5/10 18/20/11 19/21/12
f 4/5/13 5/6/14 17/19/15 18/20/16
f 5/6/17 6/7/18 16/18/19 17/19/20
f 6/7/21 7/8/22 15/17/23 16/18/24
f 7/8/25 8/9/26 14/16/27 15/17/28
f 8/9/29 9/10/30 13/15/31 14/16/32
f 9/10/33 10/11/34 12/14/35 13/15/36
f 10/11/37 1/1/38 11/12/39 12/14/40
f 44/48/41 43/66/42 60/64/43 58/62/44 56/60/45 54/58/46 52/56/47 50/54/48 48/52/49 46/50/50
f 21/23/51 22/24/52 23/25/53 24/26/54
f 22/24/55 25/27/56 26/28/57 23/25/58
f 25/27/59 27/29/60 28/30/61 26/28/62
f 27/29/63 29/31/64 30/32/65 28/30/66
f 29/31/67 31/33/68 32/34/69 30/32/70
f 31/33/71 33/35/72 34/36/73 32/34/74
f 33/35/75 35/37/76 36/38/77 34/36/78
f 35/37/79 37/39/80 38/40/81 36/38/82
f 37/39/83 39/41/84 40/42/85 38/40/86
f 39/41/87 21/43/88 24/44/89 40/42/90
f 42/45/91 41/46/92 43/47/93 44/48/94
f 45/49/95 42/45/96 44/48/97 46/50/98
f 47/51/99 45/49/100 46/50/101 48/52/102
f 49/53/103 47/51/104 48/52/105 50/54/106
f 51/55/107 49/53/108 50/54/109 52/56/110
f 53/57/111 51/55/112 52/56/113 54/58/114
f 55/59/115 53/57/116 54/58/117 56/60/118
f 57/61/119 55/59/120 56/60/121 58/62/122
f 59/63/123 57/61/124 58/62/125 60/64/126
f 41/65/127 59/63/128 60/64/129 43/66/130
s 1
f 2/3/131 1/2/132 24/26/133 23/25/134
f 3/4/135 2/3/131 23/25/134 26/28/136
f 4/5/137 3/4/135 26/28/136 28/30/138
f 5/6/139 4/5/137 28/30/138 30/32/140
f 6/7/141 5/6/139 30/32/140 32/34/142
f 7/8/143 6/7/141 32/34/142 34/36/144
f 8/9/145 7/8/143 34/36/144 36/38/146
f 9/10/147 8/9/145 36/38/146 38/40/148
f 10/11/149 9/10/147 38/40/148 40/42/150
s off
f 37/39/151 35/37/152 33/35/153 31/33/154 29/31/155 27/29/156 25/27/157 22/24/158 21/43/159 39/41/160
s 1
f 1/1/132 10/11/149 40/42/150 24/44/133
s 2
f 12/14/161 11/12/162 41/46/163 42/45/164
f 13/15/165 12/14/161 42/45/164 45/49/166
f 14/16/167 13/15/165 45/49/166 47/51/168
f 15/17/169 14/16/167 47/51/168 49/53/170
f 16/18/171 15/17/169 49/53/170 51/55/172
f 17/19/173 16/18/171 51/55/172 53/57/174
f 18/20/175 17/19/173 53/57/174 55/59/176
f 19/21/177 18/20/175 55/59/176 57/61/178
f 20/22/179 19/21/177 57/61/178 59/63/180
f 11/13/162 20/22/179 59/63/180 41/65/163
