# This file uses centimeters as units for non-parametric coordinates.

mtllib CargoBay_Display_Case.mtl
g default
v 40.738481 -100.947467 187.078390
v 40.738481 -100.947467 214.639187
v 40.738481 -81.718998 187.078390
v 40.738481 -81.718998 214.639187
v 41.165781 -81.718998 187.078390
v 41.165781 -81.718998 214.639187
v 41.165781 -100.947467 187.078390
v 41.165781 -100.947467 214.639187
v 40.738481 -100.787231 187.308061
v 40.738481 -100.787231 214.409516
v 40.738481 -81.879235 214.409516
v 40.738481 -81.879235 187.308061
v 32.685497 -98.501874 214.639187
v 32.685497 -100.947467 212.457218
v 32.685503 -100.947467 214.639187
v 32.968411 -100.787231 214.409516
v 32.685497 -98.501874 187.078390
v 32.685503 -100.947467 187.078390
v 32.685497 -100.947467 189.260359
v 32.968411 -100.787231 187.308061
v 32.685497 -81.718998 212.457218
v 32.685497 -84.164593 214.639187
v 32.685493 -81.718998 214.639187
v 32.968411 -81.879235 214.409516
v 32.685497 -84.164593 187.078390
v 32.685497 -81.718998 189.260359
v 32.685503 -81.718998 187.078390
v 32.968411 -81.879235 187.308061
vt 0.375000 0.500000
vt 0.625000 0.500000
vt 0.375000 0.750000
vt 0.625000 0.750000
vt 0.375000 1.000000
vt 0.625000 1.000000
vt 0.875000 0.000000
vt 0.875000 0.250000
vt 0.125000 0.000000
vt 0.125000 0.250000
vt 0.625000 0.000000
vt 0.625000 0.000000
vt 0.375000 0.000000
vt 0.375000 0.000000
vt 0.625000 0.250000
vt 0.625000 0.250000
vt 0.625000 0.000000
vt 0.375000 0.000000
vt 0.375000 0.250000
vt 0.375000 0.250000
vt 0.375000 0.250000
vt 0.625000 0.250000
vt 0.591615 0.007914
vt 0.628695 0.040913
vt 0.386249 0.041520
vt 0.410415 -0.002926
vt 0.614110 0.207956
vt 0.591120 0.252833
vt 0.409595 0.242748
vt 0.371132 0.209098
vt 0.620018 0.041936
vt 0.625000 0.000000
vt 0.591475 -0.003861
vt 0.375000 0.000000
vt 0.412636 0.003544
vt 0.369411 0.041762
vt 0.589465 0.245935
vt 0.625000 0.250000
vt 0.630568 0.208239
vt 0.380071 0.208846
vt 0.375000 0.250000
vt 0.410097 0.253757
vn -1.000000 0.000000 0.000000
vn -1.000000 0.000000 0.000000
vn -1.000000 0.000000 0.000000
vn -1.000000 0.000000 0.000000
vn 0.000000 1.000000 0.000000
vn 0.000000 1.000000 0.000000
vn 0.000000 1.000000 0.000000
vn 0.000000 1.000000 0.000000
vn 1.000000 0.000000 -0.000000
vn 1.000000 0.000000 -0.000000
vn 1.000000 0.000000 -0.000000
vn 1.000000 0.000000 -0.000000
vn 0.000000 -1.000000 0.000000
vn 0.000000 -1.000000 0.000000
vn -0.000000 -1.000000 0.000000
vn -0.000000 -1.000000 0.000000
vn 0.000000 0.000000 1.000000
vn 0.000000 0.000000 1.000000
vn 0.000000 0.000000 1.000000
vn 0.000000 0.000000 1.000000
vn -0.000000 0.000000 -1.000000
vn -0.000000 0.000000 -1.000000
vn -0.000000 0.000000 -1.000000
vn -0.000000 0.000000 -1.000000
vn -0.000000 -1.000000 0.000000
vn -0.000000 -1.000000 0.000000
vn -0.000000 -1.000000 0.000000
vn -0.000000 -1.000000 0.000000
vn -0.018508 0.999829 0.000000
vn -0.018508 0.999829 0.000000
vn -0.018508 0.999829 0.000000
vn -0.018508 0.999829 0.000000
vn -0.018508 0.999829 0.000000
vn -0.018508 0.999829 0.000000
vn 0.000000 0.000000 1.000000
vn 0.000000 0.000000 1.000000
vn 0.000000 0.000000 1.000000
vn 0.000000 0.000000 1.000000
vn -0.025172 0.000000 -0.999683
vn -0.025172 0.000000 -0.999683
vn -0.025172 0.000000 -0.999683
vn -0.025172 0.000000 -0.999683
vn -0.025172 0.000000 -0.999683
vn -0.025172 0.000000 -0.999683
vn 0.000000 1.000000 0.000000
vn 0.000000 1.000000 0.000000
vn 0.000000 1.000000 0.000000
vn 0.000000 1.000000 0.000000
vn -0.018508 -0.999829 0.000000
vn -0.018508 -0.999829 0.000000
vn -0.018508 -0.999829 0.000000
vn -0.018508 -0.999829 0.000000
vn -0.018508 -0.999829 0.000000
vn -0.018508 -0.999829 0.000000
vn -0.000000 0.000000 -1.000000
vn -0.000000 0.000000 -1.000000
vn -0.000000 0.000000 -1.000000
vn -0.000000 0.000000 -1.000000
vn -0.025172 0.000000 0.999683
vn -0.025172 0.000000 0.999683
vn -0.025172 0.000000 0.999683
vn -0.025172 0.000000 0.999683
vn -0.025172 0.000000 0.999683
vn -0.025172 0.000000 0.999683
vn -1.000000 -0.000002 0.000002
vn -1.000000 -0.000002 0.000002
vn -1.000000 -0.000002 0.000002
vn 0.978742 0.136542 -0.153039
vn 0.978742 0.136542 -0.153039
vn 0.978742 0.136542 -0.153039
vn -1.000000 -0.000002 -0.000002
vn -1.000000 -0.000002 -0.000002
vn -1.000000 -0.000002 -0.000002
vn 0.978742 0.136542 0.153039
vn 0.978742 0.136542 0.153039
vn 0.978742 0.136542 0.153039
vn -1.000000 -0.000002 -0.000002
vn -1.000000 -0.000002 -0.000002
vn -1.000000 -0.000002 -0.000002
vn 0.978742 -0.136542 -0.153039
vn 0.978742 -0.136542 -0.153039
vn 0.978742 -0.136542 -0.153039
vn -1.000000 0.000002 -0.000002
vn -1.000000 0.000002 -0.000002
vn -1.000000 0.000002 -0.000002
vn 0.978742 -0.136542 0.153039
vn 0.978742 -0.136542 0.153039
vn 0.978742 -0.136542 0.153039
vn -1.000000 0.000000 -0.000000
vn -1.000000 0.000000 -0.000000
vn -1.000000 0.000000 -0.000000
vn -1.000000 0.000000 -0.000000
vn -1.000000 0.000000 -0.000000
vn -1.000000 0.000000 -0.000000
vn -1.000000 0.000000 -0.000000
vn -1.000000 0.000000 -0.000000
s off
f 9/13/1 10/17/2 11/22/3 12/21/4
s 1
f 3/19/5 4/15/6 6/2/7 5/1/8
s off
f 5/1/9 6/2/10 8/4/11 7/3/12
s 2
f 7/3/13 8/4/14 2/6/15 1/5/16
s 3
f 2/11/17 8/7/18 6/8/19 4/15/20
s 4
f 7/9/21 1/18/22 3/19/23 5/10/24
s 2
f 1/18/16 2/11/15 15/12/25 14/23/26 19/35/27 18/34/28
s off
f 10/17/29 9/13/30 20/14/31 19/26/32 14/33/33 16/32/34
s 3
f 2/11/17 4/15/20 23/16/35 22/27/36 13/31/37 15/12/38
s off
f 11/22/39 10/17/40 16/32/41 13/24/42 22/39/43 24/38/44
s 1
f 4/15/6 3/19/5 27/20/45 26/29/46 21/37/47 23/16/48
s off
f 12/21/49 11/22/50 24/38/51 21/28/52 26/42/53 28/41/54
s 4
f 3/19/23 1/18/22 18/34/55 17/25/56 25/40/57 27/20/58
s off
f 9/13/59 12/21/60 28/41/61 25/30/62 17/36/63 20/14/64
f 13/31/65 14/23/66 15/12/67
f 13/24/68 16/32/69 14/33/70
f 17/25/71 18/34/72 19/35/73
f 17/36/74 19/26/75 20/14/76
f 21/37/77 22/27/78 23/16/79
f 21/28/80 24/38/81 22/39/82
f 25/40/83 26/29/84 27/20/85
f 25/30/86 28/41/87 26/42/88
usemtl CargoBay_AVIStorage:lambert2SG
f 22/27/89 21/37/90 26/29/91 25/40/92 17/25/93 19/35/94 14/23/95 13/31/96
