# This file uses centimeters as units for non-parametric coordinates.

mtllib CargoBay_Stairs.mtl
g default
v 13.161001 -101.348928 132.691889
v 12.211583 -101.348928 132.691889
v 13.161001 -68.842211 102.360987
v 12.211568 -68.842211 102.360987
v 13.161001 -68.823641 104.944750
v 12.211568 -68.823641 104.944750
v 13.161001 -101.342825 135.907312
v 12.211583 -101.342825 135.907312
v 13.360387 -69.676046 103.731729
v 13.360387 -69.397232 103.731729
v 13.360387 -69.397232 107.086306
v 13.360387 -69.676046 107.086306
v 13.360387 -71.282303 105.624819
v 13.360387 -71.003489 105.624819
v 13.360387 -71.003489 108.979395
v 13.360387 -71.282303 108.979395
v 13.360387 -73.691689 107.747377
v 13.360387 -73.412874 107.747377
v 13.360387 -73.412874 111.101946
v 13.360387 -73.691689 111.101946
v 13.360387 -82.917027 116.567430
v 13.360387 -82.638214 116.567430
v 13.360387 -82.638214 119.921999
v 13.360387 -82.917027 119.921999
v 13.360387 -85.056665 118.500002
v 13.360387 -84.777852 118.500002
v 13.360387 -84.777852 121.854578
v 13.360387 -85.056665 121.854578
v 13.360387 -87.334345 120.708666
v 13.360387 -87.055531 120.708666
v 13.360387 -87.055531 124.063234
v 13.360387 -87.334345 124.063234
v 13.360387 -89.422957 122.725252
v 13.360387 -89.144144 122.725252
v 13.360387 -89.144144 126.079821
v 13.360387 -89.422957 126.079821
v 13.360387 -91.583592 124.813867
v 13.360387 -91.304778 124.813867
v 13.360387 -91.304778 128.168436
v 13.360387 -91.583592 128.168436
v 13.360387 -75.928974 110.042032
v 13.360387 -75.650162 110.042032
v 13.360387 -75.650162 113.396601
v 13.360387 -75.928974 113.396601
v 13.360387 -78.223627 112.049852
v 13.360387 -77.944815 112.049852
v 13.360387 -77.944815 115.404421
v 13.360387 -78.223627 115.404421
v 13.360387 -80.570328 114.358774
v 13.360387 -80.291514 114.358774
v 13.360387 -80.291514 117.713343
v 13.360387 -80.570328 117.713343
v 13.360387 -96.120923 129.135134
v 13.360387 -95.842109 129.135134
v 13.360387 -95.842109 132.489702
v 13.360387 -96.120923 132.489702
v 13.360387 -98.641662 131.439814
v 13.360387 -98.362849 131.439814
v 13.360387 -98.362849 134.794382
v 13.360387 -98.641662 134.794382
v 13.360387 -93.600183 126.830461
v 13.360387 -93.321370 126.830461
v 13.360387 -93.321370 130.185030
v 13.360387 -93.600183 130.185030
v -5.312190 -101.348928 132.691889
v -4.362757 -101.348928 132.691889
v -5.312190 -68.842211 102.360987
v -4.362757 -68.842211 102.360987
v -5.312190 -68.823641 104.944750
v -4.362757 -68.823641 104.944750
v -5.312190 -101.342825 135.907312
v -4.362757 -101.342825 135.907312
v -5.511576 -69.676046 103.731729
v -5.511576 -69.397232 103.731729
v -5.511576 -69.397232 107.086306
v -5.511576 -69.676046 107.086306
v -5.511576 -71.282303 105.624819
v -5.511576 -71.003489 105.624819
v -5.511576 -71.003489 108.979395
v -5.511576 -71.282303 108.979395
v -5.511576 -73.691689 107.747377
v -5.511576 -73.412874 107.747377
v -5.511576 -73.412874 111.101946
v -5.511576 -73.691689 111.101946
v -5.511576 -82.917027 116.567430
v -5.511576 -82.638214 116.567430
v -5.511576 -82.638214 119.921999
v -5.511576 -82.917027 119.921999
v -5.511576 -85.056665 118.500002
v -5.511576 -84.777852 118.500002
v -5.511576 -84.777852 121.854578
v -5.511576 -85.056665 121.854578
v -5.511576 -87.334345 120.708666
v -5.511576 -87.055531 120.708666
v -5.511576 -87.055531 124.063234
v -5.511576 -87.334345 124.063234
v -5.511576 -89.422957 122.725252
v -5.511576 -89.144144 122.725252
v -5.511576 -89.144144 126.079821
v -5.511576 -89.422957 126.079821
v -5.511576 -91.583592 124.813867
v -5.511576 -91.304778 124.813867
v -5.511576 -91.304778 128.168436
v -5.511576 -91.583592 128.168436
v -5.511576 -75.928974 110.042032
v -5.511576 -75.650162 110.042032
v -5.511576 -75.650162 113.396601
v -5.511576 -75.928974 113.396601
v -5.511576 -78.223627 112.049852
v -5.511576 -77.944815 112.049852
v -5.511576 -77.944815 115.404421
v -5.511576 -78.223627 115.404421
v -5.511576 -80.570328 114.358774
v -5.511576 -80.291514 114.358774
v -5.511576 -80.291514 117.713343
v -5.511576 -80.570328 117.713343
v -5.511576 -96.120923 129.135134
v -5.511576 -95.842109 129.135134
v -5.511576 -95.842109 132.489702
v -5.511576 -96.120923 132.489702
v -5.511576 -98.641662 131.439814
v -5.511576 -98.362849 131.439814
v -5.511576 -98.362849 134.794382
v -5.511576 -98.641662 134.794382
v -5.511576 -93.600183 126.830461
v -5.511576 -93.321370 126.830461
v -5.511576 -93.321370 130.185030
v -5.511576 -93.600183 130.185030
vt 0.625000 0.075000
vt 0.625000 0.250000
vt 0.375000 0.250000
vt 0.375000 0.075000
vt 0.625000 0.500000
vt 0.375000 0.500000
vt 0.625000 0.675000
vt 0.375000 0.675000
vt 0.875000 0.075000
vt 0.875000 0.250000
vt 0.125000 0.250000
vt 0.125000 0.075000
vt 0.375000 0.250000
vt 0.375000 0.000000
vt 0.375000 0.000000
vt 0.375000 0.250000
vt 0.375000 0.500000
vt 0.375000 0.500000
vt 0.375000 0.750000
vt 0.375000 0.750000
vt 0.375000 1.000000
vt 0.375000 1.000000
vt 0.125000 0.000000
vt 0.125000 0.250000
vt 0.375000 0.250000
vt 0.375000 0.000000
vt 0.375000 0.000000
vt 0.375000 0.250000
vt 0.375000 0.500000
vt 0.375000 0.500000
vt 0.375000 0.750000
vt 0.375000 0.750000
vt 0.375000 1.000000
vt 0.375000 1.000000
vt 0.125000 0.000000
vt 0.125000 0.250000
vt 0.375000 0.250000
vt 0.375000 0.000000
vt 0.375000 0.000000
vt 0.375000 0.250000
vt 0.375000 0.500000
vt 0.375000 0.500000
vt 0.375000 0.750000
vt 0.375000 0.750000
vt 0.375000 1.000000
vt 0.375000 1.000000
vt 0.125000 0.000000
vt 0.125000 0.250000
vt 0.375000 0.250000
vt 0.375000 0.000000
vt 0.375000 0.000000
vt 0.375000 0.250000
vt 0.375000 0.500000
vt 0.375000 0.500000
vt 0.375000 0.750000
vt 0.375000 0.750000
vt 0.375000 1.000000
vt 0.375000 1.000000
vt 0.125000 0.000000
vt 0.125000 0.250000
vt 0.375000 0.250000
vt 0.375000 0.000000
vt 0.375000 0.000000
vt 0.375000 0.250000
vt 0.375000 0.500000
vt 0.375000 0.500000
vt 0.375000 0.750000
vt 0.375000 0.750000
vt 0.375000 1.000000
vt 0.375000 1.000000
vt 0.125000 0.000000
vt 0.125000 0.250000
vt 0.375000 0.250000
vt 0.375000 0.000000
vt 0.375000 0.000000
vt 0.375000 0.250000
vt 0.375000 0.500000
vt 0.375000 0.500000
vt 0.375000 0.750000
vt 0.375000 0.750000
vt 0.375000 1.000000
vt 0.375000 1.000000
vt 0.125000 0.000000
vt 0.125000 0.250000
vt 0.375000 0.250000
vt 0.375000 0.000000
vt 0.375000 0.000000
vt 0.375000 0.250000
vt 0.375000 0.500000
vt 0.375000 0.500000
vt 0.375000 0.750000
vt 0.375000 0.750000
vt 0.375000 1.000000
vt 0.375000 1.000000
vt 0.125000 0.000000
vt 0.125000 0.250000
vt 0.375000 0.250000
vt 0.375000 0.000000
vt 0.375000 0.000000
vt 0.375000 0.250000
vt 0.375000 0.500000
vt 0.375000 0.500000
vt 0.375000 0.750000
vt 0.375000 0.750000
vt 0.375000 1.000000
vt 0.375000 1.000000
vt 0.125000 0.000000
vt 0.125000 0.250000
vt 0.375000 0.250000
vt 0.375000 0.000000
vt 0.375000 0.000000
vt 0.375000 0.250000
vt 0.375000 0.500000
vt 0.375000 0.500000
vt 0.375000 0.750000
vt 0.375000 0.750000
vt 0.375000 1.000000
vt 0.375000 1.000000
vt 0.125000 0.000000
vt 0.125000 0.250000
vt 0.375000 0.250000
vt 0.375000 0.000000
vt 0.375000 0.000000
vt 0.375000 0.250000
vt 0.375000 0.500000
vt 0.375000 0.500000
vt 0.375000 0.750000
vt 0.375000 0.750000
vt 0.375000 1.000000
vt 0.375000 1.000000
vt 0.125000 0.000000
vt 0.125000 0.250000
vt 0.375000 0.250000
vt 0.375000 0.000000
vt 0.375000 0.000000
vt 0.375000 0.250000
vt 0.375000 0.500000
vt 0.375000 0.500000
vt 0.375000 0.750000
vt 0.375000 0.750000
vt 0.375000 1.000000
vt 0.375000 1.000000
vt 0.125000 0.000000
vt 0.125000 0.250000
vt 0.375000 0.250000
vt 0.375000 0.000000
vt 0.375000 0.000000
vt 0.375000 0.250000
vt 0.375000 0.500000
vt 0.375000 0.500000
vt 0.375000 0.750000
vt 0.375000 0.750000
vt 0.375000 1.000000
vt 0.375000 1.000000
vt 0.125000 0.000000
vt 0.125000 0.250000
vt 0.375000 0.250000
vt 0.375000 0.000000
vt 0.375000 0.000000
vt 0.375000 0.250000
vt 0.375000 0.500000
vt 0.375000 0.500000
vt 0.375000 0.750000
vt 0.375000 0.750000
vt 0.375000 1.000000
vt 0.375000 1.000000
vt 0.125000 0.000000
vt 0.125000 0.250000
vt 0.375000 0.250000
vt 0.375000 0.000000
vt 0.375000 0.000000
vt 0.375000 0.250000
vt 0.375000 0.500000
vt 0.375000 0.500000
vt 0.375000 0.750000
vt 0.375000 0.750000
vt 0.375000 1.000000
vt 0.375000 1.000000
vt 0.125000 0.000000
vt 0.125000 0.250000
vt 0.625000 0.075000
vt 0.375000 0.075000
vt 0.375000 0.250000
vt 0.625000 0.250000
vt 0.375000 0.500000
vt 0.625000 0.500000
vt 0.375000 0.675000
vt 0.625000 0.675000
vt 0.875000 0.250000
vt 0.875000 0.075000
vt 0.125000 0.075000
vt 0.125000 0.250000
vt 0.125000 0.000000
vt 0.125000 0.250000
vt 0.125000 0.000000
vt 0.125000 0.250000
vt 0.125000 0.000000
vt 0.125000 0.250000
vt 0.125000 0.000000
vt 0.125000 0.250000
vt 0.125000 0.000000
vt 0.125000 0.250000
vt 0.125000 0.000000
vt 0.125000 0.250000
vt 0.125000 0.000000
vt 0.125000 0.250000
vt 0.125000 0.000000
vt 0.125000 0.250000
vt 0.125000 0.000000
vt 0.125000 0.250000
vt 0.125000 0.000000
vt 0.125000 0.250000
vt 0.125000 0.000000
vt 0.125000 0.250000
vt 0.125000 0.000000
vt 0.125000 0.250000
vt 0.125000 0.000000
vt 0.125000 0.250000
vt 0.125000 0.000000
vt 0.125000 0.250000
vn 0.000000 -0.682214 -0.731153
vn 0.000000 -0.682214 -0.731153
vn 0.000000 -0.682214 -0.731153
vn 0.000000 -0.682214 -0.731153
vn 0.000000 0.999974 -0.007187
vn 0.000000 0.999974 -0.007187
vn 0.000000 0.999974 -0.007187
vn 0.000000 0.999974 -0.007187
vn 0.000000 0.689561 0.724228
vn 0.000000 0.689561 0.724228
vn 0.000000 0.689561 0.724228
vn 0.000000 0.689561 0.724228
vn -1.000000 0.000000 0.000000
vn -1.000000 0.000000 0.000000
vn -1.000000 0.000000 0.000000
vn -1.000000 0.000000 0.000000
vn 1.000000 0.000000 0.000000
vn 1.000000 0.000000 0.000000
vn 1.000000 0.000000 0.000000
vn 1.000000 0.000000 0.000000
vn 0.000000 -0.999998 0.001898
vn 0.000000 -0.999998 0.001898
vn 0.000000 -0.999998 0.001898
vn 0.000000 -0.999998 0.001898
vn 0.000000 0.000000 -1.000000
vn 0.000000 0.000000 -1.000000
vn 0.000000 0.000000 -1.000000
vn 0.000000 0.000000 -1.000000
vn 0.000000 1.000000 0.000000
vn 0.000000 1.000000 0.000000
vn 0.000000 1.000000 0.000000
vn 0.000000 1.000000 0.000000
vn 0.000000 0.000000 1.000000
vn 0.000000 0.000000 1.000000
vn 0.000000 0.000000 1.000000
vn 0.000000 0.000000 1.000000
vn 0.000000 -1.000000 0.000000
vn 0.000000 -1.000000 0.000000
vn 0.000000 -1.000000 0.000000
vn 0.000000 -1.000000 0.000000
vn 1.000000 0.000000 0.000000
vn 1.000000 0.000000 0.000000
vn 1.000000 0.000000 0.000000
vn 1.000000 0.000000 0.000000
vn 0.000000 0.000000 -1.000000
vn 0.000000 0.000000 -1.000000
vn 0.000000 0.000000 -1.000000
vn 0.000000 0.000000 -1.000000
vn 0.000000 1.000000 0.000000
vn 0.000000 1.000000 0.000000
vn 0.000000 1.000000 0.000000
vn 0.000000 1.000000 0.000000
vn 0.000000 0.000000 1.000000
vn 0.000000 0.000000 1.000000
vn 0.000000 0.000000 1.000000
vn 0.000000 0.000000 1.000000
vn 0.000000 -1.000000 0.000000
vn 0.000000 -1.000000 0.000000
vn 0.000000 -1.000000 0.000000
vn 0.000000 -1.000000 0.000000
vn 1.000000 0.000000 0.000000
vn 1.000000 0.000000 0.000000
vn 1.000000 0.000000 0.000000
vn 1.000000 0.000000 0.000000
vn 0.000000 0.000000 -1.000000
vn 0.000000 0.000000 -1.000000
vn 0.000000 0.000000 -1.000000
vn 0.000000 0.000000 -1.000000
vn 0.000000 1.000000 0.000000
vn 0.000000 1.000000 0.000000
vn 0.000000 1.000000 0.000000
vn 0.000000 1.000000 0.000000
vn 0.000000 0.000000 1.000000
vn 0.000000 0.000000 1.000000
vn 0.000000 0.000000 1.000000
vn 0.000000 0.000000 1.000000
vn 0.000000 -1.000000 0.000000
vn 0.000000 -1.000000 0.000000
vn 0.000000 -1.000000 0.000000
vn 0.000000 -1.000000 0.000000
vn 1.000000 0.000000 0.000000
vn 1.000000 0.000000 0.000000
vn 1.000000 0.000000 0.000000
vn 1.000000 0.000000 0.000000
vn 0.000000 0.000000 -1.000000
vn 0.000000 0.000000 -1.000000
vn 0.000000 0.000000 -1.000000
vn 0.000000 0.000000 -1.000000
vn 0.000000 1.000000 0.000000
vn 0.000000 1.000000 0.000000
vn 0.000000 1.000000 0.000000
vn 0.000000 1.000000 0.000000
vn 0.000000 0.000000 1.000000
vn 0.000000 0.000000 1.000000
vn 0.000000 0.000000 1.000000
vn 0.000000 0.000000 1.000000
vn 0.000000 -1.000000 0.000000
vn 0.000000 -1.000000 0.000000
vn 0.000000 -1.000000 0.000000
vn 0.000000 -1.000000 0.000000
vn 1.000000 0.000000 0.000000
vn 1.000000 0.000000 0.000000
vn 1.000000 0.000000 0.000000
vn 1.000000 0.000000 0.000000
vn 0.000000 0.000000 -1.000000
vn 0.000000 0.000000 -1.000000
vn 0.000000 0.000000 -1.000000
vn 0.000000 0.000000 -1.000000
vn 0.000000 1.000000 0.000000
vn 0.000000 1.000000 0.000000
vn 0.000000 1.000000 0.000000
vn 0.000000 1.000000 0.000000
vn 0.000000 0.000000 1.000000
vn 0.000000 0.000000 1.000000
vn 0.000000 0.000000 1.000000
vn 0.000000 0.000000 1.000000
vn 0.000000 -1.000000 0.000000
vn 0.000000 -1.000000 0.000000
vn 0.000000 -1.000000 0.000000
vn 0.000000 -1.000000 0.000000
vn 1.000000 0.000000 0.000000
vn 1.000000 0.000000 0.000000
vn 1.000000 0.000000 0.000000
vn 1.000000 0.000000 0.000000
vn 0.000000 0.000000 -1.000000
vn 0.000000 0.000000 -1.000000
vn 0.000000 0.000000 -1.000000
vn 0.000000 0.000000 -1.000000
vn 0.000000 1.000000 0.000000
vn 0.000000 1.000000 0.000000
vn 0.000000 1.000000 0.000000
vn 0.000000 1.000000 0.000000
vn 0.000000 0.000000 1.000000
vn 0.000000 0.000000 1.000000
vn 0.000000 0.000000 1.000000
vn 0.000000 0.000000 1.000000
vn 0.000000 -1.000000 0.000000
vn 0.000000 -1.000000 0.000000
vn 0.000000 -1.000000 0.000000
vn 0.000000 -1.000000 0.000000
vn 1.000000 0.000000 0.000000
vn 1.000000 0.000000 0.000000
vn 1.000000 0.000000 0.000000
vn 1.000000 0.000000 0.000000
vn 0.000000 0.000000 -1.000000
vn 0.000000 0.000000 -1.000000
vn 0.000000 0.000000 -1.000000
vn 0.000000 0.000000 -1.000000
vn 0.000000 1.000000 0.000000
vn 0.000000 1.000000 0.000000
vn 0.000000 1.000000 0.000000
vn 0.000000 1.000000 0.000000
vn 0.000000 0.000000 1.000000
vn 0.000000 0.000000 1.000000
vn 0.000000 0.000000 1.000000
vn 0.000000 0.000000 1.000000
vn 0.000000 -1.000000 0.000000
vn 0.000000 -1.000000 0.000000
vn 0.000000 -1.000000 0.000000
vn 0.000000 -1.000000 0.000000
vn 1.000000 0.000000 0.000000
vn 1.000000 0.000000 0.000000
vn 1.000000 0.000000 0.000000
vn 1.000000 0.000000 0.000000
vn 0.000000 0.000000 -1.000000
vn 0.000000 0.000000 -1.000000
vn 0.000000 0.000000 -1.000000
vn 0.000000 0.000000 -1.000000
vn 0.000000 1.000000 0.000000
vn 0.000000 1.000000 0.000000
vn 0.000000 1.000000 0.000000
vn 0.000000 1.000000 0.000000
vn 0.000000 0.000000 1.000000
vn 0.000000 0.000000 1.000000
vn 0.000000 0.000000 1.000000
vn 0.000000 0.000000 1.000000
vn 0.000000 -1.000000 0.000000
vn 0.000000 -1.000000 0.000000
vn 0.000000 -1.000000 0.000000
vn 0.000000 -1.000000 0.000000
vn 1.000000 0.000000 0.000000
vn 1.000000 0.000000 0.000000
vn 1.000000 0.000000 0.000000
vn 1.000000 0.000000 0.000000
vn 0.000000 0.000000 -1.000000
vn 0.000000 0.000000 -1.000000
vn 0.000000 0.000000 -1.000000
vn 0.000000 0.000000 -1.000000
vn 0.000000 1.000000 0.000000
vn 0.000000 1.000000 0.000000
vn 0.000000 1.000000 0.000000
vn 0.000000 1.000000 0.000000
vn 0.000000 0.000000 1.000000
vn 0.000000 0.000000 1.000000
vn 0.000000 0.000000 1.000000
vn 0.000000 0.000000 1.000000
vn 0.000000 -1.000000 0.000000
vn 0.000000 -1.000000 0.000000
vn 0.000000 -1.000000 0.000000
vn 0.000000 -1.000000 0.000000
vn 1.000000 0.000000 0.000000
vn 1.000000 0.000000 0.000000
vn 1.000000 0.000000 0.000000
vn 1.000000 0.000000 0.000000
vn 0.000000 0.000000 -1.000000
vn 0.000000 0.000000 -1.000000
vn 0.000000 0.000000 -1.000000
vn 0.000000 0.000000 -1.000000
vn 0.000000 1.000000 0.000000
vn 0.000000 1.000000 0.000000
vn 0.000000 1.000000 0.000000
vn 0.000000 1.000000 0.000000
vn 0.000000 0.000000 1.000000
vn 0.000000 0.000000 1.000000
vn 0.000000 0.000000 1.000000
vn 0.000000 0.000000 1.000000
vn 0.000000 -1.000000 0.000000
vn 0.000000 -1.000000 0.000000
vn 0.000000 -1.000000 0.000000
vn 0.000000 -1.000000 0.000000
vn 1.000000 0.000000 0.000000
vn 1.000000 0.000000 0.000000
vn 1.000000 0.000000 0.000000
vn 1.000000 0.000000 0.000000
vn 0.000000 0.000000 -1.000000
vn 0.000000 0.000000 -1.000000
vn 0.000000 0.000000 -1.000000
vn 0.000000 0.000000 -1.000000
vn 0.000000 1.000000 0.000000
vn 0.000000 1.000000 0.000000
vn 0.000000 1.000000 0.000000
vn 0.000000 1.000000 0.000000
vn 0.000000 0.000000 1.000000
vn 0.000000 0.000000 1.000000
vn 0.000000 0.000000 1.000000
vn 0.000000 0.000000 1.000000
vn 0.000000 -1.000000 0.000000
vn 0.000000 -1.000000 0.000000
vn 0.000000 -1.000000 0.000000
vn 0.000000 -1.000000 0.000000
vn 1.000000 0.000000 0.000000
vn 1.000000 0.000000 0.000000
vn 1.000000 0.000000 0.000000
vn 1.000000 0.000000 0.000000
vn 0.000000 0.000000 -1.000000
vn 0.000000 0.000000 -1.000000
vn 0.000000 0.000000 -1.000000
vn 0.000000 0.000000 -1.000000
vn 0.000000 1.000000 0.000000
vn 0.000000 1.000000 0.000000
vn 0.000000 1.000000 0.000000
vn 0.000000 1.000000 0.000000
vn 0.000000 0.000000 1.000000
vn 0.000000 0.000000 1.000000
vn 0.000000 0.000000 1.000000
vn 0.000000 0.000000 1.000000
vn 0.000000 -1.000000 0.000000
vn 0.000000 -1.000000 0.000000
vn 0.000000 -1.000000 0.000000
vn 0.000000 -1.000000 0.000000
vn 1.000000 0.000000 0.000000
vn 1.000000 0.000000 0.000000
vn 1.000000 0.000000 0.000000
vn 1.000000 0.000000 0.000000
vn 0.000000 0.000000 -1.000000
vn 0.000000 0.000000 -1.000000
vn 0.000000 0.000000 -1.000000
vn 0.000000 0.000000 -1.000000
vn 0.000000 1.000000 0.000000
vn 0.000000 1.000000 0.000000
vn 0.000000 1.000000 0.000000
vn 0.000000 1.000000 0.000000
vn 0.000000 0.000000 1.000000
vn 0.000000 0.000000 1.000000
vn 0.000000 0.000000 1.000000
vn 0.000000 0.000000 1.000000
vn 0.000000 -1.000000 0.000000
vn 0.000000 -1.000000 0.000000
vn 0.000000 -1.000000 0.000000
vn 0.000000 -1.000000 0.000000
vn 1.000000 0.000000 0.000000
vn 1.000000 0.000000 0.000000
vn 1.000000 0.000000 0.000000
vn 1.000000 0.000000 0.000000
vn 0.000000 0.000000 -1.000000
vn 0.000000 0.000000 -1.000000
vn 0.000000 0.000000 -1.000000
vn 0.000000 0.000000 -1.000000
vn 0.000000 1.000000 0.000000
vn 0.000000 1.000000 0.000000
vn 0.000000 1.000000 0.000000
vn 0.000000 1.000000 0.000000
vn 0.000000 0.000000 1.000000
vn 0.000000 0.000000 1.000000
vn 0.000000 0.000000 1.000000
vn 0.000000 0.000000 1.000000
vn 0.000000 -1.000000 0.000000
vn 0.000000 -1.000000 0.000000
vn 0.000000 -1.000000 0.000000
vn 0.000000 -1.000000 0.000000
vn 1.000000 0.000000 0.000000
vn 1.000000 0.000000 0.000000
vn 1.000000 0.000000 0.000000
vn 1.000000 0.000000 0.000000
vn 0.000000 -0.682214 -0.731153
vn 0.000000 -0.682214 -0.731153
vn 0.000000 -0.682214 -0.731153
vn 0.000000 -0.682214 -0.731153
vn 0.000000 0.999974 -0.007187
vn 0.000000 0.999974 -0.007187
vn 0.000000 0.999974 -0.007187
vn 0.000000 0.999974 -0.007187
vn 0.000000 0.689561 0.724228
vn 0.000000 0.689561 0.724228
vn 0.000000 0.689561 0.724228
vn 0.000000 0.689561 0.724228
vn 1.000000 0.000000 0.000000
vn 1.000000 0.000000 0.000000
vn 1.000000 0.000000 0.000000
vn 1.000000 0.000000 0.000000
vn -1.000000 0.000000 0.000000
vn -1.000000 0.000000 0.000000
vn -1.000000 0.000000 0.000000
vn -1.000000 0.000000 0.000000
vn 0.000000 -0.999998 0.001898
vn 0.000000 -0.999998 0.001898
vn 0.000000 -0.999998 0.001898
vn 0.000000 -0.999998 0.001898
vn -1.000000 0.000000 0.000000
vn -1.000000 0.000000 0.000000
vn -1.000000 0.000000 0.000000
vn -1.000000 0.000000 0.000000
vn -1.000000 0.000000 0.000000
vn -1.000000 0.000000 0.000000
vn -1.000000 0.000000 0.000000
vn -1.000000 0.000000 0.000000
vn -1.000000 0.000000 0.000000
vn -1.000000 0.000000 0.000000
vn -1.000000 0.000000 0.000000
vn -1.000000 0.000000 0.000000
vn -1.000000 0.000000 0.000000
vn -1.000000 0.000000 0.000000
vn -1.000000 0.000000 0.000000
vn -1.000000 0.000000 0.000000
vn -1.000000 0.000000 0.000000
vn -1.000000 0.000000 0.000000
vn -1.000000 0.000000 0.000000
vn -1.000000 0.000000 0.000000
vn -1.000000 0.000000 0.000000
vn -1.000000 0.000000 0.000000
vn -1.000000 0.000000 0.000000
vn -1.000000 0.000000 0.000000
vn -1.000000 0.000000 0.000000
vn -1.000000 0.000000 0.000000
vn -1.000000 0.000000 0.000000
vn -1.000000 0.000000 0.000000
vn -1.000000 0.000000 0.000000
vn -1.000000 0.000000 0.000000
vn -1.000000 0.000000 0.000000
vn -1.000000 0.000000 0.000000
vn -1.000000 0.000000 0.000000
vn -1.000000 0.000000 0.000000
vn -1.000000 0.000000 0.000000
vn -1.000000 0.000000 0.000000
vn -1.000000 0.000000 0.000000
vn -1.000000 0.000000 0.000000
vn -1.000000 0.000000 0.000000
vn -1.000000 0.000000 0.000000
vn -1.000000 0.000000 0.000000
vn -1.000000 0.000000 0.000000
vn -1.000000 0.000000 0.000000
vn -1.000000 0.000000 0.000000
vn -1.000000 0.000000 0.000000
vn -1.000000 0.000000 0.000000
vn -1.000000 0.000000 0.000000
vn -1.000000 0.000000 0.000000
vn -1.000000 0.000000 0.000000
vn -1.000000 0.000000 0.000000
vn -1.000000 0.000000 0.000000
vn -1.000000 0.000000 0.000000
vn -1.000000 0.000000 0.000000
vn -1.000000 0.000000 0.000000
vn -1.000000 0.000000 0.000000
vn -1.000000 0.000000 0.000000
s off
f 2/1/1 4/2/2 3/3/3 1/4/4
f 4/2/5 6/5/6 5/6/7 3/3/8
f 6/5/9 8/7/10 7/8/11 5/6/12
f 4/2/13 2/1/14 8/9/15 6/10/16
f 3/3/17 5/11/18 7/12/19 1/4/20
f 2/1/21 1/4/22 7/8/23 8/9/24
f 10/13/25 9/14/26 73/15/27 74/16/28
f 11/17/29 10/13/30 74/16/31 75/18/32
f 12/19/33 11/17/34 75/18/35 76/20/36
f 9/21/37 12/19/38 76/20/39 73/22/40
f 12/23/41 9/14/42 10/13/43 11/24/44
f 14/25/45 13/26/46 77/27/47 78/28/48
f 15/29/49 14/25/50 78/28/51 79/30/52
f 16/31/53 15/29/54 79/30/55 80/32/56
f 13/33/57 16/31/58 80/32/59 77/34/60
f 16/35/61 13/26/62 14/25/63 15/36/64
f 18/37/65 17/38/66 81/39/67 82/40/68
f 19/41/69 18/37/70 82/40/71 83/42/72
f 20/43/73 19/41/74 83/42/75 84/44/76
f 17/45/77 20/43/78 84/44/79 81/46/80
f 20/47/81 17/38/82 18/37/83 19/48/84
f 22/49/85 21/50/86 85/51/87 86/52/88
f 23/53/89 22/49/90 86/52/91 87/54/92
f 24/55/93 23/53/94 87/54/95 88/56/96
f 21/57/97 24/55/98 88/56/99 85/58/100
f 24/59/101 21/50/102 22/49/103 23/60/104
f 26/61/105 25/62/106 89/63/107 90/64/108
f 27/65/109 26/61/110 90/64/111 91/66/112
f 28/67/113 27/65/114 91/66/115 92/68/116
f 25/69/117 28/67/118 92/68/119 89/70/120
f 28/71/121 25/62/122 26/61/123 27/72/124
f 30/73/125 29/74/126 93/75/127 94/76/128
f 31/77/129 30/73/130 94/76/131 95/78/132
f 32/79/133 31/77/134 95/78/135 96/80/136
f 29/81/137 32/79/138 96/80/139 93/82/140
f 32/83/141 29/74/142 30/73/143 31/84/144
f 34/85/145 33/86/146 97/87/147 98/88/148
f 35/89/149 34/85/150 98/88/151 99/90/152
f 36/91/153 35/89/154 99/90/155 100/92/156
f 33/93/157 36/91/158 100/92/159 97/94/160
f 36/95/161 33/86/162 34/85/163 35/96/164
f 38/97/165 37/98/166 101/99/167 102/100/168
f 39/101/169 38/97/170 102/100/171 103/102/172
f 40/103/173 39/101/174 103/102/175 104/104/176
f 37/105/177 40/103/178 104/104/179 101/106/180
f 40/107/181 37/98/182 38/97/183 39/108/184
f 42/109/185 41/110/186 105/111/187 106/112/188
f 43/113/189 42/109/190 106/112/191 107/114/192
f 44/115/193 43/113/194 107/114/195 108/116/196
f 41/117/197 44/115/198 108/116/199 105/118/200
f 44/119/201 41/110/202 42/109/203 43/120/204
f 46/121/205 45/122/206 109/123/207 110/124/208
f 47/125/209 46/121/210 110/124/211 111/126/212
f 48/127/213 47/125/214 111/126/215 112/128/216
f 45/129/217 48/127/218 112/128/219 109/130/220
f 48/131/221 45/122/222 46/121/223 47/132/224
f 50/133/225 49/134/226 113/135/227 114/136/228
f 51/137/229 50/133/230 114/136/231 115/138/232
f 52/139/233 51/137/234 115/138/235 116/140/236
f 49/141/237 52/139/238 116/140/239 113/142/240
f 52/143/241 49/134/242 50/133/243 51/144/244
f 54/145/245 53/146/246 117/147/247 118/148/248
f 55/149/249 54/145/250 118/148/251 119/150/252
f 56/151/253 55/149/254 119/150/255 120/152/256
f 53/153/257 56/151/258 120/152/259 117/154/260
f 56/155/261 53/146/262 54/145/263 55/156/264
f 58/157/265 57/158/266 121/159/267 122/160/268
f 59/161/269 58/157/270 122/160/271 123/162/272
f 60/163/273 59/161/274 123/162/275 124/164/276
f 57/165/277 60/163/278 124/164/279 121/166/280
f 60/167/281 57/158/282 58/157/283 59/168/284
f 62/169/285 61/170/286 125/171/287 126/172/288
f 63/173/289 62/169/290 126/172/291 127/174/292
f 64/175/293 63/173/294 127/174/295 128/176/296
f 61/177/297 64/175/298 128/176/299 125/178/300
f 64/179/301 61/170/302 62/169/303 63/180/304
f 66/181/305 65/182/306 67/183/307 68/184/308
f 68/184/309 67/183/310 69/185/311 70/186/312
f 70/186/313 69/185/314 71/187/315 72/188/316
f 68/184/317 70/189/318 72/190/319 66/181/320
f 67/183/321 65/182/322 71/191/323 69/192/324
f 66/181/325 72/190/326 71/187/327 65/182/328
f 76/193/329 75/194/330 74/16/331 73/15/332
f 80/195/333 79/196/334 78/28/335 77/27/336
f 84/197/337 83/198/338 82/40/339 81/39/340
f 88/199/341 87/200/342 86/52/343 85/51/344
f 92/201/345 91/202/346 90/64/347 89/63/348
f 96/203/349 95/204/350 94/76/351 93/75/352
f 100/205/353 99/206/354 98/88/355 97/87/356
f 104/207/357 103/208/358 102/100/359 101/99/360
f 108/209/361 107/210/362 106/112/363 105/111/364
f 112/211/365 111/212/366 110/124/367 109/123/368
f 116/213/369 115/214/370 114/136/371 113/135/372
f 120/215/373 119/216/374 118/148/375 117/147/376
f 124/217/377 123/218/378 122/160/379 121/159/380
f 128/219/381 127/220/382 126/172/383 125/171/384
