# This file uses centimeters as units for non-parametric coordinates.

mtllib CommonRoom_Table.mtl
g default
v -2.853576 -10.453455 1.696489
v -2.853576 -10.453455 -9.908111
v 11.930352 -10.453455 -9.908111
v 11.930352 -10.453455 1.696489
v -2.853576 -10.453455 -21.512712
v 11.930352 -10.453455 -21.512712
v -2.853576 -10.453455 -33.117312
v 11.930352 -10.453455 -33.117312
v 1.965181 -10.453455 -1.930019
v 2.690397 -11.178671 -2.655235
v 1.965181 -10.453455 -6.281604
v 2.690397 -11.178671 -5.556388
v 7.111595 -10.453455 -6.281604
v 6.386379 -11.178671 -5.556388
v 7.111595 -10.453455 -1.930019
v 6.386379 -11.178671 -2.655235
v 1.965181 -10.453455 -25.139218
v 2.690397 -11.178671 -25.864434
v 1.965181 -10.453455 -29.490804
v 2.690397 -11.178671 -28.765588
v 7.111595 -10.453455 -29.490804
v 6.386379 -11.178671 -28.765588
v 7.111595 -10.453455 -25.139218
v 6.386379 -11.178671 -25.864434
v 2.690397 -17.114274 -2.655235
v 3.415613 -17.839490 -3.380451
v 3.415613 -17.839490 -4.831173
v 2.690397 -17.114274 -5.556388
v 5.661163 -17.839490 -4.831173
v 6.386379 -17.114274 -5.556388
v 5.661163 -17.839490 -3.380451
v 6.386379 -17.114274 -2.655235
v 2.690397 -17.114274 -25.864434
v 3.415613 -17.839490 -26.589649
v 3.415613 -17.839490 -28.040371
v 2.690397 -17.114274 -28.765588
v 5.661163 -17.839490 -28.040371
v 6.386379 -17.114274 -28.765588
v 5.661163 -17.839490 -26.589649
v 6.386379 -17.114274 -25.864434
v 11.930352 -10.231967 1.696489
v 11.930352 -10.342711 -9.908111
v 11.930352 -10.342711 -21.512712
v 11.930352 -10.231967 -33.117312
v 11.930352 -9.724032 1.696489
v 11.773738 -9.567417 1.539874
v 11.930352 -9.724032 -9.908111
v 11.773738 -9.567417 -9.908111
v 11.930352 -9.724032 -21.512712
v 11.773738 -9.567417 -21.512712
v 11.773738 -9.567417 -32.960696
v 11.930352 -9.724032 -33.117312
v -2.696961 -9.567417 1.539874
v -2.853576 -9.724032 1.696489
v -2.696961 -9.567417 -9.908111
v -2.853576 -9.724032 -9.908111
v -2.696961 -9.567417 -21.512712
v -2.853576 -9.724032 -21.512712
v -2.696961 -9.567417 -32.960696
v -2.853576 -9.724032 -33.117312
v -2.853576 -10.231967 1.696489
v -2.853576 -10.342711 -9.908111
v -2.853576 -10.342711 -21.512712
v -2.853576 -10.231967 -33.117312
v 2.592376 -9.724032 -34.471181
v 2.592376 -9.567417 -34.302385
v 2.592376 -9.567417 -21.512712
v 2.592376 -9.567417 -9.908111
v 2.592376 -9.567417 2.881563
v 2.592376 -9.724032 3.050359
v 6.540651 -9.724032 -34.471181
v 6.540652 -9.567417 -34.302385
v 6.540651 -9.567417 -21.512712
v 6.540651 -9.567417 -9.908111
v 6.540651 -9.567417 2.881563
v 6.540651 -9.724032 3.050359
v 2.592376 -10.231967 3.050359
v 2.592376 -10.453455 3.050359
v 6.540651 -10.231967 3.050359
v 6.540652 -10.453455 3.050359
v 6.540651 -10.231967 -34.471181
v 6.540652 -10.453455 -34.471181
v 2.592376 -10.231967 -34.471181
v 2.592376 -10.453455 -34.471181
vt 0.305964 0.023851
vt 0.284742 0.059013
vt 0.176586 0.059013
vt 0.155364 0.023851
vt 0.284742 0.346801
vt 0.176586 0.346801
vt 0.263520 0.381963
vt 0.197808 0.381963
vt 0.176432 0.059013
vt 0.155210 0.023851
vt 0.305810 0.023851
vt 0.284588 0.059013
vt 0.284588 0.346801
vt 0.176432 0.346801
vt 0.197654 0.381963
vt 0.263366 0.381963
vt 0.306321 0.023851
vt 0.285099 0.059013
vt 0.176943 0.059013
vt 0.155721 0.023851
vt 0.285099 0.346801
vt 0.176943 0.346801
vt 0.263877 0.381963
vt 0.198165 0.381963
vt 0.177455 0.059013
vt 0.156233 0.023851
vt 0.306833 0.023851
vt 0.285612 0.059013
vt 0.285612 0.346801
vt 0.177455 0.346801
vt 0.198677 0.381963
vt 0.264390 0.381963
vt 0.085915 0.030904
vt 0.100168 0.030904
vt 0.100168 0.365409
vt 0.085915 0.365409
vt 0.132854 0.365409
vt 0.132855 0.030905
vt 0.100168 0.610453
vt 0.085915 0.610453
vt 0.132854 0.610453
vt 0.142933 0.040624
vt 0.142933 0.365409
vt 0.100168 0.948448
vt 0.085915 0.948448
vt 0.132855 0.948448
vt 0.142933 0.610453
vt 0.142933 0.938728
vt 0.100168 0.370676
vt 0.085915 0.370676
vt 0.085915 0.032681
vt 0.100168 0.032681
vt 0.100168 0.615719
vt 0.085915 0.615719
vt 0.132855 0.370676
vt 0.132854 0.032681
vt 0.100168 0.950223
vt 0.085915 0.950223
vt 0.132855 0.615719
vt 0.142933 0.370676
vt 0.142933 0.042400
vt 0.132855 0.950223
vt 0.142933 0.615719
vt 0.142933 0.940504
vt 0.627976 0.375454
vt 0.627976 0.662515
vt 0.305623 0.662515
vt 0.305623 0.375454
vt 0.522906 0.752224
vt 0.410692 0.752225
vt 0.410692 0.285746
vt 0.522906 0.285745
vt 0.627976 0.949577
vt 0.522906 0.859869
vt 0.305623 0.949577
vt 0.410692 0.859869
vt 0.305623 0.088392
vt 0.410692 0.178100
vt 0.627976 0.088392
vt 0.522906 0.178100
vt 0.509230 0.983067
vt 0.423141 0.983067
vt 0.423141 0.054901
vt 0.509230 0.054901
vt 0.192646 0.861649
vt 0.254904 0.861649
vt 0.254904 0.942766
vt 0.192646 0.942766
vt 0.193386 0.861649
vt 0.255645 0.861649
vt 0.255645 0.942766
vt 0.193386 0.942766
vt 0.991202 0.079267
vt 0.991203 0.371714
vt 0.870564 0.371714
vt 0.870564 0.044992
vt 0.991202 0.668163
vt 0.870564 0.668163
vt 0.779545 0.371714
vt 0.779545 0.044993
vt 0.991202 0.960609
vt 0.870564 0.994883
vt 0.779545 0.668163
vt 0.657611 0.371714
vt 0.657611 0.079267
vt 0.779545 0.994883
vt 0.657611 0.668163
vt 0.657611 0.960609
vt 0.175533 0.060344
vt 0.148559 0.025182
vt 0.310419 0.025182
vt 0.283444 0.060344
vt 0.283444 0.348132
vt 0.175533 0.348132
vt 0.202509 0.383294
vt 0.256469 0.383294
vt 0.177917 0.062064
vt 0.150943 0.026902
vt 0.312802 0.026902
vt 0.285828 0.062064
vt 0.285828 0.349852
vt 0.177918 0.349852
vt 0.204892 0.385014
vt 0.258852 0.385014
vt 0.177809 0.060344
vt 0.150834 0.025182
vt 0.312693 0.025182
vt 0.285719 0.060344
vt 0.285719 0.348132
vt 0.177808 0.348132
vt 0.204783 0.383294
vt 0.258744 0.383294
vt 0.177571 0.062064
vt 0.150596 0.026902
vt 0.312456 0.026902
vt 0.285481 0.062064
vt 0.285481 0.349852
vt 0.177571 0.349852
vt 0.204545 0.385014
vt 0.258507 0.385014
vt 0.030528 0.979496
vt 0.019747 0.979496
vt 0.019748 0.661147
vt 0.025138 0.661147
vt 0.019747 0.342801
vt 0.025138 0.342801
vt 0.055251 0.661147
vt 0.055251 0.979496
vt 0.019747 0.024452
vt 0.030528 0.024452
vt 0.055251 0.342801
vt 0.062875 0.975199
vt 0.062874 0.661148
vt 0.055251 0.024452
vt 0.062874 0.342801
vt 0.062874 0.028748
vt 0.055511 0.977998
vt 0.063362 0.973722
vt 0.063362 0.661172
vt 0.055511 0.661172
vt 0.063362 0.344346
vt 0.055511 0.344346
vt 0.024497 0.661172
vt 0.030049 0.977998
vt 0.063363 0.031796
vt 0.055511 0.027520
vt 0.024497 0.344346
vt 0.018945 0.977998
vt 0.018945 0.661172
vt 0.030049 0.027520
vt 0.018945 0.344346
vt 0.018945 0.027520
vn 0.000000 -1.000000 0.000000
vn 0.000000 -1.000000 0.000000
vn -0.000000 -1.000000 -0.000000
vn -0.000000 -1.000000 -0.000000
vn -0.000000 -0.707107 0.707106
vn -0.000000 -0.707107 0.707106
vn -0.000000 -0.707107 0.707106
vn -0.000000 -0.707107 0.707106
vn -0.707107 -0.707107 -0.000000
vn -0.707107 -0.707107 -0.000000
vn -0.707107 -0.707107 -0.000000
vn -0.707107 -0.707107 -0.000000
vn 0.000000 -0.707106 -0.707108
vn 0.000000 -0.707106 -0.707108
vn 0.000000 -0.707106 -0.707108
vn 0.000000 -0.707106 -0.707108
vn 0.707107 -0.707107 0.000000
vn 0.707107 -0.707107 0.000000
vn 0.707107 -0.707107 0.000000
vn 0.707107 -0.707107 0.000000
vn -0.000000 -0.707106 0.707107
vn -0.000000 -0.707106 0.707107
vn -0.000000 -0.707106 0.707107
vn -0.000000 -0.707106 0.707107
vn -0.707107 -0.707107 -0.000000
vn -0.707107 -0.707107 -0.000000
vn -0.707107 -0.707107 -0.000000
vn -0.707107 -0.707107 -0.000000
vn 0.000000 -0.707107 -0.707106
vn 0.000000 -0.707107 -0.707106
vn 0.000000 -0.707107 -0.707106
vn 0.000000 -0.707107 -0.707106
vn 0.707107 -0.707107 0.000000
vn 0.707107 -0.707107 0.000000
vn 0.707107 -0.707107 0.000000
vn 0.707107 -0.707107 0.000000
vn -0.000000 -0.707107 0.707107
vn -0.000000 -0.707107 0.707107
vn -0.000000 -0.707107 0.707107
vn -0.000000 -0.707107 0.707107
vn -0.707107 -0.707107 -0.000000
vn -0.707107 -0.707107 -0.000000
vn -0.707107 -0.707107 -0.000000
vn -0.707107 -0.707107 -0.000000
vn 0.000000 -0.707107 -0.707107
vn 0.000000 -0.707107 -0.707107
vn 0.000000 -0.707107 -0.707107
vn 0.000000 -0.707107 -0.707107
vn 0.707107 -0.707107 0.000000
vn 0.707107 -0.707107 0.000000
vn 0.707107 -0.707107 0.000000
vn 0.707107 -0.707107 0.000000
vn -0.000000 -0.707107 0.707107
vn -0.000000 -0.707107 0.707107
vn -0.000000 -0.707107 0.707107
vn -0.000000 -0.707107 0.707107
vn -0.707107 -0.707107 -0.000000
vn -0.707107 -0.707107 -0.000000
vn -0.707107 -0.707107 -0.000000
vn -0.707107 -0.707107 -0.000000
vn 0.000000 -0.707107 -0.707107
vn 0.000000 -0.707107 -0.707107
vn 0.000000 -0.707107 -0.707107
vn 0.000000 -0.707107 -0.707107
vn 0.707107 -0.707107 0.000000
vn 0.707107 -0.707107 0.000000
vn 0.707107 -0.707107 0.000000
vn 0.707107 -0.707107 0.000000
vn 0.000000 -1.000000 0.000000
vn 0.000000 -1.000000 0.000000
vn 0.000000 -1.000000 0.000000
vn 0.000000 -1.000000 0.000000
vn 0.000000 -1.000000 0.000000
vn 0.000000 -1.000000 0.000000
vn 0.000000 -1.000000 0.000000
vn 0.000000 -1.000000 0.000000
vn 0.000000 -1.000000 0.000000
vn 0.000000 -1.000000 0.000000
vn 0.000000 -1.000000 0.000000
vn -0.000000 -1.000000 -0.000000
vn -0.000000 -1.000000 -0.000000
vn -0.000000 -1.000000 -0.000000
vn 0.000000 -1.000000 0.000000
vn 0.000000 -1.000000 0.000000
vn 0.000000 -1.000000 0.000000
vn 0.000000 -1.000000 0.000000
vn 0.000000 -1.000000 0.000000
vn 0.000000 -1.000000 0.000000
vn 0.000000 -1.000000 0.000000
vn -0.000000 -1.000000 -0.000000
vn -0.000000 -1.000000 -0.000000
vn -0.000000 -1.000000 -0.000000
vn -1.000000 0.000000 -0.000000
vn -1.000000 0.000000 -0.000000
vn -1.000000 0.000000 -0.000000
vn -1.000000 0.000000 -0.000000
vn 0.000000 0.000000 -1.000000
vn 0.000000 0.000000 -1.000000
vn 0.000000 0.000000 -1.000000
vn 0.000000 0.000000 -1.000000
vn 1.000000 0.000000 0.000000
vn 1.000000 0.000000 0.000000
vn 1.000000 0.000000 0.000000
vn 1.000000 0.000000 0.000000
vn -0.000000 0.000000 1.000000
vn -0.000000 0.000000 1.000000
vn -0.000000 0.000000 1.000000
vn -0.000000 0.000000 1.000000
vn -1.000000 0.000000 -0.000000
vn -1.000000 0.000000 -0.000000
vn -1.000000 0.000000 -0.000000
vn -1.000000 0.000000 -0.000000
vn 0.000000 0.000000 -1.000000
vn 0.000000 0.000000 -1.000000
vn 0.000000 0.000000 -1.000000
vn 0.000000 0.000000 -1.000000
vn 1.000000 0.000000 0.000000
vn 1.000000 0.000000 0.000000
vn 1.000000 0.000000 0.000000
vn 1.000000 0.000000 0.000000
vn -0.000000 0.000000 1.000000
vn -0.000000 0.000000 1.000000
vn -0.000000 0.000000 1.000000
vn -0.000000 0.000000 1.000000
vn 1.000000 0.000000 0.000000
vn 1.000000 0.000000 0.000000
vn 1.000000 0.000000 0.000000
vn 1.000000 0.000000 0.000000
vn 0.243627 0.000006 0.969869
vn 0.243627 0.000002 0.969869
vn 0.143485 0.000001 0.989653
vn 0.143485 0.000007 0.989652
vn 1.000000 0.000000 0.000000
vn 1.000000 0.000000 0.000000
vn 1.000000 0.000000 0.000000
vn 1.000000 0.000000 0.000000
vn -0.142643 -0.000002 -0.989774
vn -0.142643 -0.000004 -0.989774
vn -0.241258 0.000000 -0.970461
vn -0.241258 0.000000 -0.970461
vn 0.163003 0.748861 0.642368
vn 0.163003 0.748861 0.642368
vn 0.096172 0.744904 0.660204
vn 0.096024 0.744891 0.660240
vn 0.707108 0.707105 0.000000
vn 0.707108 0.707105 0.000000
vn 0.707108 0.707105 0.000000
vn 0.707108 0.707105 0.000000
vn 0.707108 0.707105 0.000000
vn 0.707108 0.707105 0.000000
vn 0.707108 0.707105 0.000000
vn 0.707108 0.707105 0.000000
vn 0.163003 0.748859 -0.642371
vn 0.163003 0.748859 -0.642371
vn 0.096024 0.744891 -0.660240
vn 0.096172 0.744904 -0.660204
vn -0.707106 0.707107 -0.000000
vn -0.707106 0.707107 -0.000000
vn -0.707106 0.707107 -0.000000
vn -0.707106 0.707107 -0.000000
vn -0.707106 0.707107 -0.000000
vn -0.707106 0.707107 -0.000000
vn -0.707106 0.707107 -0.000000
vn -0.707106 0.707107 -0.000000
vn -1.000000 0.000000 -0.000000
vn -1.000000 0.000000 -0.000000
vn -1.000000 0.000000 -0.000000
vn -1.000000 0.000000 -0.000000
vn -1.000000 0.000000 -0.000000
vn -1.000000 0.000000 -0.000000
vn -1.000000 0.000000 -0.000000
vn -1.000000 0.000000 -0.000000
vn 1.000000 0.000000 0.000000
vn 1.000000 0.000000 0.000000
vn 1.000000 0.000000 0.000000
vn 1.000000 0.000000 0.000000
vn -0.000000 1.000000 -0.000000
vn -0.000000 1.000000 -0.000000
vn -0.000000 1.000000 -0.000000
vn -0.000000 1.000000 -0.000000
vn 0.000000 1.000000 0.000000
vn 0.000000 1.000000 0.000000
vn 0.000000 1.000000 0.000000
vn 0.000000 1.000000 0.000000
vn -1.000000 0.000000 -0.000000
vn -1.000000 0.000000 -0.000000
vn -1.000000 0.000000 -0.000000
vn -1.000000 0.000000 -0.000000
vn -0.142643 -0.000002 -0.989774
vn -0.241258 0.000000 -0.970461
vn 0.143485 -0.000002 0.989653
vn 0.243627 0.000000 0.969869
vn -0.095621 0.744787 -0.660415
vn -0.095476 0.744775 -0.660450
vn -0.161443 0.748692 -0.642959
vn -0.161443 0.748692 -0.642959
vn 0.000000 1.000000 0.000000
vn 0.000000 1.000000 0.000000
vn 0.000000 1.000000 0.000000
vn 0.000000 1.000000 0.000000
vn 0.000000 1.000000 0.000000
vn 0.000000 1.000000 0.000000
vn 0.000000 1.000000 0.000000
vn 0.000000 1.000000 0.000000
vn -0.095477 0.744773 0.660452
vn -0.095621 0.744786 0.660417
vn -0.161443 0.748692 0.642959
vn -0.161443 0.748692 0.642959
vn -0.241258 0.000000 0.970461
vn -0.142643 0.000000 0.989774
vn -0.142643 -0.000002 0.989774
vn -0.241258 0.000000 0.970461
vn -0.142643 0.000004 0.989774
vn -0.241258 0.000000 0.970461
vn 0.243627 0.000004 -0.969869
vn 0.143485 0.000000 -0.989653
vn 0.143485 -0.000000 -0.989653
vn 0.243627 0.000003 -0.969869
vn 0.243627 0.000006 -0.969869
vn 0.143485 0.000000 -0.989653
s 1
f 2/65/1 5/66/2 6/67/3 3/68/4
s off
f 9/1/5 10/2/6 16/3/7 15/4/8
f 10/109/9 9/110/10 11/111/11 12/112/12
f 12/9/13 11/10/14 13/11/15 14/12/16
f 14/117/17 13/118/18 15/119/19 16/120/20
f 17/17/21 18/18/22 24/19/23 23/20/24
f 18/125/25 17/126/26 19/127/27 20/128/28
f 20/25/29 19/26/30 21/27/31 22/28/32
f 22/133/33 21/134/34 23/135/35 24/136/36
f 25/5/37 26/7/38 31/8/39 32/6/40
f 26/115/41 25/114/42 28/113/43 27/116/44
f 27/15/45 28/14/46 30/13/47 29/16/48
f 29/123/49 30/122/50 32/121/51 31/124/52
f 33/21/53 34/23/54 39/24/55 40/22/56
f 34/131/57 33/130/58 36/129/59 35/132/60
f 35/31/61 36/30/62 38/29/63 37/32/64
f 37/139/65 38/138/66 40/137/67 39/140/68
f 26/85/69 27/86/70 29/87/71 31/88/72
f 34/89/73 35/90/74 37/91/75 39/92/76
s 1
f 1/79/77 2/65/1 11/72/78 9/80/79
f 2/65/1 3/68/4 13/71/80 11/72/78
f 3/68/4 4/77/81 15/78/82 13/71/80
f 4/77/81 80/83/83 78/84/84 1/79/77 9/80/79 15/78/82
f 5/66/2 7/73/85 19/74/86 17/69/87
f 7/73/85 84/81/88 82/82/89 8/75/90 21/76/91 19/74/86
f 8/75/90 6/67/3 23/70/92 21/76/91
f 6/67/3 5/66/2 17/69/87 23/70/92
s off
f 10/109/93 12/112/94 28/113/95 25/114/96
f 12/9/97 14/12/98 30/13/99 28/14/100
f 14/117/101 16/120/102 32/121/103 30/122/104
f 16/3/105 10/2/106 25/5/107 32/6/108
f 18/125/109 20/128/110 36/129/111 33/130/112
f 20/25/113 22/28/114 38/29/115 36/30/116
f 22/133/117 24/136/118 40/137/119 38/138/120
f 24/19/121 18/18/122 33/21/123 40/22/124
s 3
f 41/141/125 4/142/126 3/143/127 42/144/128
s 4
f 4/33/129 41/34/130 79/35/131 80/36/132
s 3
f 42/144/128 3/143/127 6/145/133 43/146/134
f 43/146/134 6/145/133 8/149/135 44/150/136
s 5
f 83/49/137 84/50/138 7/51/139 64/52/140
s 6
f 45/38/141 46/42/142 75/43/143 76/37/144
s 7
f 46/152/145 45/148/146 47/147/147 48/153/148
f 48/153/148 47/147/147 49/151/149 50/155/150
f 50/155/150 49/151/149 52/154/151 51/156/152
s 8
f 51/64/153 52/62/154 71/59/155 72/63/156
s 9
f 54/157/157 53/158/158 55/159/159 56/160/160
f 56/160/160 55/159/159 57/161/161 58/162/162
f 58/162/162 57/161/161 59/165/163 60/166/164
s 10
f 1/168/165 61/164/166 62/163/167 2/169/168
f 2/169/168 62/163/167 63/167/169 5/171/170
f 5/171/170 63/167/169 64/170/171 7/172/172
s 3
f 41/141/125 42/144/128 47/147/173 45/148/174
f 42/144/128 43/146/134 49/151/175 47/147/173
f 43/146/134 44/150/136 52/154/176 49/151/175
s 11
f 46/93/177 48/94/178 74/95/179 75/96/180
f 48/94/178 50/97/181 73/98/182 74/95/179
f 50/97/181 51/101/183 72/102/184 73/98/182
s 10
f 54/157/185 56/160/186 62/163/167 61/164/166
f 56/160/186 58/162/187 63/167/169 62/163/167
f 58/162/187 60/166/188 64/170/171 63/167/169
s 5
f 65/55/189 83/49/137 64/52/140 60/56/190
s 4
f 76/37/191 79/35/131 41/34/130 45/38/192
s 8
f 66/60/193 65/55/194 60/56/195 59/61/196
s 11
f 67/103/197 66/106/198 59/108/199 57/107/200
f 68/99/201 67/103/197 57/107/200 55/104/202
f 69/100/203 68/99/201 55/104/202 53/105/204
s 6
f 70/41/205 69/47/206 53/48/207 54/46/208
s 8
f 72/63/156 71/59/155 65/55/194 66/60/193
s 11
f 73/98/182 72/102/184 66/106/198 67/103/197
f 74/95/179 73/98/182 67/103/197 68/99/201
f 75/96/180 74/95/179 68/99/201 69/100/203
s 6
f 76/37/144 75/43/143 69/47/206 70/41/205
s 4
f 61/44/209 77/39/210 70/41/211 54/46/212
f 78/40/213 77/39/210 61/44/209 1/45/214
f 70/41/211 77/39/210 79/35/131 76/37/191
f 80/36/132 79/35/131 77/39/210 78/40/213
s 5
f 44/57/215 81/53/216 71/59/217 52/62/218
f 44/57/215 8/58/219 82/54/220 81/53/216
f 71/59/217 81/53/216 83/49/137 65/55/189
f 81/53/216 82/54/220 84/50/138 83/49/137
