# This file uses centimeters as units for non-parametric coordinates.

mtllib EngineRoom_ControlPanel.mtl
g default
v 16.311922 -67.920490 -104.019309
v 22.905626 -67.920490 -104.019309
v 28.906604 -67.920490 -104.019309
v 16.311922 -59.194808 -104.019309
v 22.905626 -59.194808 -104.019309
v 28.906604 -59.194808 -104.019309
v 16.311922 -57.976897 -106.998008
v 22.905626 -57.976897 -106.998008
v 28.906604 -57.976897 -106.998008
v 16.311917 -59.194808 -106.998008
v 22.905626 -59.194808 -106.998008
v 28.906604 -59.194808 -106.998008
v 16.311917 -67.920490 -106.998008
v 22.905626 -67.920490 -106.998008
v 28.906604 -67.920490 -106.998008
v 23.335125 -64.024126 -104.011740
v 28.477105 -64.024126 -104.011740
v 28.477105 -61.083820 -104.011740
v 23.335125 -61.083820 -104.011740
v 12.472564 -67.920490 -106.998008
v 12.472564 -67.920490 -100.256766
v 12.472564 -59.194808 -100.256767
v 12.472564 -59.194808 -106.997989
v 12.472564 -57.976897 -100.256767
v 12.472564 -57.976897 -106.998008
v 16.311919 -67.920490 -100.256766
v 16.311919 -59.194808 -100.256767
v 16.311922 -60.272272 -104.019309
v 16.311919 -60.272272 -100.256767
v 12.472564 -60.272272 -100.256767
v 12.472564 -60.272272 -106.997992
v 16.311911 -60.272272 -106.998008
v 22.905626 -60.272272 -106.998008
v 28.906604 -60.272272 -106.998008
v 28.906604 -60.272272 -104.019309
v 28.746943 -60.272272 -104.019309
v 23.147429 -60.272272 -104.019309
v 22.905626 -60.272272 -104.019309
v 16.311922 -67.083943 -104.011740
v 16.311919 -67.083943 -100.256767
v 16.311922 -58.090384 -100.584783
v 16.311919 -59.194808 -100.584783
v 16.311919 -60.272272 -100.584783
v 16.311919 -67.083943 -100.584783
v 16.311922 -58.970496 -103.369377
v 16.311922 -59.194808 -103.369377
v 16.311922 -60.272272 -103.369377
v 16.311922 -67.083943 -103.369378
v 12.773108 -60.272272 -100.584783
v 12.773107 -67.083943 -100.584783
v 12.773110 -67.083943 -103.369381
v 12.773110 -60.272272 -103.369380
v 16.311922 -58.005266 -100.433482
v 16.290373 -57.998446 -100.256768
v 22.905626 -58.005276 -100.436251
v 28.906604 -58.005276 -100.436251
v 22.905626 -58.092915 -100.584783
v 28.906604 -58.099897 -100.584783
v 28.906604 -57.976897 -100.584784
v 22.905626 -57.976897 -100.584783
v 16.311922 -57.976897 -100.584784
v 12.472564 -57.976897 -100.584784
v 12.472564 -59.194808 -100.584783
v 12.472564 -60.272272 -100.584783
v 12.472564 -67.920489 -100.584782
v 16.311919 -67.920489 -100.584782
v 28.906604 -57.976897 -104.019310
v 22.905626 -57.976897 -104.019310
v 16.311922 -57.976897 -104.019309
v 12.472564 -57.976897 -104.019309
v 12.472564 -59.194808 -104.019309
v 12.472564 -60.272272 -104.019309
v 12.472564 -67.920490 -104.019310
v 12.472564 -67.083943 -100.256766
v 12.472564 -67.083943 -100.584782
v 12.472564 -67.083943 -104.019310
v 12.472564 -67.083943 -106.998006
v 16.311916 -67.083943 -106.998008
v 22.905626 -67.083944 -106.998008
v 28.906604 -67.083944 -106.998008
v 28.906604 -67.083945 -104.019309
v 28.813842 -67.083944 -104.017675
v 22.983432 -67.083946 -104.017938
v 22.905626 -67.083946 -104.019309
v 14.515159 -60.272272 -100.584783
v 14.515159 -67.083943 -100.584783
v 14.515161 -67.083943 -103.369379
v 14.515161 -60.272272 -103.369379
v 13.774789 -61.045570 -103.369379
v 13.774789 -60.824821 -103.369379
v 13.513482 -60.824821 -103.369380
v 13.513482 -61.045570 -103.369380
v 15.535718 -61.835635 -100.584783
v 15.535718 -62.064102 -100.584783
v 15.291358 -62.064102 -100.584783
v 15.291358 -61.835635 -100.584783
v 15.535718 -61.835635 -101.674401
v 15.535718 -62.064102 -101.674401
v 15.291358 -62.064102 -101.674401
v 15.291358 -61.835635 -101.674401
v 13.774787 -61.045570 -102.357842
v 13.774787 -60.824821 -102.357842
v 13.513480 -60.824821 -102.357842
v 13.513480 -61.045570 -102.357842
vt 0.375000 0.000000
vt 0.500000 0.500000
vt 0.625000 0.000000
vt 0.375000 0.125000
vt 0.625000 0.125000
vt 0.625000 0.500000
vt 0.375000 0.625000
vt 0.500000 0.625000
vt 0.625000 0.625000
vt 0.250000 0.375000
vt 0.500000 0.750000
vt 0.625000 0.750000
vt 0.625000 1.000000
vt 0.875000 0.000000
vt 0.875000 0.125000
vt 0.125000 0.125000
vt 0.125459 0.249807
vt 0.500000 0.000000
vt 0.625000 0.000000
vt 0.625000 0.125000
vt 0.500000 0.125000
vt 0.125000 0.000000
vt 0.375000 0.000000
vt 0.375000 0.125000
vt 0.125000 0.125000
vt 0.125000 0.250000
vt 0.375000 0.000000
vt 0.375000 0.112109
vt 0.375000 0.111768
vt 0.375000 0.111009
vt 0.125000 0.108964
vt 0.125000 0.107482
vt 0.500000 0.644319
vt 0.625000 0.645959
vt 0.875000 0.104042
vt 0.625000 0.115088
vt 0.625000 0.125000
vt 0.500000 0.125000
vt 0.500000 0.109541
vt 0.375000 0.012948
vt 0.375000 0.015430
vt 0.375000 0.125000
vt 0.375000 0.111799
vt 0.375000 0.015206
vt 0.374944 0.148051
vt 0.375000 0.125000
vt 0.375000 0.112048
vt 0.375000 0.013340
vt 0.375000 0.111799
vt 0.375000 0.015206
vt 0.375000 0.013340
vt 0.375000 0.112048
vt 0.375000 0.125000
vt 0.367993 0.250147
vt 0.375000 0.250000
vt 0.374702 0.247941
vt 0.875000 0.250000
vt 0.628411 0.247087
vt 0.374706 0.250603
vt 0.625000 0.256823
vt 0.500000 0.125000
vt 0.374723 0.238494
vt 0.500000 0.250499
vt 0.375012 0.500254
vt 0.500000 0.500000
vt 0.500000 0.238093
vt 0.625000 0.237376
vt 0.625000 0.264631
vt 0.639631 0.250000
vt 0.500000 0.264525
vt 0.360330 0.250136
vt 0.374713 0.264571
vt 0.360658 0.250000
vt 0.361226 0.125000
vt 0.361730 0.110900
vt 0.365302 0.000000
vt 0.369290 0.000000
vt 0.625000 0.391851
vt 0.766851 0.250000
vt 0.500000 0.390159
vt 0.236817 0.249963
vt 0.374871 0.388511
vt 0.237782 0.250000
vt 0.237320 0.125000
vt 0.236912 0.109879
vt 0.234013 0.000000
vt 0.375000 0.014073
vt 0.364849 0.014059
vt 0.234381 0.013930
vt 0.125000 0.013814
vt 0.230489 0.330141
vt 0.500000 0.737861
vt 0.625000 0.737848
vt 0.875000 0.012152
vt 0.625000 0.012686
vt 0.625000 0.000000
vt 0.500000 0.409423
vt 0.500000 0.464085
vt 0.277663 0.443889
vt 0.375000 0.111799
vt 0.375000 0.015206
vt 0.375000 0.013340
vt 0.375000 0.112048
vt 0.375000 0.013340
vt 0.375000 0.112048
vt 0.375000 0.112048
vt 0.375000 0.013340
vt 0.375000 0.111799
vt 0.375000 0.015206
vt 0.375000 0.015206
vt 0.375000 0.111799
vt 0.375000 0.111799
vt 0.375000 0.015206
vt 0.375000 0.015206
vt 0.375000 0.111799
vt 0.375000 0.013340
vt 0.375000 0.112048
vt 0.375000 0.112048
vt 0.375000 0.013340
vn 0.000574 -0.004524 0.999990
vn 0.000574 -0.004524 0.999990
vn 0.000574 -0.004524 0.999990
vn 0.000574 -0.004524 0.999990
vn 0.000000 0.000000 1.000000
vn 0.000000 0.000000 1.000000
vn 0.000000 0.000000 1.000000
vn 0.000000 0.000000 1.000000
vn 0.000000 0.000000 -1.000000
vn 0.000000 0.000000 -1.000000
vn 0.000000 0.000000 -1.000000
vn 0.000000 0.000000 -1.000000
vn 0.000000 0.000000 -1.000000
vn 0.000000 0.000000 -1.000000
vn 0.000000 0.000000 -1.000000
vn 0.000000 0.000000 -1.000000
vn -0.000000 0.000000 -1.000000
vn -0.000000 0.000000 -1.000000
vn -0.000000 0.000000 -1.000000
vn -0.000000 0.000000 -1.000000
vn -0.000000 0.000000 -1.000000
vn 0.000000 0.000000 -1.000000
vn 0.000000 0.000000 -1.000000
vn 0.000000 0.000000 -1.000000
vn 0.000000 0.000000 -1.000000
vn 0.000000 -1.000000 0.000000
vn 0.000000 -1.000000 0.000000
vn 0.000000 -1.000000 0.000000
vn 0.000000 -1.000000 0.000000
vn 1.000000 0.000000 0.000000
vn 1.000000 0.000000 0.000000
vn 1.000000 0.000000 0.000000
vn 1.000000 0.000000 0.000000
vn 1.000000 0.000000 0.000000
vn 1.000000 0.000000 0.000000
vn 1.000000 0.000000 0.000000
vn -1.000000 0.000000 0.000000
vn -1.000000 0.000000 0.000000
vn -1.000000 0.000000 0.000000
vn -1.000000 0.000000 0.000000
vn -1.000000 0.000000 0.000000
vn -1.000000 0.000000 0.000000
vn -1.000000 0.000000 0.000000
vn -1.000000 0.000000 0.000000
vn -0.000022 -0.001797 0.999998
vn -0.000022 -0.001797 0.999998
vn -0.000022 -0.001797 0.999998
vn -0.000022 -0.001797 0.999998
vn 0.017621 0.000000 0.999845
vn 0.017621 0.000000 0.999845
vn 0.017621 0.000000 0.999845
vn 0.000000 0.009327 0.999957
vn 0.000000 0.009327 0.999957
vn 0.000000 0.009327 0.999957
vn 0.000000 0.009327 0.999957
vn -0.017620 0.000000 0.999845
vn -0.017620 0.000000 0.999845
vn -0.017620 0.000000 0.999845
vn 0.000000 0.000000 1.000000
vn 0.000000 0.000000 1.000000
vn 0.000000 0.000000 1.000000
vn 0.000000 0.000000 1.000000
vn -0.000000 0.000001 -1.000000
vn -0.000000 0.000001 -1.000000
vn -0.000000 0.000001 -1.000000
vn -0.000000 0.000001 -1.000000
vn 0.000000 0.000001 1.000000
vn 0.000000 0.000001 1.000000
vn 0.000000 0.000001 1.000000
vn 0.000000 0.000001 1.000000
vn -0.000002 -0.000008 -1.000000
vn -0.000002 -0.000008 -1.000000
vn -0.000002 -0.000008 -1.000000
vn -0.000002 -0.000008 -1.000000
vn 1.000000 -0.000004 0.000001
vn 1.000000 -0.000004 0.000001
vn 1.000000 -0.000004 0.000001
vn 0.000000 0.000000 -0.000000
vn 0.000000 0.000000 -0.000000
vn 0.043949 0.000000 -0.999034
vn 1.000000 0.000000 0.000001
vn 1.000000 0.000000 0.000001
vn 1.000000 0.000000 0.000001
vn 1.000000 0.000000 0.000001
vn 0.000000 0.000000 1.000000
vn 0.000000 0.000000 1.000000
vn 0.000000 0.000000 1.000000
vn 0.000000 0.000000 1.000000
vn -1.000000 0.000000 0.000000
vn -1.000000 0.000000 0.000000
vn -1.000000 0.000000 0.000000
vn -1.000000 0.000000 0.000000
vn -0.000005 0.000001 -1.000000
vn -0.000005 0.000001 -1.000000
vn -0.000005 0.000001 -1.000000
vn -0.000005 0.000001 -1.000000
vn 0.000000 0.000000 -1.000000
vn 0.000000 0.000000 -1.000000
vn 0.000000 0.000000 -1.000000
vn 0.000000 0.000000 -1.000000
vn 1.000000 0.000000 0.000000
vn 1.000000 0.000000 0.000000
vn 1.000000 0.000000 0.000000
vn 1.000000 0.000000 0.000000
vn 0.000000 0.000000 1.000000
vn 0.000000 0.000000 1.000000
vn 0.000000 0.000000 1.000000
vn 0.000000 0.000000 1.000000
vn 0.000000 0.000000 1.000000
vn 0.000000 0.000000 1.000000
vn 0.000000 0.000000 1.000000
vn 0.000000 0.000000 1.000000
vn 0.000000 0.000000 1.000000
vn 0.000000 0.000000 1.000000
vn 0.000000 0.000000 1.000000
vn 0.000000 0.000000 1.000000
vn 0.000000 0.000000 1.000000
vn 0.000000 0.000000 1.000000
vn 1.000000 -0.000000 0.000001
vn 1.000000 -0.000000 0.000001
vn 1.000000 -0.000000 0.000001
vn 1.000000 -0.000000 0.000001
vn 0.999432 0.004949 0.033329
vn 0.999432 0.004949 0.033329
vn 0.999432 0.004949 0.033329
vn 0.999432 0.004949 0.033329
vn 0.999432 0.004949 0.033329
vn 1.000000 0.000000 0.000002
vn 1.000000 0.000000 0.000002
vn 1.000000 0.000000 0.000002
vn 1.000000 0.000000 0.000002
vn 1.000000 -0.000000 0.000001
vn 1.000000 -0.000000 0.000001
vn 1.000000 -0.000000 0.000001
vn 1.000000 -0.000000 0.000001
vn 1.000000 -0.000002 0.000001
vn 1.000000 -0.000002 0.000001
vn 1.000000 -0.000002 0.000001
vn 1.000000 -0.000002 0.000001
vn 1.000000 0.000000 0.000001
vn 1.000000 0.000000 0.000001
vn 1.000000 0.000000 0.000001
vn 1.000000 0.000000 0.000001
vn 1.000000 -0.000000 0.000001
vn 1.000000 -0.000000 0.000001
vn 1.000000 -0.000000 0.000001
vn 1.000000 -0.000000 0.000001
vn 0.000000 0.000000 -1.000000
vn 0.000000 0.000000 -1.000000
vn 0.000000 0.000000 -1.000000
vn 0.000000 0.000000 -1.000000
vn 0.000000 1.000000 0.000000
vn 0.000000 1.000000 0.000000
vn 0.000000 1.000000 0.000000
vn 0.000000 1.000000 0.000000
vn -0.000001 0.000000 1.000000
vn -0.000001 0.000000 1.000000
vn -0.000001 0.000000 1.000000
vn -0.000001 0.000000 1.000000
vn 0.000000 -1.000000 0.000000
vn 0.000000 -1.000000 0.000000
vn 0.000000 -1.000000 0.000000
vn 0.000000 -1.000000 0.000000
vn 0.005211 0.999438 0.033124
vn 0.005211 0.999438 0.033124
vn 0.005211 0.999438 0.033124
vn 0.005211 0.999438 0.033124
vn 0.005211 0.999438 0.033124
vn -0.000062 -0.866466 0.499236
vn -0.000062 -0.866466 0.499236
vn -0.000062 -0.866466 0.499236
vn -0.000062 -0.866466 0.499236
vn -0.000496 -0.852359 0.522956
vn -0.000496 -0.852359 0.522956
vn -0.000496 -0.852359 0.522956
vn -0.000496 -0.852359 0.522956
vn 0.000040 0.982556 0.185966
vn 0.000040 0.982556 0.185966
vn 0.000040 0.982556 0.185966
vn 0.000040 0.982556 0.185966
vn 0.000000 0.982232 0.187672
vn 0.000000 0.982232 0.187672
vn 0.000000 0.982232 0.187672
vn 0.000000 0.982232 0.187672
vn -0.001289 -0.952092 0.305809
vn -0.001289 -0.952092 0.305809
vn -0.001289 -0.952092 0.305809
vn -0.001289 -0.952092 0.305809
vn -0.001289 -0.952092 0.305809
vn -0.000554 -0.952476 0.304613
vn -0.000554 -0.952476 0.304613
vn -0.000554 -0.952476 0.304613
vn -0.000554 -0.952476 0.304613
vn 1.000000 0.000000 0.000000
vn 1.000000 0.000000 0.000000
vn 1.000000 0.000000 0.000000
vn 1.000000 0.000000 0.000000
vn 0.000000 1.000000 0.000000
vn 0.000000 1.000000 0.000000
vn 0.000000 1.000000 0.000000
vn 0.000000 1.000000 0.000000
vn 0.000000 1.000000 -0.000000
vn 0.000000 1.000000 -0.000000
vn 0.000000 1.000000 -0.000000
vn 0.000000 1.000000 -0.000000
vn 0.000000 1.000000 0.000000
vn 0.000000 1.000000 0.000000
vn 0.000000 1.000000 0.000000
vn 0.000000 1.000000 0.000000
vn -1.000000 0.000000 0.000000
vn -1.000000 0.000000 0.000000
vn -1.000000 0.000000 0.000000
vn -1.000000 0.000000 0.000000
vn -1.000000 0.000000 0.000000
vn -1.000000 0.000000 0.000000
vn -1.000000 0.000000 0.000000
vn -1.000000 0.000000 0.000000
vn -1.000000 0.000000 -0.000000
vn -1.000000 0.000000 -0.000000
vn -1.000000 0.000000 -0.000000
vn -1.000000 0.000000 -0.000000
vn 1.000000 0.000000 0.000001
vn 1.000000 0.000000 0.000001
vn 1.000000 0.000000 0.000001
vn 1.000000 0.000000 0.000001
vn 1.000000 0.000000 0.000001
vn 1.000000 0.000000 0.000001
vn 1.000000 0.000000 0.000001
vn 1.000000 0.000000 0.000000
vn 1.000000 0.000000 0.000000
vn 1.000000 0.000000 0.000000
vn 1.000000 0.000000 0.000000
vn 0.000000 1.000000 0.000000
vn 0.000000 1.000000 0.000000
vn 0.000000 1.000000 0.000000
vn 0.000000 1.000000 0.000000
vn 0.000000 1.000000 0.000000
vn 0.000000 1.000000 0.000000
vn 0.000000 1.000000 0.000000
vn 0.000000 1.000000 0.000000
vn 0.000000 1.000000 0.000000
vn 0.000000 1.000000 0.000000
vn 0.000000 1.000000 0.000000
vn 0.000000 1.000000 0.000000
vn -1.000000 0.000000 0.000000
vn -1.000000 0.000000 0.000000
vn -1.000000 0.000000 0.000000
vn -1.000000 0.000000 0.000000
vn -1.000000 -0.000000 0.000000
vn -1.000000 -0.000000 0.000000
vn -1.000000 -0.000000 0.000000
vn -1.000000 -0.000000 0.000000
vn -1.000000 -0.000001 0.000000
vn -1.000000 -0.000001 0.000000
vn -1.000000 -0.000001 0.000000
vn -1.000000 -0.000001 0.000000
vn 0.000000 -1.000000 0.000000
vn 0.000000 -1.000000 0.000000
vn 0.000000 -1.000000 0.000000
vn 0.000000 -1.000000 0.000000
vn 0.000000 -1.000000 0.000000
vn 0.000000 -1.000000 0.000000
vn 0.000000 -1.000000 0.000000
vn 0.000000 -1.000000 0.000000
vn 1.000000 0.000001 0.000001
vn 1.000000 0.000001 0.000001
vn 1.000000 0.000001 0.000001
vn 1.000000 0.000001 0.000001
vn -0.000000 -1.000000 -0.000002
vn -0.000000 -1.000000 -0.000002
vn -0.000000 -1.000000 -0.000002
vn -0.000000 -1.000000 -0.000002
vn -0.000000 -1.000000 0.000000
vn -0.000000 -1.000000 0.000000
vn -0.000000 -1.000000 0.000000
vn -0.000000 -1.000000 0.000000
vn 0.000000 0.000000 1.000000
vn 0.000000 0.000000 1.000000
vn 0.000000 0.000000 1.000000
vn 0.000000 0.000000 1.000000
vn -1.000000 0.000000 0.000000
vn -1.000000 0.000000 0.000000
vn -1.000000 0.000000 0.000000
vn -1.000000 0.000000 0.000000
vn -1.000000 -0.000000 -0.000000
vn -1.000000 -0.000000 -0.000000
vn -1.000000 -0.000000 -0.000000
vn -1.000000 -0.000000 -0.000000
vn -1.000000 -0.000000 0.000000
vn -1.000000 -0.000000 0.000000
vn -1.000000 -0.000000 0.000000
vn -1.000000 -0.000000 0.000000
vn -0.000002 0.000001 -1.000000
vn -0.000002 0.000001 -1.000000
vn -0.000002 0.000001 -1.000000
vn -0.000002 0.000001 -1.000000
vn 0.000000 0.000000 -1.000000
vn 0.000000 0.000000 -1.000000
vn 0.000000 0.000000 -1.000000
vn 0.000000 0.000000 -1.000000
vn 1.000000 0.000000 0.000000
vn 1.000000 0.000000 0.000000
vn 1.000000 0.000000 0.000000
vn 1.000000 0.000000 0.000000
vn 0.017125 0.000263 0.999853
vn 0.017125 0.000263 0.999853
vn 0.017125 0.000263 0.999853
vn 0.017125 0.000263 0.999853
vn 0.017125 0.000263 0.999853
vn 0.017125 0.000263 0.999853
vn -0.000024 -0.001983 0.999998
vn -0.000024 -0.001983 0.999998
vn -0.000024 -0.001983 0.999998
vn -0.000024 -0.001983 0.999998
vn -0.016873 0.000396 0.999858
vn -0.016873 0.000396 0.999858
vn -0.016873 0.000396 0.999858
vn -0.016873 0.000396 0.999858
vn -0.016873 0.000396 0.999858
vn -0.016873 0.000396 0.999858
vn 0.000574 0.000556 1.000000
vn 0.000574 0.000556 1.000000
vn 0.000574 0.000556 1.000000
vn 0.000574 0.000556 1.000000
vn 0.000000 0.000000 -1.000000
vn 0.000000 0.000000 -1.000000
vn 0.000000 0.000000 -1.000000
vn 0.000000 0.000000 -1.000000
vn 0.000000 0.000000 -1.000000
vn 0.000000 0.000000 -1.000000
vn 0.000000 0.000000 -1.000000
vn 0.000000 0.000000 -1.000000
vn 0.000000 1.000000 0.000000
vn 0.000000 1.000000 0.000000
vn -0.000001 -0.000000 1.000000
vn -0.000001 -0.000000 1.000000
vn -0.000001 -0.000000 1.000000
vn -0.000001 -0.000000 1.000000
vn 0.000000 -1.000000 0.000000
vn 0.000000 -1.000000 0.000000
vn -0.000001 -0.000000 1.000000
vn -0.000001 -0.000000 1.000000
vn -0.000001 -0.000000 1.000000
vn -0.000001 -0.000000 1.000000
vn -0.000001 -0.000000 1.000000
vn -0.000001 -0.000000 1.000000
vn 0.000000 0.000000 -1.000000
vn 0.000000 0.000000 -1.000000
vn 0.000000 0.000000 -1.000000
vn 0.000000 0.000000 -1.000000
vn 0.000000 0.000000 -1.000000
vn 0.000000 0.000000 -1.000000
vn 1.000000 0.000000 0.000000
vn 1.000000 0.000000 0.000000
vn 1.000000 0.000000 0.000000
vn 1.000000 0.000000 0.000000
vn 0.000000 -1.000000 0.000000
vn 0.000000 -1.000000 0.000000
vn 0.000000 -1.000000 0.000000
vn 0.000000 -1.000000 0.000000
vn -1.000000 0.000000 0.000000
vn -1.000000 0.000000 0.000000
vn -1.000000 0.000000 0.000000
vn -1.000000 0.000000 0.000000
vn 0.000000 1.000000 0.000000
vn 0.000000 1.000000 0.000000
vn 0.000000 1.000000 0.000000
vn 0.000000 1.000000 0.000000
vn 1.000000 0.000000 0.000002
vn 1.000000 0.000000 0.000002
vn 1.000000 0.000000 0.000002
vn 1.000000 0.000000 0.000002
vn 0.000000 1.000000 -0.000000
vn 0.000000 1.000000 -0.000000
vn 0.000000 1.000000 -0.000000
vn 0.000000 1.000000 -0.000000
vn -1.000000 0.000000 -0.000002
vn -1.000000 0.000000 -0.000002
vn -1.000000 0.000000 -0.000002
vn -1.000000 0.000000 -0.000002
vn 0.000000 -1.000000 0.000000
vn 0.000000 -1.000000 0.000000
vn 0.000000 -1.000000 0.000000
vn 0.000000 -1.000000 0.000000
s off
f 1/1/1 2/2/2 84/98/3 39/40/4
f 16/18/5 17/19/6 18/20/7 19/21/8
f 7/64/9 8/65/10 11/8/11 10/7/12
f 8/65/13 9/6/14 12/9/15 11/8/16
f 10/7/17 11/8/18 33/33/19 79/92/20 78/99/21
f 79/92/22 80/93/23 15/12/24 14/11/25
f 14/11/26 15/12/27 3/13/28 2/2/29
f 3/3/30 15/14/31 80/94/32 81/95/33
f 58/67/34 59/69/35 56/58/36
f 74/87/37 75/88/38 65/76/39 21/23/40
f 62/73/41 63/74/42 22/24/43 24/55/44
f 2/2/45 3/3/46 82/96/47 83/97/48
f 3/3/49 81/95/50 82/96/51
f 36/37/52 37/38/53 19/21/54 18/20/55
f 83/97/56 84/98/57 2/2/58
f 21/23/59 26/27/60 40/41/61 74/87/62
f 77/90/63 78/91/64 13/10/65 20/22/66
f 27/53/67 54/56/68 24/55/69 22/24/70
f 7/17/71 10/16/72 23/25/73 25/26/74
f 4/4/75 45/45/76 46/46/77
f 10/16/78 78/91/79 32/32/80
f 46/46/81 47/47/82 28/28/83 4/4/84
f 30/30/85 29/29/86 27/53/87 22/24/88
f 63/74/89 64/75/90 30/30/91 22/24/92
f 10/16/93 32/32/94 31/31/95 23/25/96
f 11/8/97 12/9/98 34/34/99 33/33/100
f 35/36/101 34/35/102 12/15/103 6/5/104
f 36/37/105 35/36/106 6/5/107
f 6/5/108 5/61/109 37/38/110 36/37/111
f 5/61/112 38/39/113 37/38/114
f 28/28/115 38/39/116 5/61/117 4/4/118
f 47/47/119 48/48/120 39/40/121 28/28/122
f 42/42/123 41/62/124 53/59/125 54/56/126 27/53/127
f 29/29/128 43/43/129 42/42/130 27/53/131
f 40/41/132 44/44/133 43/43/134 29/29/135
f 46/46/136 45/45/137 41/62/138 42/42/139
f 42/42/140 43/43/141 47/47/142 46/46/143
f 49/49/144 50/50/145 51/51/146 52/52/147
s 1
f 85/100/148 86/101/149 50/50/150 49/49/151
s 2
f 86/101/152 87/102/153 51/51/154 50/50/155
s off
f 101/116/156 102/117/157 103/118/158 104/119/159
s 3
f 88/103/160 85/100/161 49/49/162 52/52/163
s off
f 54/56/164 53/54/165 61/71/166 62/73/167 24/55/168
f 41/62/169 57/66/170 55/63/171 53/59/172
f 57/66/173 58/67/174 56/58/175 55/63/176
f 53/59/177 55/63/178 60/70/179 61/72/180
f 55/63/181 56/60/182 59/68/183 60/70/184
f 4/4/185 5/61/186 57/66/187 41/62/188 45/45/189
f 5/61/190 6/5/191 58/67/192 57/66/193
f 6/5/194 67/79/195 59/69/196 58/67/197
f 60/70/198 59/68/199 67/78/200 68/80/201
f 61/72/202 60/70/203 68/80/204 69/82/205
f 62/73/206 61/71/207 69/81/208 70/83/209
f 70/83/210 71/84/211 63/74/212 62/73/213
f 71/84/214 72/85/215 64/75/216 63/74/217
f 75/88/218 76/89/219 73/86/220 65/76/221
f 39/40/222 48/48/223 1/1/224
f 1/1/225 48/48/226 44/44/227 66/77/228
f 6/5/229 12/15/230 9/57/231 67/79/232
f 68/80/233 67/78/234 9/6/235 8/65/236
f 69/82/237 68/80/238 8/65/239 7/64/240
f 70/83/241 69/81/242 7/17/243 25/26/244
f 23/25/245 71/84/246 70/83/247 25/26/248
f 31/31/249 72/85/250 71/84/251 23/25/252
f 20/22/253 73/86/254 76/89/255 77/90/256
f 20/22/257 13/10/258 1/1/259 73/86/260
f 2/2/261 1/1/262 13/10/263 14/11/264
f 26/27/265 66/77/266 44/44/267 40/41/268
f 66/77/269 26/27/270 21/23/271 65/76/272
f 66/77/273 65/76/274 73/86/275 1/1/276
f 74/87/277 40/41/278 29/29/279 30/30/280
f 64/75/281 75/88/282 74/87/283 30/30/284
f 72/85/285 76/89/286 75/88/287 64/75/288
f 77/90/289 76/89/290 72/85/291 31/31/292
f 31/31/293 32/32/294 78/91/295 77/90/296
f 33/33/297 34/34/298 80/93/299 79/92/300
f 81/95/301 80/94/302 34/35/303 35/36/304
f 82/96/305 81/95/306 35/36/307 36/37/308 18/20/309 17/19/310
f 83/97/311 82/96/312 17/19/313 16/18/314
f 37/38/315 38/39/316 84/98/317 83/97/318 16/18/319 19/21/320
f 39/40/321 84/98/322 38/39/323 28/28/324
f 78/99/325 79/92/326 14/11/327 13/10/328
f 97/112/329 98/113/330 99/114/331 100/115/332
s 2
f 44/44/333 48/48/334 87/102/153 86/101/152
s 4
f 48/48/335 47/47/336 88/103/337 87/102/338
s 3
f 47/47/339 43/43/340 85/100/161 88/103/160
s 4
f 87/102/338 88/103/337 90/105/341 89/104/342
f 88/103/337 52/52/343 91/106/344 90/105/341
f 52/52/343 51/51/345 92/107/346 91/106/344
f 51/51/345 87/102/338 89/104/342 92/107/346
s 1
f 43/43/347 44/44/348 94/109/349 93/108/350
f 44/44/348 86/101/149 95/110/351 94/109/349
f 86/101/149 85/100/148 96/111/352 95/110/351
f 85/100/148 43/43/347 93/108/350 96/111/352
s off
f 93/108/353 94/109/354 98/113/355 97/112/356
f 94/109/357 95/110/358 99/114/359 98/113/360
f 95/110/361 96/111/362 100/115/363 99/114/364
f 96/111/365 93/108/366 97/112/367 100/115/368
f 89/104/369 90/105/370 102/117/371 101/116/372
f 90/105/373 91/106/374 103/118/375 102/117/376
f 91/106/377 92/107/378 104/119/379 103/118/380
f 92/107/381 89/104/382 101/116/383 104/119/384
