# This file uses centimeters as units for non-parametric coordinates.

mtllib Galley_Bar-chair.mtl
g default
v 53.406550 -10.015086 347.133938
v 58.064952 -10.015086 347.133938
v 53.406550 -10.015086 342.475535
v 58.064952 -10.015086 342.475535
v 55.194859 -10.015083 344.534263
v 55.059649 -10.015083 344.128634
v 55.465278 -10.015083 344.263844
v 55.194859 -18.380558 344.534263
v 55.465278 -18.380558 344.263844
v 56.006225 -10.015083 344.263844
v 56.411853 -10.015083 344.128634
v 56.276644 -10.015083 344.534263
v 56.276644 -18.380558 344.534263
v 56.006225 -18.380558 344.263844
v 56.276644 -10.015083 345.075210
v 56.411853 -10.015083 345.480839
v 56.006225 -10.015083 345.345629
v 56.006225 -18.380558 345.345629
v 56.276644 -18.380558 345.075210
v 55.465278 -10.015083 345.345629
v 55.059649 -10.015083 345.480839
v 55.194859 -10.015083 345.075210
v 55.194859 -18.380558 345.075210
v 55.465278 -18.380558 345.345629
v 53.630212 -9.545017 346.910275
v 54.133362 -9.075043 346.407125
v 57.338140 -9.075043 346.407125
v 57.841290 -9.545017 346.910275
v 54.133362 -9.075043 343.202347
v 53.630212 -9.545017 342.699197
v 57.338140 -9.075043 343.202347
v 57.841290 -9.545017 342.699197
vt 0.578094 0.968210
vt 0.982349 0.968210
vt 0.838894 0.824754
vt 0.803693 0.813020
vt 0.756750 0.813020
vt 0.721550 0.824754
vt 0.982349 0.563954
vt 0.838894 0.707410
vt 0.827160 0.742610
vt 0.827160 0.789553
vt 0.578094 0.563954
vt 0.721550 0.707410
vt 0.756750 0.719143
vt 0.803693 0.719143
vt 0.733283 0.789553
vt 0.733283 0.742610
vt 0.733283 0.789553
vt 0.756750 0.813020
vt 0.803693 0.813020
vt 0.827160 0.789553
vt 0.827160 0.742610
vt 0.803693 0.719143
vt 0.756750 0.719143
vt 0.150164 0.830432
vt 0.580895 0.019167
vt 0.237588 0.757289
vt 0.241275 0.758322
vt 0.974406 0.019167
vt 0.974406 0.412678
vt 0.580895 0.412678
vt 0.149277 0.828796
vt 0.733283 0.742610
vt 0.149277 0.230326
vt 0.237588 0.301833
vt 0.060948 0.860582
vt 0.241275 0.299019
vt 0.150163 0.226908
vt 0.059033 0.194853
vt 0.274874 0.053419
vt 0.274874 0.980002
vt 0.513706 0.980002
vt 0.513706 0.053419
vt 0.485014 0.053419
vt 0.485014 0.980002
vt 0.443659 0.980002
vt 0.443659 0.053419
vt 0.414967 0.053419
vt 0.414967 0.980002
vt 0.373613 0.980002
vt 0.373613 0.053419
vt 0.344920 0.053419
vt 0.344920 0.980002
vt 0.303566 0.980002
vt 0.303566 0.053419
vt 0.555061 0.980002
vt 0.555061 0.053419
vt 0.236905 0.753147
vt 0.148035 0.823913
vt 0.148035 0.231646
vt 0.236905 0.302411
vt 0.059147 0.855370
vt 0.059147 0.200189
vt 0.148241 0.829403
vt 0.238158 0.757701
vt 0.238158 0.301001
vt 0.148241 0.229299
vt 0.058306 0.197425
vt 0.058306 0.861276
vt 0.060948 0.198540
vt 0.059033 0.862487
vn 0.000000 -1.000000 0.000002
vn 0.000000 -1.000000 0.000002
vn 0.000000 -1.000000 0.000002
vn 0.000000 -1.000000 0.000002
vn 0.000000 -1.000000 0.000002
vn 0.000000 -1.000000 0.000002
vn -0.000002 -1.000000 0.000000
vn -0.000002 -1.000000 0.000000
vn -0.000002 -1.000000 0.000000
vn -0.000002 -1.000000 0.000000
vn -0.000002 -1.000000 0.000000
vn -0.000002 -1.000000 0.000000
vn 0.000000 -1.000000 -0.000002
vn 0.000000 -1.000000 -0.000002
vn 0.000000 -1.000000 -0.000002
vn 0.000000 -1.000000 -0.000002
vn 0.000000 -1.000000 -0.000002
vn 0.000000 -1.000000 -0.000002
vn 0.000002 -1.000000 0.000000
vn 0.000002 -1.000000 0.000000
vn 0.000002 -1.000000 0.000000
vn 0.000002 -1.000000 0.000000
vn 0.000002 -1.000000 0.000000
vn 0.000002 -1.000000 0.000000
vn 0.000000 0.000000 -1.000000
vn 0.000000 0.000000 -1.000000
vn 0.000000 0.000000 -1.000000
vn 0.000000 0.000000 -1.000000
vn 1.000000 0.000000 0.000000
vn 1.000000 0.000000 0.000000
vn 1.000000 0.000000 0.000000
vn 1.000000 0.000000 0.000000
vn 0.000000 0.000000 1.000000
vn 0.000000 0.000000 1.000000
vn 0.000000 0.000000 1.000000
vn 0.000000 0.000000 1.000000
vn -1.000000 -0.000000 -0.000000
vn -1.000000 -0.000000 -0.000000
vn -1.000000 -0.000000 -0.000000
vn -1.000000 -0.000000 -0.000000
vn 0.000000 -1.000000 0.000000
vn 0.000000 -1.000000 0.000000
vn 0.000000 -1.000000 0.000000
vn 0.000000 -1.000000 0.000000
vn 0.000000 -1.000000 0.000000
vn 0.000000 -1.000000 0.000000
vn 0.000000 -1.000000 0.000000
vn 0.000000 -1.000000 0.000000
vn -0.707107 -0.000000 -0.707107
vn -0.707107 -0.000000 -0.707107
vn -0.707107 -0.000000 -0.707107
vn -0.707107 -0.000000 -0.707107
vn 0.707107 0.000000 -0.707107
vn 0.707107 0.000000 -0.707107
vn 0.707107 0.000000 -0.707107
vn 0.707107 0.000000 -0.707107
vn 0.707107 0.000000 0.707107
vn 0.707107 0.000000 0.707107
vn 0.707107 0.000000 0.707107
vn 0.707107 0.000000 0.707107
vn -0.707107 0.000000 0.707107
vn -0.707107 0.000000 0.707107
vn -0.707107 0.000000 0.707107
vn -0.707107 0.000000 0.707107
vn 0.000000 -1.000000 0.000000
vn 0.000000 -1.000000 0.000000
vn 0.000000 -1.000000 0.000000
vn 0.000000 -1.000000 0.000000
vn 0.000000 -1.000000 0.000000
vn 0.000000 -1.000000 0.000000
vn 0.000000 -1.000000 -0.000000
vn 0.000000 -1.000000 -0.000000
vn 0.000000 -1.000000 -0.000000
vn 0.000000 -1.000000 -0.000000
vn 0.000000 -1.000000 -0.000000
vn 0.000000 -1.000000 -0.000000
vn -0.682604 0.730789 0.000000
vn -0.682604 0.730789 0.000000
vn -0.682604 0.730789 0.000000
vn -0.682604 0.730789 0.000000
vn 0.000000 0.730789 0.682604
vn 0.000000 0.730789 0.682604
vn 0.000000 0.730789 0.682604
vn 0.000000 0.730789 0.682604
vn 0.682604 0.730789 0.000000
vn 0.682604 0.730789 0.000000
vn 0.682604 0.730789 0.000000
vn 0.682604 0.730789 0.000000
vn 0.000000 0.730789 -0.682604
vn 0.000000 0.730789 -0.682604
vn 0.000000 0.730789 -0.682604
vn 0.000000 0.730789 -0.682604
vn 0.000000 0.429651 0.902995
vn 0.000000 0.429651 0.902995
vn 0.000000 0.429651 0.902995
vn 0.000000 0.429651 0.902995
vn 0.000000 1.000000 0.000000
vn 0.000000 1.000000 0.000000
vn 0.000000 1.000000 0.000000
vn 0.000000 1.000000 0.000000
vn 0.000000 0.429651 -0.902995
vn 0.000000 0.429651 -0.902995
vn 0.000000 0.429651 -0.902995
vn 0.000000 0.429651 -0.902995
vn 0.902995 0.429651 0.000000
vn 0.902995 0.429651 0.000000
vn 0.902995 0.429651 0.000000
vn 0.902995 0.429651 0.000000
vn -0.902995 0.429651 0.000000
vn -0.902995 0.429651 0.000000
vn -0.902995 0.429651 0.000000
vn -0.902995 0.429651 0.000000
s off
usemtl BarChair_Cafeteria:lambert2SG
f 3/1/1 4/2/2 11/3/3 10/4/4 7/5/5 6/6/6
f 4/2/7 2/7/8 16/8/9 15/9/10 12/10/11 11/3/12
f 2/7/13 1/11/14 21/12/15 20/13/16 17/14/17 16/8/18
f 1/11/19 3/1/20 6/6/21 5/15/22 22/16/23 21/12/24
f 9/56/25 7/55/26 10/41/27 14/42/28
f 13/43/29 12/44/30 15/45/31 19/46/32
f 18/47/33 17/48/34 20/49/35 24/50/36
f 23/51/37 22/52/38 5/53/39 8/54/40
f 8/17/41 9/18/42 14/19/43 13/20/44 19/21/45 18/22/46 24/23/47 23/32/48
f 5/53/49 7/40/50 9/39/51 8/54/52
f 10/41/53 12/44/54 13/43/55 14/42/56
f 15/45/57 17/48/58 18/47/59 19/46/60
f 20/49/61 22/52/62 23/51/63 24/50/64
f 5/15/65 6/6/66 7/5/67
f 10/4/68 11/3/69 12/10/70
f 15/9/71 16/8/72 17/14/73
f 20/13/74 21/12/75 22/16/76
f 25/24/77 26/27/78 29/36/79 30/37/80
f 26/57/81 25/58/82 28/59/83 27/60/84
f 27/26/85 28/31/86 32/33/87 31/34/88
f 30/63/89 29/64/90 31/65/91 32/66/92
f 1/61/93 2/62/94 28/59/95 25/58/96
f 26/25/97 27/28/98 31/29/99 29/30/100
f 30/63/101 32/66/102 4/67/103 3/68/104
f 2/35/105 4/69/106 32/33/107 28/31/108
f 3/38/109 1/70/110 25/24/111 30/37/112
