# This file uses centimeters as units for non-parametric coordinates.

mtllib CargoBay_Energy.mtl
g default
v 3.340438 -77.348102 -21.357314
v 6.203801 -77.348102 -21.357314
v 6.203801 -77.348102 -22.318962
v 3.340438 -77.348102 -22.318962
v 3.340438 -79.267021 -22.318962
v 6.203801 -79.267021 -22.318962
v 6.203801 -79.267021 -21.357314
v 3.340438 -79.267021 -21.357314
v 3.340438 -77.348102 -14.368633
v 6.203801 -77.348102 -14.368633
v 6.203801 -77.348102 -15.357307
v 3.340438 -77.348102 -15.357307
v 6.203801 -79.267021 -15.357307
v 6.203801 -79.267021 -14.368633
v 3.340438 -79.267021 -15.357307
v 3.340438 -79.267021 -14.368633
v 5.994317 -79.057537 -21.357314
v 5.744342 -78.307562 -21.357314
v 5.706285 -78.498934 -21.357314
v 5.597910 -78.661130 -21.357314
v 5.435714 -78.769505 -21.357314
v 5.244392 -78.807562 -21.357314
v 5.994317 -79.057537 -15.357307
v 5.244392 -78.807562 -15.357307
v 5.435714 -78.769505 -15.357307
v 5.597910 -78.661130 -15.357307
v 5.706285 -78.498934 -15.357307
v 5.744342 -78.307562 -15.357307
v 3.549923 -79.057537 -21.357314
v 4.299848 -78.807562 -21.357314
v 4.108525 -78.769505 -21.357314
v 3.946330 -78.661130 -21.357314
v 3.837954 -78.498934 -21.357314
v 3.799898 -78.307562 -21.357314
v 3.549923 -79.057537 -15.357307
v 3.799898 -78.307562 -15.357307
v 3.837954 -78.498934 -15.357307
v 3.946330 -78.661130 -15.357307
v 4.108525 -78.769505 -15.357307
v 4.299848 -78.807562 -15.357307
v 3.549923 -77.557587 -21.357314
v 3.837954 -78.116189 -21.357314
v 3.946330 -77.953994 -21.357314
v 4.108525 -77.845618 -21.357314
v 4.299848 -77.807562 -21.357314
v 3.549923 -77.557587 -15.357307
v 4.299848 -77.807562 -15.357307
v 4.108525 -77.845618 -15.357307
v 3.946330 -77.953994 -15.357307
v 3.837954 -78.116189 -15.357307
v 5.994317 -77.557587 -21.357314
v 5.244392 -77.807562 -21.357314
v 5.435714 -77.845618 -21.357314
v 5.597910 -77.953994 -21.357314
v 5.706285 -78.116189 -21.357314
v 5.994317 -77.557587 -15.357307
v 5.706285 -78.116189 -15.357307
v 5.597910 -77.953994 -15.357307
v 5.435714 -77.845618 -15.357307
v 5.244392 -77.807562 -15.357307
vt 0.625000 0.469761
vt 0.625000 0.500000
vt 0.375000 0.500000
vt 0.375000 0.750000
vt 0.625000 0.750000
vt 0.375000 0.780239
vt 0.844761 0.000000
vt 0.875000 0.000000
vt 0.875000 0.250000
vt 0.155239 0.250000
vt 0.125000 0.250000
vt 0.125000 0.000000
vt 0.375000 0.250000
vt 0.625000 0.250000
vt 0.375000 0.281089
vt 0.656089 0.250000
vt 0.625000 0.000000
vt 0.625000 0.968911
vt 0.625000 1.000000
vt 0.375000 1.000000
vt 0.343911 0.000000
vt 0.375000 0.000000
vt 0.375000 0.780239
vt 0.625000 0.780239
vt 0.625000 0.968911
vt 0.375000 0.968911
vt 0.155239 0.250000
vt 0.155239 0.000000
vt 0.343911 0.000000
vt 0.343911 0.250000
vt 0.625000 0.469761
vt 0.375000 0.469761
vt 0.844761 0.000000
vt 0.844761 0.250000
vt 0.656089 0.250000
vt 0.656089 0.000000
vt 0.375000 0.281089
vt 0.625000 0.281089
vt 0.560721 0.780239
vt 0.656089 0.125000
vt 0.155239 0.125000
vt 0.439279 0.968911
vt 0.439279 0.469761
vt 0.343911 0.125000
vt 0.844761 0.125000
vt 0.560721 0.281089
vt 0.625000 0.780239
vt 0.560721 0.968911
vt 0.656089 0.000000
vt 0.439279 0.780239
vt 0.155239 0.000000
vt 0.375000 0.968911
vt 0.375000 0.469761
vt 0.439279 0.281089
vt 0.343911 0.250000
vt 0.560721 0.469761
vt 0.844761 0.250000
vt 0.625000 0.281089
vt 0.841469 0.070658
vt 0.625000 0.780239
vt 0.844761 0.000000
vt 0.589946 0.782956
vt 0.589946 0.966194
vt 0.656089 0.000000
vt 0.625000 0.968911
vt 0.659381 0.070658
vt 0.410054 0.782956
vt 0.155239 0.000000
vt 0.375000 0.780239
vt 0.158531 0.070658
vt 0.340619 0.070658
vt 0.375000 0.968911
vt 0.343911 0.000000
vt 0.410054 0.966194
vt 0.158531 0.179342
vt 0.375000 0.469761
vt 0.155239 0.250000
vt 0.410054 0.467044
vt 0.410054 0.283806
vt 0.343911 0.250000
vt 0.375000 0.281089
vt 0.340619 0.179342
vt 0.589946 0.467044
vt 0.844761 0.250000
vt 0.625000 0.469761
vt 0.841469 0.179342
vt 0.659381 0.179342
vt 0.625000 0.281089
vt 0.656089 0.250000
vt 0.589946 0.283806
vn 0.000000 1.000000 0.000000
vn 0.000000 1.000000 0.000000
vn 0.000000 1.000000 0.000000
vn 0.000000 1.000000 0.000000
vn 0.000000 -1.000000 0.000000
vn 0.000000 -1.000000 0.000000
vn 0.000000 -1.000000 0.000000
vn 0.000000 -1.000000 0.000000
vn 1.000000 0.000000 0.000000
vn 1.000000 0.000000 0.000000
vn 1.000000 0.000000 0.000000
vn 1.000000 0.000000 0.000000
vn -1.000000 0.000000 0.000000
vn -1.000000 0.000000 0.000000
vn -1.000000 0.000000 0.000000
vn -1.000000 0.000000 0.000000
vn -0.033486 0.999439 0.000000
vn -0.033486 0.999439 0.000000
vn 0.033486 0.999439 0.000000
vn 0.033486 0.999439 0.000000
vn -0.033486 -0.999439 0.000000
vn -0.033486 -0.999439 0.000000
vn 0.033486 -0.999439 0.000000
vn 0.033486 -0.999439 0.000000
vn 0.000000 1.000000 0.000000
vn 0.000000 1.000000 0.000000
vn 0.000000 1.000000 0.000000
vn 0.000000 1.000000 0.000000
vn 1.000000 0.000000 0.000000
vn 1.000000 0.000000 0.000000
vn 1.000000 0.000000 0.000000
vn 1.000000 0.000000 0.000000
vn 0.000000 -1.000000 0.000000
vn 0.000000 -1.000000 0.000000
vn 0.000000 -1.000000 0.000000
vn 0.000000 -1.000000 0.000000
vn -1.000000 0.000000 0.000000
vn -1.000000 0.000000 0.000000
vn -1.000000 0.000000 0.000000
vn -1.000000 0.000000 0.000000
vn 0.000000 0.000000 -1.000000
vn 0.000000 0.000000 -1.000000
vn 0.000000 0.000000 -1.000000
vn 0.000000 0.000000 -1.000000
vn 0.000000 0.000000 1.000000
vn 0.000000 0.000000 1.000000
vn 0.000000 0.000000 1.000000
vn 0.000000 0.000000 1.000000
vn 0.000000 0.000000 1.000000
vn 0.000000 0.000000 1.000000
vn 0.000000 0.000000 1.000000
vn -0.000000 0.000000 1.000000
vn -0.000000 0.000000 1.000000
vn 0.000000 0.000000 1.000000
vn -0.000000 0.000000 -1.000000
vn -0.000001 0.000000 -1.000000
vn -0.000000 0.000000 -1.000000
vn -0.000000 0.000000 -1.000000
vn -0.000000 0.000000 -1.000000
vn -0.000001 0.000000 1.000000
vn -0.000000 0.000000 1.000000
vn -0.000000 0.000000 1.000000
vn 0.000000 0.000000 -1.000000
vn 0.000000 0.000000 -1.000000
vn 0.000000 0.000000 -1.000000
vn 0.000000 0.000000 -1.000000
vn 0.000000 0.000000 1.000000
vn 0.000000 0.000000 1.000000
vn 0.000000 0.000000 1.000000
vn 0.000000 0.000000 1.000000
vn 0.000000 0.000000 -1.000000
vn 0.000001 0.000000 -1.000000
vn 0.000000 0.000000 -1.000000
vn 0.000001 0.000000 1.000000
vn 0.000000 0.000000 -1.000000
vn 0.000000 0.000000 -1.000000
vn 0.382683 -0.923880 0.000000
vn 0.382683 -0.923880 0.000000
vn 0.707107 -0.707107 0.000000
vn 0.707107 -0.707107 0.000000
vn 0.923899 -0.382637 0.000000
vn 0.923899 -0.382637 0.000000
vn 0.980795 -0.195042 0.000000
vn 0.980795 -0.195042 0.000000
vn -0.980795 -0.195042 0.000000
vn -0.923899 -0.382637 0.000000
vn -0.923899 -0.382637 0.000000
vn -0.980795 -0.195042 0.000000
vn -0.707107 -0.707107 0.000000
vn -0.707107 -0.707107 0.000000
vn -0.382683 -0.923880 0.000000
vn -0.382683 -0.923880 0.000000
vn -0.382683 0.923880 0.000000
vn -0.382683 0.923880 0.000000
vn -0.707107 0.707107 0.000000
vn -0.707107 0.707107 0.000000
vn -0.923899 0.382637 0.000000
vn -0.923899 0.382637 0.000000
vn -0.980795 0.195042 0.000000
vn -0.980795 0.195042 0.000000
vn 0.980795 0.195042 0.000000
vn 0.923899 0.382637 0.000000
vn 0.923899 0.382637 0.000000
vn 0.980795 0.195042 0.000000
vn 0.707107 0.707107 0.000000
vn 0.707107 0.707107 0.000000
vn 0.382683 0.923880 0.000000
vn 0.382683 0.923880 0.000000
vn -0.000002 0.000000 1.000000
vn 0.000001 0.000000 1.000000
vn -0.000001 0.000000 1.000000
vn 0.000000 0.000000 -1.000000
vn 0.000001 0.000000 -1.000000
vn 0.000001 0.000000 -1.000000
vn 0.000000 0.000000 1.000000
vn -0.000001 0.000000 1.000000
vn 0.000004 0.000000 1.000000
vn -0.000001 0.000000 -1.000000
vn -0.000001 0.000000 -1.000000
vn 0.000001 0.000000 -1.000000
vn 0.000002 0.000000 1.000000
vn -0.000001 0.000000 1.000000
vn 0.000001 0.000000 1.000000
vn 0.000000 0.000000 -1.000000
vn -0.000001 0.000000 -1.000000
vn -0.000001 0.000000 -1.000000
vn 0.000000 0.000000 1.000000
vn 0.000001 0.000000 1.000000
vn -0.000004 0.000000 1.000000
vn 0.000001 0.000000 -1.000000
vn 0.000001 0.000000 -1.000000
vn -0.000001 0.000000 -1.000000
s off
f 1/32/1 2/1/2 3/2/3 4/3/4
f 5/4/5 6/5/6 7/24/7 8/6/8
f 2/34/9 7/7/10 6/8/11 3/9/12
f 5/12/13 8/28/14 1/10/15 4/11/16
s 1
f 45/43/17 47/54/18 60/46/19 52/56/20
s 2
f 40/42/21 30/50/22 22/39/23 24/48/24
s off
f 9/13/25 10/14/26 11/38/27 12/15/28
f 14/17/29 13/36/30 11/16/31 10/14/32
f 15/26/33 13/18/34 14/19/35 16/20/36
f 12/30/37 15/21/38 16/22/39 9/13/40
f 6/5/41 5/12/42 4/3/43 3/9/44
f 10/14/45 9/13/46 16/20/47 14/17/48
s 3
f 17/47/49 22/39/50 30/50/51 29/23/52 8/6/53 7/24/54
s 4
f 23/49/55 28/40/56 56/35/57 11/16/58 13/36/59
s 3
f 29/51/52 34/41/60 41/27/61 1/10/62 8/28/53
s 4
f 35/52/63 40/42/64 24/48/65 23/25/55 13/18/59 15/26/66
s 3
f 41/53/61 45/43/67 52/56/68 51/31/69 2/1/70 1/32/62
s 4
f 46/55/71 36/44/72 35/29/63 15/21/66 12/30/73
s 3
f 51/57/69 18/45/74 17/33/49 7/7/54 2/34/70
s 4
f 56/58/57 60/46/75 47/54/76 46/37/71 12/15/73 11/38/58
s 2
f 22/39/23 21/62/77 25/63/78 24/48/24
f 21/62/77 20/60/79 26/65/80 25/63/78
f 20/61/79 19/59/81 27/66/82 26/64/80
f 19/59/81 18/45/83 28/40/84 27/66/82
f 34/41/85 33/70/86 37/71/87 36/44/88
f 33/70/86 32/68/89 38/73/90 37/71/87
f 32/69/89 31/67/91 39/74/92 38/72/90
f 31/67/91 30/50/22 40/42/21 39/74/92
s 1
f 45/43/17 44/78/93 48/79/94 47/54/18
f 44/78/93 43/76/95 49/81/96 48/79/94
f 43/77/95 42/75/97 50/82/98 49/80/96
f 42/75/97 34/41/99 36/44/100 50/82/98
f 18/45/101 55/86/102 57/87/103 28/40/104
f 55/86/102 54/84/105 58/89/106 57/87/103
f 54/85/105 53/83/107 59/90/108 58/88/106
f 53/83/107 52/56/20 60/46/19 59/90/108
s 3
f 17/33/49 18/45/74 19/59/109
f 17/33/49 19/59/109 20/61/110
f 17/47/49 20/60/110 21/62/111
f 17/47/49 21/62/111 22/39/50
s 4
f 23/25/55 24/48/65 25/63/112
f 23/25/55 25/63/112 26/65/113
f 23/49/55 26/64/113 27/66/114
f 23/49/55 27/66/114 28/40/56
s 3
f 29/23/52 30/50/51 31/67/115
f 29/23/52 31/67/115 32/69/116
f 29/51/52 32/68/116 33/70/117
f 29/51/52 33/70/117 34/41/60
s 4
f 35/29/63 36/44/72 37/71/118
f 35/29/63 37/71/118 38/73/119
f 35/52/63 38/72/119 39/74/120
f 35/52/63 39/74/120 40/42/64
s 3
f 41/27/61 34/41/60 42/75/121
f 41/27/61 42/75/121 43/77/122
f 41/53/61 43/76/122 44/78/123
f 41/53/61 44/78/123 45/43/67
s 4
f 46/37/71 47/54/76 48/79/124
f 46/37/71 48/79/124 49/81/125
f 46/55/71 49/80/125 50/82/126
f 46/55/71 50/82/126 36/44/72
s 3
f 51/31/69 52/56/68 53/83/127
f 51/31/69 53/83/127 54/85/128
f 51/57/69 54/84/128 55/86/129
f 51/57/69 55/86/129 18/45/74
s 4
f 56/35/57 28/40/56 57/87/130
f 56/35/57 57/87/130 58/89/131
f 56/58/57 58/88/131 59/90/132
f 56/58/57 59/90/132 60/46/75
