# This file uses centimeters as units for non-parametric coordinates.

mtllib EngineRoom_CoreEngineTop.mtl
g default
v 49.830398 -53.822615 -204.000134
v 49.061164 -53.822615 -210.611559
v 44.552751 -53.822615 -215.508210
v 38.027203 -53.822615 -216.819671
v 31.977055 -53.822615 -214.045046
v 28.713260 -53.822615 -208.244158
v 29.482486 -53.822615 -201.632726
v 33.990914 -53.822615 -196.736089
v 40.516440 -53.822615 -195.424622
v 46.566594 -53.822615 -198.199210
v 49.830398 -44.603516 -204.000134
v 49.061164 -44.603516 -210.611559
v 44.552751 -44.603516 -215.508210
v 38.027203 -44.603516 -216.819671
v 31.977055 -44.603516 -214.045046
v 28.713260 -44.603516 -208.244158
v 29.482486 -44.603516 -201.632726
v 33.990914 -44.603516 -196.736089
v 40.516440 -44.603516 -195.424622
v 46.566594 -44.603516 -198.199210
v 39.271822 -53.822615 -206.122146
v 47.800923 -43.009510 -204.408024
v 47.179546 -43.009510 -209.748661
v 43.537711 -43.009510 -213.704085
v 38.266435 -43.009510 -214.763470
v 33.379192 -43.009510 -212.522175
v 30.742721 -43.009510 -207.836269
v 31.364104 -43.009510 -202.495624
v 35.005953 -43.009510 -198.540185
v 40.277229 -43.009510 -197.480800
v 45.164466 -43.009510 -199.722117
v 46.998844 -41.887602 -204.569220
v 46.435909 -41.887602 -209.407648
v 43.136537 -41.887602 -212.991090
v 38.360962 -41.887602 -213.950887
v 33.933310 -41.887602 -211.920313
v 31.544808 -41.887602 -207.675094
v 32.107750 -41.887602 -202.836673
v 35.407112 -41.887602 -199.253166
v 40.182674 -41.887602 -198.293413
v 44.610319 -41.887602 -200.323966
v 46.906374 -8.263999 -204.587771
v 46.350171 -8.263999 -209.368301
v 43.090281 -8.263999 -212.908893
v 38.371850 -8.263999 -213.857180
v 33.997204 -8.263999 -211.850978
v 31.637277 -8.263999 -207.656515
v 32.193451 -8.263999 -202.875999
v 35.453355 -8.263999 -199.335378
v 40.171772 -8.263999 -198.387106
v 44.546440 -8.263999 -200.393315
v 48.344271 -7.363845 -204.298778
v 47.683319 -7.363845 -209.979692
v 43.809452 -7.363845 -214.187127
v 38.202357 -7.363845 -215.314017
v 33.003789 -7.363845 -212.929949
v 30.199379 -7.363845 -207.945492
v 30.860317 -7.363845 -202.264608
v 34.734184 -7.363845 -198.057159
v 40.341279 -7.363845 -196.930269
v 45.539855 -7.363845 -199.314359
v 48.344271 24.170000 -204.298778
v 47.683319 24.170000 -209.979692
v 39.271829 24.169995 -206.122139
v 43.809452 24.170000 -214.187127
v 38.202357 24.170000 -215.314017
v 33.003789 24.170000 -212.929949
v 30.199379 24.170000 -207.945492
v 30.860317 24.170000 -202.264608
v 34.734184 24.170000 -198.057159
v 40.341279 24.170000 -196.930269
v 45.539855 24.170000 -199.314359
vt 0.210770 0.504917
vt 0.159945 0.467990
vt 0.097122 0.467990
vt 0.046297 0.504917
vt 0.026883 0.564665
vt 0.046297 0.624414
vt 0.097122 0.661341
vt 0.159945 0.661341
vt 0.210770 0.624414
vt 0.230184 0.564665
vt 0.680066 0.042740
vt 0.747680 0.042739
vt 0.330566 0.316875
vt 0.023656 0.042733
vt 0.133058 0.042733
vt 0.858784 0.311431
vt 0.260200 0.316875
vt 0.831255 0.042738
vt 0.744928 0.311431
vt 0.242460 0.042739
vt 0.242459 0.139664
vt 0.417544 0.316875
vt 0.898869 0.042735
vt 0.898870 0.139661
vt 0.461263 0.042740
vt 0.570665 0.042740
vt 0.139061 0.317745
vt 0.310074 0.042739
vt 0.025205 0.317745
vt 0.680066 0.139666
vt 0.858784 0.341640
vt 0.575927 0.310009
vt 0.505560 0.310009
vt 0.766812 0.341640
vt 0.950755 0.341640
vt 0.139061 0.347955
vt 0.393649 0.042740
vt 0.662905 0.310009
vt 0.047089 0.347955
vt 0.231032 0.347955
vt 0.128533 0.560599
vt 0.134412 0.884770
vt 0.724371 0.487818
vt 0.461263 0.139666
vt 0.644314 0.485739
vt 0.942106 0.362903
vt 0.404131 0.487818
vt 0.338925 0.347084
vt 0.282084 0.347084
vt 0.324073 0.489898
vt 0.222384 0.369217
vt 0.722455 0.841298
vt 0.409185 0.347084
vt 0.466027 0.347084
vt 0.643356 0.839243
vt 0.801554 0.843353
vt 0.406047 0.841299
vt 0.584286 0.340219
vt 0.527445 0.340219
vt 0.326948 0.843353
vt 0.485146 0.839243
vt 0.216650 0.948585
vt 0.165825 0.985511
vt 0.103001 0.985512
vt 0.052176 0.948585
vt 0.032762 0.888836
vt 0.052176 0.829088
vt 0.103001 0.792161
vt 0.165824 0.792161
vt 0.216649 0.829088
vt 0.236063 0.888836
vt 0.654546 0.340219
vt 0.711387 0.340219
vt 0.533670 0.485739
vt 0.484188 0.485739
vt 0.594832 0.485739
vt 0.457378 0.368346
vt 0.853897 0.492469
vt 0.804429 0.489898
vt 0.915042 0.495646
vt 0.702738 0.361481
vt 0.534036 0.839243
vt 0.594466 0.839243
vt 0.850430 0.845893
vt 0.910843 0.849033
vt 0.959719 0.851573
vt 0.139061 0.369217
vt 0.139061 0.369217
vt 0.290733 0.368346
vt 0.055738 0.369217
vt 0.964509 0.498217
vt 0.139061 0.347955
vt 0.651242 0.361481
vt 0.651242 0.361481
vt 0.711387 0.340219
vt 0.587590 0.361481
vt 0.587590 0.361481
vt 0.654546 0.340219
vt 0.654546 0.340219
vt 0.654546 0.340219
vt 0.536093 0.361481
vt 0.584286 0.340219
vt 0.584286 0.340219
vt 0.584286 0.340219
vt 0.858784 0.362903
vt 0.858784 0.362903
vt 0.527445 0.340219
vt 0.950755 0.341640
vt 0.775461 0.362903
vt 0.858784 0.341640
vt 0.858784 0.341640
vt 0.858784 0.341640
vt 0.405882 0.368346
vt 0.405882 0.368346
vt 0.766812 0.341640
vt 0.466027 0.347084
vt 0.342229 0.368346
vt 0.342229 0.368346
vt 0.409185 0.347084
vt 0.409185 0.347084
vt 0.409185 0.347084
vt 0.338925 0.347084
vt 0.338925 0.347084
vt 0.338925 0.347084
vt 0.282084 0.347084
vt 0.570665 0.139666
vt 0.139061 0.317745
vt 0.733272 0.310009
vt 0.393649 0.139665
vt 0.662905 0.310009
vt 0.310073 0.139665
vt 0.575927 0.310009
vt 0.972640 0.311431
vt 0.133058 0.139659
vt 0.858784 0.311431
vt 0.023656 0.139659
vt 0.487911 0.316875
vt 0.831256 0.139664
vt 0.417544 0.316875
vt 0.747680 0.139665
vt 0.330566 0.316875
vt 0.252917 0.317745
vt 0.216650 0.948585
vt 0.165825 0.985511
vt 0.103001 0.985512
vt 0.052176 0.948585
vt 0.032762 0.888836
vt 0.052176 0.829088
vt 0.103001 0.792161
vt 0.165824 0.792161
vt 0.216649 0.829088
vt 0.236063 0.888836
vt 0.216650 0.948585
vt 0.165825 0.985511
vt 0.103001 0.985512
vt 0.052176 0.948585
vt 0.032762 0.888836
vt 0.052176 0.829088
vt 0.103001 0.792161
vt 0.165824 0.792161
vt 0.216649 0.829088
vt 0.236063 0.888836
vn 0.993299 0.000000 -0.115570
vn 0.993299 0.000000 -0.115570
vn 0.993299 0.000000 -0.115570
vn 0.993299 0.000000 -0.115570
vn 0.735669 0.000000 -0.677341
vn 0.735669 0.000000 -0.677341
vn 0.735669 0.000000 -0.677341
vn 0.735669 0.000000 -0.677341
vn 0.197034 0.000000 -0.980397
vn 0.197034 0.000000 -0.980397
vn 0.197034 0.000000 -0.980397
vn 0.197034 0.000000 -0.980397
vn -0.416858 0.000000 -0.908971
vn -0.416858 0.000000 -0.908971
vn -0.416858 0.000000 -0.908971
vn -0.416858 0.000000 -0.908971
vn -0.871525 0.000000 -0.490352
vn -0.871525 0.000000 -0.490352
vn -0.871525 0.000000 -0.490352
vn -0.871525 0.000000 -0.490352
vn -0.993300 0.000000 0.115568
vn -0.993300 0.000000 0.115568
vn -0.993300 0.000000 0.115568
vn -0.993300 0.000000 0.115568
vn -0.735667 0.000000 0.677343
vn -0.735667 0.000000 0.677343
vn -0.735667 0.000000 0.677343
vn -0.735667 0.000000 0.677343
vn -0.197035 0.000000 0.980396
vn -0.197035 0.000000 0.980396
vn -0.197035 0.000000 0.980396
vn -0.197035 0.000000 0.980396
vn 0.416853 0.000000 0.908974
vn 0.416853 0.000000 0.908974
vn 0.416853 0.000000 0.908974
vn 0.416853 0.000000 0.908974
vn 0.871525 0.000000 0.490351
vn 0.871525 0.000000 0.490351
vn 0.871525 0.000000 0.490351
vn 0.871525 0.000000 0.490351
vn 0.000000 -1.000000 0.000000
vn 0.000000 -1.000000 0.000000
vn 0.000000 -1.000000 0.000000
vn 0.000000 -1.000000 0.000000
vn 0.000000 -1.000000 0.000000
vn 0.000000 -1.000000 0.000000
vn 0.000000 -1.000000 0.000000
vn 0.000000 -1.000000 0.000000
vn 0.000000 -1.000000 0.000000
vn 0.000000 -1.000000 0.000000
vn 0.000000 -1.000000 0.000000
vn -0.000000 1.000000 -0.000000
vn -0.000001 1.000000 0.000001
vn 0.000000 1.000000 -0.000000
vn -0.000001 1.000000 0.000001
vn -0.000001 1.000000 0.000001
vn 0.000000 1.000000 0.000000
vn 0.000001 1.000000 -0.000000
vn 0.000001 1.000000 -0.000001
vn 0.000001 1.000000 -0.000001
vn 0.000001 1.000000 -0.000001
vn 0.000000 1.000000 -0.000001
vn 0.598148 0.792318 0.120214
vn 0.554573 0.792317 -0.254328
vn 0.605419 0.745909 -0.277647
vn 0.652990 0.745910 0.131234
vn 0.299166 0.792318 -0.531725
vn 0.326598 0.745909 -0.580477
vn -0.070509 0.792319 -0.606019
vn -0.076973 0.745908 -0.661586
vn -0.413252 0.792318 -0.448837
vn -0.451142 0.745908 -0.489991
vn -0.598149 0.792317 -0.120214
vn -0.652991 0.745909 -0.131233
vn -0.554574 0.792315 0.254330
vn -0.605419 0.745908 0.277649
vn -0.299168 0.792316 0.531728
vn -0.326599 0.745907 0.580479
vn 0.070508 0.792317 0.606021
vn 0.076975 0.745908 0.661586
vn 0.413251 0.792319 0.448837
vn 0.451143 0.745910 0.489987
vn 0.816218 0.569885 -0.094965
vn 0.816218 0.569885 -0.094965
vn 0.604516 0.569882 -0.556592
vn 0.604516 0.569882 -0.556592
vn 0.161911 0.569873 -0.805623
vn 0.161911 0.569873 -0.805623
vn -0.342548 0.569871 -0.746932
vn -0.342548 0.569871 -0.746932
vn -0.716156 0.569881 -0.402935
vn -0.716156 0.569881 -0.402935
vn -0.816214 0.569891 0.094966
vn -0.816214 0.569891 0.094966
vn -0.604518 0.569884 0.556588
vn -0.604518 0.569884 0.556588
vn -0.161908 0.569875 0.805623
vn -0.161908 0.569875 0.805623
vn 0.342545 0.569881 0.746926
vn 0.342545 0.569881 0.746926
vn 0.716153 0.569887 0.402932
vn 0.716153 0.569887 0.402932
vn 0.993296 0.002668 -0.115567
vn 0.993296 0.002668 -0.115567
vn 0.993296 0.002668 -0.115567
vn 0.993296 0.002668 -0.115567
vn 0.735663 0.002668 -0.677342
vn 0.735663 0.002668 -0.677342
vn 0.735663 0.002668 -0.677342
vn 0.735663 0.002668 -0.677342
vn 0.197037 0.002668 -0.980392
vn 0.197037 0.002668 -0.980392
vn 0.197037 0.002668 -0.980392
vn 0.197037 0.002668 -0.980392
vn -0.416857 0.002667 -0.908968
vn -0.416857 0.002667 -0.908968
vn -0.416857 0.002667 -0.908968
vn -0.416857 0.002667 -0.908968
vn -0.871523 0.002668 -0.490346
vn -0.871523 0.002668 -0.490346
vn -0.871523 0.002668 -0.490346
vn -0.871523 0.002668 -0.490346
vn -0.993296 0.002667 0.115565
vn -0.993296 0.002667 0.115565
vn -0.993296 0.002667 0.115565
vn -0.993296 0.002667 0.115565
vn -0.735667 0.002668 0.677338
vn -0.735668 0.002668 0.677338
vn -0.735667 0.002668 0.677338
vn -0.735667 0.002668 0.677338
vn -0.197032 0.002668 0.980393
vn -0.197032 0.002668 0.980393
vn -0.197032 0.002668 0.980393
vn -0.197032 0.002668 0.980393
vn 0.416855 0.002667 0.908969
vn 0.416855 0.002667 0.908969
vn 0.416855 0.002667 0.908969
vn 0.416855 0.002667 0.908969
vn 0.871523 0.002667 0.490348
vn 0.871523 0.002667 0.490348
vn 0.871523 0.002667 0.490348
vn 0.871523 0.002667 0.490348
vn 0.538595 -0.840232 -0.062663
vn 0.538595 -0.840232 -0.062663
vn 0.538595 -0.840232 -0.062663
vn 0.538595 -0.840232 -0.062663
vn 0.398898 -0.840232 -0.367273
vn 0.398898 -0.840232 -0.367273
vn 0.398898 -0.840232 -0.367273
vn 0.398898 -0.840232 -0.367273
vn 0.106838 -0.840233 -0.531596
vn 0.106838 -0.840233 -0.531596
vn 0.106838 -0.840233 -0.531596
vn 0.106838 -0.840233 -0.531596
vn -0.226030 -0.840232 -0.492870
vn -0.226030 -0.840232 -0.492870
vn -0.226030 -0.840232 -0.492870
vn -0.226030 -0.840232 -0.492870
vn -0.472568 -0.840230 -0.265881
vn -0.472568 -0.840230 -0.265881
vn -0.472568 -0.840230 -0.265881
vn -0.472568 -0.840230 -0.265881
vn -0.538597 -0.840230 0.062662
vn -0.538597 -0.840230 0.062662
vn -0.538597 -0.840230 0.062662
vn -0.538597 -0.840230 0.062662
vn -0.398901 -0.840231 0.367274
vn -0.398901 -0.840231 0.367274
vn -0.398901 -0.840231 0.367274
vn -0.398901 -0.840231 0.367274
vn -0.106838 -0.840231 0.531598
vn -0.106838 -0.840231 0.531598
vn -0.106838 -0.840231 0.531598
vn -0.106838 -0.840231 0.531598
vn 0.226031 -0.840231 0.492871
vn 0.226031 -0.840231 0.492870
vn 0.226031 -0.840231 0.492871
vn 0.226031 -0.840231 0.492871
vn 0.472567 -0.840230 0.265883
vn 0.472567 -0.840230 0.265883
vn 0.472567 -0.840230 0.265883
vn 0.472567 -0.840230 0.265883
vn 0.993300 0.000000 -0.115567
vn 0.993300 0.000000 -0.115567
vn 0.993300 0.000000 -0.115567
vn 0.993300 0.000000 -0.115567
vn 0.735667 0.000000 -0.677343
vn 0.735667 0.000000 -0.677343
vn 0.735667 0.000000 -0.677343
vn 0.735667 0.000000 -0.677343
vn 0.197036 0.000000 -0.980396
vn 0.197036 0.000000 -0.980396
vn 0.197036 0.000000 -0.980396
vn 0.197036 0.000000 -0.980396
vn -0.416856 0.000000 -0.908973
vn -0.416856 0.000000 -0.908973
vn -0.416856 0.000000 -0.908973
vn -0.416856 0.000000 -0.908973
vn -0.871527 0.000000 -0.490348
vn -0.871527 0.000000 -0.490348
vn -0.871527 0.000000 -0.490348
vn -0.871527 0.000000 -0.490348
vn -0.993300 0.000000 0.115565
vn -0.993300 0.000000 0.115565
vn -0.993300 0.000000 0.115565
vn -0.993300 0.000000 0.115565
vn -0.735669 0.000000 0.677342
vn -0.735669 0.000000 0.677342
vn -0.735669 0.000000 0.677342
vn -0.735669 0.000000 0.677342
vn -0.197036 0.000000 0.980396
vn -0.197036 0.000000 0.980396
vn -0.197036 0.000000 0.980396
vn -0.197036 0.000000 0.980396
vn 0.416858 0.000000 0.908971
vn 0.416858 0.000000 0.908971
vn 0.416858 0.000000 0.908971
vn 0.416858 0.000000 0.908971
vn 0.871525 0.000000 0.490351
vn 0.871525 0.000000 0.490351
vn 0.871525 0.000000 0.490351
vn 0.871525 0.000000 0.490351
s off
usemtl EngineRoom_CoreEngine_Model__1_:lambert2SG
f 1/11/1 2/12/2 12/140/3 11/30/4
f 2/12/5 3/18/6 13/138/7 12/140/8
f 3/18/9 4/23/10 14/24/11 13/138/12
f 4/14/13 5/15/14 15/134/15 14/136/16
f 5/15/17 6/20/18 16/21/19 15/134/20
f 6/20/21 7/28/22 17/131/23 16/21/24
f 7/28/25 8/37/26 18/129/27 17/131/28
f 8/37/29 9/25/30 19/44/31 18/129/32
f 9/25/33 10/26/34 20/126/35 19/44/36
f 10/26/37 1/11/38 11/30/39 20/126/40
s 1
f 2/2/41 1/1/42 21/41/43
f 3/3/44 2/2/41 21/41/43
f 4/4/45 3/3/44 21/41/43
f 5/5/46 4/4/45 21/41/43
f 6/6/47 5/5/46 21/41/43
f 7/7/48 6/6/47 21/41/43
f 8/8/49 7/7/48 21/41/43
f 9/9/50 8/8/49 21/41/43
f 10/10/51 9/9/50 21/41/43
f 1/1/42 10/10/51 21/41/43
s 2
f 62/153/52 63/154/53 64/42/54
f 63/154/53 65/155/55 64/42/54
f 65/155/55 66/156/56 64/42/54
f 66/156/56 67/157/57 64/42/54
f 67/157/57 68/158/58 64/42/54
f 68/158/58 69/159/59 64/42/54
f 69/159/59 70/160/60 64/42/54
f 70/160/60 71/161/61 64/42/54
f 71/161/61 72/162/62 64/42/54
f 72/162/62 62/153/52 64/42/54
s 3
f 11/17/63 12/141/64 23/123/65 22/125/66
f 12/13/64 13/139/67 24/120/68 23/122/65
f 13/22/67 14/137/69 25/54/70 24/119/68
f 14/19/69 15/135/71 26/111/72 25/115/70
f 15/16/71 16/133/73 27/35/74 26/110/72
f 16/33/73 17/132/75 28/103/76 27/107/74
f 17/32/75 18/130/77 29/99/78 28/102/76
f 18/38/77 19/128/79 30/73/80 29/98/78
f 19/29/79 20/127/81 31/92/82 30/39/80
f 20/27/81 11/142/63 22/40/66 31/36/82
f 22/49/66 23/124/65 33/118/83 32/89/84
f 23/48/65 24/121/68 34/114/85 33/117/86
f 24/53/68 25/116/70 35/77/87 34/113/88
f 25/34/70 26/112/72 36/106/89 35/109/90
f 26/31/72 27/108/74 37/46/91 36/105/92
f 27/59/74 28/104/76 38/97/93 37/101/94
f 28/58/76 29/100/78 39/94/95 38/96/96
f 29/72/78 30/95/80 40/81/97 39/93/98
f 30/39/80 31/92/82 41/88/99 40/90/100
f 31/36/82 22/40/66 32/51/101 41/87/102
s off
f 32/75/103 33/74/104 43/82/105 42/61/106
f 33/74/107 34/76/108 44/83/109 43/82/110
f 34/76/111 35/45/112 45/55/113 44/83/114
f 35/45/115 36/43/116 46/52/117 45/55/118
f 36/43/119 37/79/120 47/56/121 46/52/122
f 37/79/123 38/78/124 48/84/125 47/56/126
f 48/84/127 38/78/128 39/80/129 49/85/130
f 39/80/131 40/91/132 50/86/133 49/85/134
f 40/50/135 41/47/136 51/57/137 50/60/138
f 41/47/139 32/75/140 42/61/141 51/57/142
f 42/62/143 43/63/144 53/144/145 52/143/146
f 43/63/147 44/64/148 54/145/149 53/144/150
f 44/64/151 45/65/152 55/146/153 54/145/154
f 45/65/155 46/66/156 56/147/157 55/146/158
f 46/66/159 47/67/160 57/148/161 56/147/162
f 47/67/163 48/68/164 58/149/165 57/148/166
f 48/68/167 49/69/168 59/150/169 58/149/170
f 49/69/171 50/70/172 60/151/173 59/150/174
f 50/70/175 51/71/176 61/152/177 60/151/178
f 51/71/179 42/62/180 52/143/181 61/152/182
f 52/143/183 53/144/184 63/154/185 62/153/186
f 53/144/187 54/145/188 65/155/189 63/154/190
f 54/145/191 55/146/192 66/156/193 65/155/194
f 55/146/195 56/147/196 67/157/197 66/156/198
f 56/147/199 57/148/200 68/158/201 67/157/202
f 57/148/203 58/149/204 69/159/205 68/158/206
f 58/149/207 59/150/208 70/160/209 69/159/210
f 59/150/211 60/151/212 71/161/213 70/160/214
f 60/151/215 61/152/216 72/162/217 71/161/218
f 61/152/219 52/143/220 62/153/221 72/162/222
