# This file uses centimeters as units for non-parametric coordinates.

mtllib Medbay_Console.mtl
g default
v 16.227582 57.091894 -156.757675
v 16.227582 57.091894 -128.257632
v 16.227582 63.887949 -156.757675
v 16.227582 63.887949 -128.257632
v 27.943218 63.887949 -156.757675
v 27.943218 63.887949 -128.257632
v 27.943218 57.091894 -156.757675
v 27.943218 57.091894 -128.257632
v 16.227582 65.215223 -156.757675
v 16.227582 65.215223 -128.257632
v 27.943218 68.099752 -128.257632
v 27.943218 68.099752 -156.757675
v 17.027859 65.412261 -154.810891
v 17.027859 65.412261 -130.204416
v 27.142941 67.902714 -130.204416
v 27.142941 67.902714 -154.810891
v 17.202935 65.107344 -154.795188
v 17.093970 65.107344 -130.204416
v 27.318020 67.597799 -130.188715
v 27.318020 67.597799 -154.795188
v 16.227582 57.091894 -142.251923
v 27.943218 57.091894 -142.251923
v 27.943218 63.887949 -142.251923
v 27.943218 68.099752 -142.251923
v 27.142941 67.902714 -142.286860
v 27.318020 67.597799 -142.271158
v 17.202935 65.107344 -142.271158
v 17.027859 65.412261 -142.286860
v 16.227582 65.215223 -142.251923
v 16.227582 63.887949 -142.251923
v 22.230967 63.887949 -156.757675
v 22.230967 66.693328 -156.757675
v 22.211080 66.688431 -154.810891
v 22.386156 66.383516 -154.795188
v 22.386156 66.383516 -142.271158
v 22.386156 66.383516 -130.188715
v 22.211080 66.688431 -130.204416
v 22.230967 66.693328 -128.257632
v 22.230967 63.887949 -128.257632
v 22.230967 57.091894 -128.257632
v 22.230967 57.091894 -142.251923
v 22.230967 57.091894 -156.757675
vt 0.695589 0.210860
vt 0.695589 0.077861
vt 0.945975 0.077861
vt 0.945975 0.210860
vt 0.605661 0.280880
vt 0.517341 0.399119
vt 0.241979 0.123656
vt 0.149817 0.123656
vt 0.149817 0.215170
vt 0.241979 0.215170
vt 0.517341 0.281974
vt 0.606057 0.281974
vt 0.518148 0.280880
vt 0.518148 0.399376
vt 0.695589 0.236835
vt 0.945975 0.236835
vt 0.606057 0.399119
vt 0.605661 0.399376
vt 0.663798 0.625977
vt 0.642524 0.625098
vt 0.642524 0.273070
vt 0.663798 0.322041
vt 0.038402 0.532784
vt 0.233226 0.648652
vt 0.240468 0.625056
vt 0.242896 0.627308
vt 0.436052 0.210860
vt 0.054287 0.215170
vt 0.054287 0.123656
vt 0.708515 0.628460
vt 0.824488 0.628460
vt 0.801590 0.322041
vt 0.991769 0.131502
vt 0.990601 0.550404
vt 0.802119 0.273070
vt 0.436052 0.236835
vt 0.436052 0.077861
vt 0.518148 0.448291
vt 0.605661 0.472813
vt 0.426174 0.399376
vt 0.953975 0.273070
vt 0.235637 0.651044
vt 0.273403 0.993059
vt 0.036467 0.531088
vt 0.932700 0.322041
vt 0.517341 0.447476
vt 0.606057 0.471719
vt 0.424103 0.399119
vt 0.149817 0.027478
vt 0.424103 0.421998
vt 0.241979 0.027478
vt 0.426174 0.422518
vt 0.054287 0.027478
vt 0.273403 0.880752
vt 0.522694 0.880752
vt 0.522694 0.993059
vt 0.015002 0.880752
vt 0.015002 0.993059
vt 0.015002 0.762720
vt 0.273403 0.762720
vt 0.522370 0.760239
vt 0.991769 0.550117
vt 0.968041 0.549573
vt 0.968041 0.130958
vt 0.991769 0.984031
vt 0.968041 0.983487
vt 0.968825 0.550949
vt 0.968825 0.131789
vt 0.990601 0.131789
vt 0.968825 0.985428
vt 0.990601 0.984883
vt 0.029225 0.554684
vt 0.454866 0.723814
vt 0.452132 0.747410
vt 0.031142 0.556520
vt 0.457812 0.726649
vt 0.450553 0.750385
vt 0.953975 0.625098
vt 0.932700 0.625977
vt 0.953975 0.989993
vt 0.802119 0.989993
vt 0.801591 0.941021
vt 0.932700 0.941021
vt 0.642524 0.989993
vt 0.663798 0.941021
vt 0.824488 0.368683
vt 0.708515 0.368683
vt 0.896362 0.628460
vt 0.896362 0.368683
vt 0.824488 0.897730
vt 0.708515 0.897730
vt 0.896362 0.897730
vt 0.426174 0.280880
vt 0.424103 0.281974
vn -1.000000 0.000000 0.000000
vn -1.000000 0.000000 0.000000
vn -1.000000 0.000000 0.000000
vn -1.000000 0.000000 0.000000
vn -0.239072 0.971002 0.000000
vn -0.238477 0.971148 -0.000271
vn -0.237864 0.971298 -0.000550
vn -0.239072 0.971002 0.000000
vn 1.000000 0.000000 -0.000000
vn 1.000000 0.000000 -0.000000
vn 1.000000 0.000000 -0.000000
vn 1.000000 0.000000 -0.000000
vn 0.000000 -1.000000 0.000000
vn 0.000000 -1.000000 0.000000
vn 0.000000 -1.000000 0.000000
vn 0.000000 -1.000000 0.000000
vn 0.000000 0.000000 1.000000
vn 0.000000 0.000000 1.000000
vn 0.000000 0.000000 1.000000
vn 0.000000 0.000000 1.000000
vn -0.000000 0.000000 -1.000000
vn -0.000000 0.000000 -1.000000
vn -0.000000 0.000000 -1.000000
vn -0.000000 0.000000 -1.000000
vn -1.000000 0.000000 0.000000
vn -1.000000 0.000000 0.000000
vn 0.000000 0.000000 1.000000
vn 0.000000 0.000000 1.000000
vn 1.000000 0.000000 -0.000000
vn 1.000000 0.000000 -0.000000
vn -0.000000 0.000000 -1.000000
vn -0.000000 0.000000 -1.000000
vn -0.239073 0.971002 0.000000
vn -0.239073 0.971002 0.000000
vn -0.239073 0.971002 0.000000
vn -0.239073 0.971002 0.000000
vn -0.239072 0.971002 0.000000
vn -0.239072 0.971002 0.000000
vn -0.239072 0.971002 0.000000
vn -0.239072 0.971002 0.000000
vn -0.239072 0.971002 0.000000
vn -0.239072 0.971002 0.000000
vn -0.239072 0.971002 0.000000
vn -0.239072 0.971002 0.000000
vn -0.239072 0.971002 -0.000000
vn -0.239072 0.971002 -0.000000
vn -0.239072 0.971002 -0.000000
vn -0.239072 0.971002 -0.000000
vn 0.899384 0.437155 0.002003
vn 0.898985 0.437975 0.001976
vn 0.929869 0.367867 0.004196
vn 0.929869 0.367867 0.004196
vn 0.008976 -0.033362 -0.999403
vn 0.009175 -0.034463 -0.999364
vn 0.011096 -0.045071 -0.998922
vn 0.011096 -0.045071 -0.998922
vn -0.867210 -0.497943 0.000000
vn -0.867210 -0.497943 0.000000
vn -0.867210 -0.497943 0.000000
vn -0.867210 -0.497943 0.000000
vn -0.011097 0.045073 0.998922
vn -0.011097 0.045073 0.998922
vn -0.011097 0.045073 0.998922
vn -0.011097 0.045073 0.998922
vn 0.000000 -1.000000 0.000000
vn 0.000000 -1.000000 0.000000
vn 1.000000 0.000000 -0.000000
vn 1.000000 0.000000 -0.000000
vn 1.000000 0.000000 -0.000000
vn -0.239072 0.971002 0.000000
vn -0.239072 0.971002 0.000000
vn -0.867210 -0.497943 0.000000
vn -0.867210 -0.497943 0.000000
vn -0.239072 0.971002 0.000000
vn -0.239072 0.971002 0.000000
vn 0.867214 0.497935 -0.000000
vn 0.867214 0.497935 -0.000000
vn -0.239072 0.971002 0.000000
vn -0.239072 0.971002 0.000000
vn -1.000000 0.000000 0.000000
vn -1.000000 0.000000 0.000000
vn -1.000000 0.000000 0.000000
vn -0.000000 0.000000 -1.000000
vn -0.000000 0.000000 -1.000000
vn -0.239072 0.971002 -0.000000
vn -0.239072 0.971002 -0.000000
vn -0.011097 0.045073 0.998922
vn -0.011097 0.045073 0.998922
vn -0.239072 0.971002 0.000000
vn -0.237906 0.971288 -0.000530
vn -0.236724 0.971576 -0.001068
vn 0.007087 -0.022937 -0.999712
vn 0.007087 -0.022937 -0.999712
vn -0.239072 0.971002 0.000000
vn -0.239072 0.971002 0.000000
vn 0.000000 0.000000 1.000000
vn 0.000000 0.000000 1.000000
vn 0.000000 0.000000 1.000000
vn 0.000000 -1.000000 0.000000
vn 0.000000 -1.000000 0.000000
vn 0.000000 -1.000000 0.000000
vn -0.000000 0.000000 -1.000000
s 1
usemtl MedBay_Console1:blinn1SG
f 30/1/1 21/2/2 2/3/3 4/4/4
s 2
f 26/43/5 35/54/6 36/55/7 19/56/8
s 3
f 22/30/9 23/31/10 6/86/11 8/87/12
s 4
f 40/7/13 41/8/14 22/9/15 8/10/16
s 5
f 39/6/17 40/11/18 8/12/19 6/17/20
s 6
f 7/5/21 42/13/22 31/14/23 5/18/24
s 1
f 29/15/25 30/1/1 4/4/4 10/16/26
s 5
f 38/46/27 39/6/17 6/17/20 11/47/28
s 3
f 6/86/11 23/31/10 24/88/29 11/89/30
s 6
f 5/18/24 31/14/23 32/38/31 12/39/32
s 7
f 28/19/33 29/20/34 10/21/35 14/22/36
s 8
f 37/32/37 38/35/38 11/41/39 15/45/40
s 9
f 11/41/41 24/78/42 25/79/43 15/45/44
s 10
f 12/80/45 32/81/46 33/82/47 16/83/48
s 11
f 27/34/49 28/67/50 14/68/51 18/69/52
s 12
f 36/24/53 37/25/54 15/44/55 19/72/56
s 13
f 15/33/57 25/62/58 26/63/59 19/64/60
s 14
f 16/23/61 33/26/62 34/42/63 20/75/64
s 4
f 7/28/65 22/9/15 41/8/14 42/29/66
s 3
f 5/90/67 23/31/10 22/30/9 7/91/68
f 24/88/29 23/31/10 5/90/67 12/92/69
s 9
f 25/79/43 24/78/42 12/80/70 16/83/71
s 13
f 26/63/59 25/62/58 16/65/72 20/66/73
s 2
f 34/57/74 35/54/6 26/43/5 20/58/75
s 11
f 13/70/76 28/67/50 27/34/49 17/71/77
s 7
f 9/84/78 29/20/34 28/19/33 13/85/79
s 1
f 3/27/80 30/1/1 29/15/25 9/36/81
f 1/37/82 21/2/2 30/1/1 3/27/80
s 6
f 32/38/31 31/14/23 3/40/83 9/52/84
s 10
f 33/82/47 32/81/46 9/84/85 13/85/86
s 14
f 34/42/63 33/26/62 13/76/87 17/77/88
s 2
f 17/59/89 27/60/90 35/54/6 34/57/74
f 36/55/7 35/54/6 27/60/90 18/61/91
s 12
f 14/73/92 37/25/54 36/24/53 18/74/93
s 8
f 10/21/94 38/35/38 37/32/37 14/22/95
s 5
f 4/48/96 39/6/17 38/46/27 10/50/97
f 2/94/98 40/11/18 39/6/17 4/48/96
s 4
f 21/49/99 41/8/14 40/7/13 2/51/100
f 42/29/66 41/8/14 21/49/99 1/53/101
s 6
f 31/14/23 42/13/22 1/93/102 3/40/83
