# This file uses centimeters as units for non-parametric coordinates.

mtllib Bridge_DeskGLASS_OBJ.mtl
g default
v 11.162306 8.049822 -22.841572
v 11.314791 13.003063 -22.296898
v -6.423741 13.003063 -22.296898
v -6.364595 8.049822 -22.841572
v 11.203148 8.410882 -22.921285
v -6.405438 8.410882 -22.921285
v 10.992386 6.547629 -22.689083
v -6.194676 6.547629 -22.689083
v 10.992386 6.547629 -22.805582
v -6.194676 6.547629 -22.805582
vt 0.093700 0.136096
vt 0.906299 0.136096
vt 0.940114 0.509656
vt 0.059876 0.509654
vt 0.064310 0.530451
vt 0.069815 0.846891
vt 0.898421 0.022801
vt 0.101578 0.022801
vt 0.938118 0.846891
vt 0.939020 0.530451
vt 0.080208 0.975285
vt 0.927725 0.975285
vn -0.000000 -0.109304 0.994008
vn -0.000000 -0.109304 0.994008
vn -0.000000 -0.109304 0.994008
vn -0.000000 -0.109304 0.994008
vn 0.000000 0.134728 -0.990883
vn 0.000000 0.134728 -0.990883
vn 0.000000 0.134728 -0.990883
vn 0.000000 0.134728 -0.990883
vn 0.000000 0.100992 0.994887
vn 0.000000 0.100992 0.994887
vn 0.000000 0.100992 0.994887
vn 0.000000 0.100992 0.994887
vn -0.000000 -0.061978 -0.998078
vn -0.000000 -0.061978 -0.998077
vn -0.000000 -0.061978 -0.998077
vn -0.000000 -0.061978 -0.998077
s off
g polySurface2 pCube1
usemtl lambert4SG
f 4/1/1 1/2/2 2/3/3 3/4/4
f 2/5/5 5/6/6 6/9/7 3/10/8
f 7/7/9 1/2/10 4/1/11 8/8/12
f 6/9/13 5/6/14 9/11/15 10/12/16
