# This file uses centimeters as units for non-parametric coordinates.

mtllib CargoBay_AVIstorageGLASS_OBJ.mtl
g default
v -6.841489 9.669112 -0.133176
v -5.631153 9.669114 -0.131681
v 5.652517 9.669114 -0.115839
v 6.862854 9.669112 -0.114351
v 6.945039 0.122015 -0.114351
v 5.847064 0.122003 -0.115839
v -5.825699 0.122003 -0.131681
v -6.923674 0.122015 -0.133176
v 6.862854 9.669112 0.136084
v 5.652518 9.669114 0.136084
v -5.631153 9.669114 0.136084
v -6.841490 9.669112 0.136084
v -6.923675 0.122015 0.136084
v -5.825699 0.122003 0.136084
v 5.847064 0.122003 0.136084
v 6.945039 0.122015 0.136084
v 9.102394 7.004163 0.136084
v -9.081030 7.004163 0.136084
v -9.081030 2.682137 0.136084
v 9.102395 2.682137 0.136084
v 9.102394 7.004163 -0.114351
v -9.081030 7.004164 -0.133176
v -9.081030 2.682137 -0.133176
v 9.102394 2.682132 -0.114351
vt 0.416280 0.142666
vt 0.894933 0.220718
vt 0.129112 0.221428
vt 0.726576 0.166891
vt 0.744243 0.142666
vt 0.129112 0.209441
vt 0.894933 0.209441
vt 0.726576 0.184120
vt 0.399393 0.184120
vt 0.046967 0.221495
vt 0.046967 0.209441
vt 0.744243 0.121701
vt 0.399393 0.166891
vt 0.041389 0.221495
vt 0.115908 0.221428
vt 0.416280 0.121701
vt 0.721588 0.166891
vt 0.423753 0.141201
vt 0.721588 0.185415
vt 0.739344 0.141201
vt 0.406756 0.185415
vt 0.739344 0.121701
vt 0.406756 0.166891
vt 0.423753 0.121701
vt 0.125615 0.963862
vt 0.191744 0.963862
vt 0.808256 0.963862
vt 0.874385 0.963862
vt 0.996748 0.814391
vt 0.003252 0.814391
vt 0.996748 0.814391
vt 0.003252 0.814391
vt 0.003252 0.571977
vt 0.996748 0.571977
vt 0.874385 0.963862
vt 0.808256 0.963862
vt 0.191744 0.963862
vt 0.125615 0.963862
vt 0.121124 0.428385
vt 0.181115 0.428384
vt 0.818885 0.428384
vt 0.878876 0.428385
vt 0.003252 0.571977
vt 0.996748 0.571977
vt 0.878876 0.428385
vt 0.818885 0.428384
vt 0.181115 0.428384
vt 0.121124 0.428385
vt 0.320647 0.182472
vt 0.320647 0.156883
vt 0.042526 0.156883
vt 0.042526 0.182472
vt 0.042526 0.182472
vt 0.042525 0.158672
vt 0.320647 0.158672
vt 0.320647 0.182472
vt 0.115908 0.209441
vt 0.041389 0.209441
vt 0.908136 0.220718
vt 0.908136 0.209441
vt 0.982656 0.220652
vt 0.982656 0.209441
vt 0.977078 0.220652
vt 0.977078 0.209441
vn 0.001181 0.000001 -0.999999
vn 0.001181 0.000001 -0.999999
vn 0.001181 0.000001 -0.999999
vn 0.001181 0.000001 -0.999999
vn 0.001069 0.000000 -1.000000
vn 0.001069 0.000000 -1.000000
vn 0.000000 0.000000 1.000000
vn 0.000000 0.000000 1.000000
vn 0.000000 0.000000 1.000000
vn 0.000000 0.000000 1.000000
vn 0.000000 1.000000 0.000002
vn 0.000000 1.000000 0.000002
vn 0.000000 1.000000 0.000002
vn 0.000000 1.000000 0.000002
vn -0.000002 1.000000 0.000000
vn -0.000002 1.000000 0.000000
vn -0.000002 1.000000 0.000000
vn -0.000002 1.000000 0.000000
vn -0.765566 0.643358 -0.000001
vn -0.952277 0.305235 -0.000000
vn -0.952277 0.305234 -0.000000
vn -0.765566 0.643358 -0.000001
vn -0.000011 -1.000000 0.000000
vn -0.000011 -1.000000 0.000000
vn -0.000011 -1.000000 0.000000
vn -0.000011 -1.000000 0.000000
vn 0.000000 -1.000000 0.000000
vn 0.000000 -1.000000 0.000000
vn 0.000000 -1.000000 0.000000
vn 0.000000 -1.000000 0.000000
vn 0.000011 -1.000000 0.000000
vn 0.000011 -1.000000 0.000000
vn 0.000011 -1.000000 0.000000
vn 0.000011 -1.000000 0.000000
vn 0.952277 0.305234 -0.000001
vn 0.952277 0.305234 -0.000001
vn 0.765566 0.643358 0.000000
vn 0.765566 0.643358 0.000000
vn 0.000002 1.000000 0.000000
vn 0.000002 1.000000 0.000000
vn 0.000002 1.000000 0.000000
vn 0.000002 1.000000 0.000000
vn 0.000000 0.000000 1.000000
vn 0.000000 0.000000 1.000000
vn 0.000000 0.000000 1.000000
vn 0.000000 0.000000 1.000000
vn 0.000000 0.000000 1.000000
vn 0.000000 0.000000 1.000000
vn 0.000000 0.000000 1.000000
vn 0.000000 0.000000 1.000000
vn 0.764696 -0.644391 0.000006
vn 0.954214 -0.299124 0.000001
vn 0.954217 -0.299115 0.000001
vn 0.764696 -0.644391 0.000006
vn 0.001067 -0.000000 -1.000000
vn 0.001067 -0.000000 -1.000000
vn 0.001175 -0.000001 -0.999999
vn 0.001175 -0.000001 -0.999999
vn 0.001175 -0.000001 -0.999999
vn 0.001175 -0.000001 -0.999999
vn -0.954216 -0.299119 -0.000000
vn -0.954216 -0.299119 -0.000000
vn -0.764696 -0.644391 -0.000001
vn -0.764696 -0.644391 -0.000001
s 1
g polySurface2
usemtl lambert3SG
f 1/25/1 2/26/2 3/27/3 4/28/4 21/29/5 22/30/6
s 2
f 17/31/7 18/32/8 19/33/9 20/34/10
s off
f 3/2/11 2/3/12 11/6/13 10/7/14
f 2/3/15 1/10/16 12/11/17 11/6/18
s 3
f 1/1/19 22/5/20 18/12/21 12/16/22
s off
f 8/14/23 7/15/24 14/57/25 13/58/26
f 7/15/27 6/59/28 15/60/29 14/57/30
f 6/59/31 5/61/32 16/62/33 15/60/34
s 4
f 17/4/35 21/8/36 4/9/37 9/13/38
s off
f 4/63/39 3/2/40 10/7/41 9/64/42
s 2
f 9/35/43 10/36/44 11/37/45 12/38/46 18/32/8 17/31/7
f 20/34/10 19/33/9 13/39/47 14/40/48 15/41/49 16/42/50
s 4
f 5/18/51 24/20/52 20/22/53 16/24/54
s 1
f 23/43/55 24/44/56 5/45/57 6/46/58 7/47/59 8/48/60
s 3
f 19/17/61 23/19/62 8/21/63 13/23/64
f 18/49/21 22/50/20 23/51/62 19/52/61
s 1
f 22/30/6 21/29/5 24/44/56 23/43/55
s 4
f 20/53/53 24/54/52 21/55/36 17/56/35
