# This file uses centimeters as units for non-parametric coordinates.

mtllib CargoBay_AVIstorage_OBJ.mtl
g default
v -6.934363 0.053962 -1.946251
v 6.934363 0.053962 -1.946251
v -6.934363 9.729821 -1.946251
v 6.934363 9.729821 -1.946251
v -6.934363 9.729821 -2.161270
v 6.934363 9.729821 -2.161270
v -6.934363 0.053962 -2.161270
v 6.934363 0.053962 -2.161270
v -6.818792 0.134584 -1.946251
v 6.818792 0.134584 -1.946251
v 6.818792 9.649189 -1.946251
v -6.818792 9.649189 -1.946251
v -6.934363 9.729821 2.688419
v 6.934363 9.729821 2.688419
v -6.818792 9.649189 2.688419
v 6.818792 9.649189 2.688419
v -6.934363 0.053962 2.688419
v -6.818792 0.134584 2.688419
v 6.934363 0.053962 2.688419
v 6.818792 0.134584 2.688419
v -9.169134 7.013846 -1.946251
v -9.169134 7.013846 2.688419
v -9.016317 6.978479 2.688419
v -9.016317 6.978479 -1.946251
v 9.016317 6.978479 -1.946251
v 9.016317 6.978479 2.688419
v 9.169134 7.013846 2.688419
v 9.169134 7.013846 -1.946251
v 9.169134 7.013845 -2.161270
v -9.169134 7.013845 -2.161270
v -9.169134 2.686959 -1.946251
v -9.169134 2.686959 2.688419
v -9.016317 2.723705 2.688419
v -9.016317 2.723705 -1.946251
v 9.016317 2.723705 -1.946251
v 9.016317 2.723705 2.688419
v 9.169134 2.686959 2.688419
v 9.169134 2.686959 -1.946251
v 9.169134 2.686959 -2.161270
v -9.169134 2.686959 -2.161270
vt 0.660968 0.866145
vt 0.821813 0.988292
vt 0.660967 0.984701
vt 0.661649 0.988292
vt 0.017487 0.831691
vt 0.016977 0.975646
vt 0.038037 0.016738
vt 0.017487 0.975384
vt 0.038038 0.482719
vt 0.008251 0.975646
vt 0.205385 0.975384
vt 0.205385 0.831691
vt 0.008250 0.831652
vt 0.016977 0.831652
vt 0.205083 0.975645
vt 0.008770 0.975384
vt 0.661650 0.879281
vt 0.822748 0.984701
vt 0.205083 0.831651
vt 0.822747 0.866145
vt 0.008770 0.831691
vt 0.821813 0.879281
vt 0.018789 0.644731
vt 0.018789 0.503335
vt 0.821813 0.867780
vt 0.661650 0.867780
vt 0.660968 0.988414
vt 0.660968 0.872541
vt 0.206823 0.503704
vt 0.018718 0.503703
vt 0.391169 0.564045
vt 0.018718 0.645100
vt 0.207973 0.503335
vt 0.206823 0.645100
vt 0.009991 0.503704
vt 0.822748 0.872541
vt 0.822748 0.988414
vt 0.661650 0.974379
vt 0.821813 0.974379
vt 0.207972 0.644731
vt 0.010013 0.644731
vt 0.391169 0.352670
vt 0.010013 0.503335
vt 0.009991 0.645100
vt 0.607967 0.068071
vt 0.607967 0.800724
vt 0.476091 0.711440
vt 0.476091 0.157355
vt 0.818062 0.068071
vt 0.818062 0.800724
vt 0.945909 0.157355
vt 0.945909 0.711441
vt 0.346034 0.318610
vt 0.346034 0.598106
vt 0.274130 0.318610
vt 0.274130 0.598106
vt 0.230375 0.352670
vt 0.230375 0.564045
vt 0.030989 0.482719
vt 0.030989 0.016738
vt 0.038037 0.016738
vt 0.030989 0.016738
vt 0.030989 0.482719
vt 0.038038 0.482719
vt 0.189967 0.016738
vt 0.189968 0.482719
vt 0.189968 0.482719
vt 0.189967 0.016738
vt 0.451841 0.731435
vt 0.451840 0.139976
vt 0.456160 0.144905
vt 0.456160 0.726506
vt 0.597331 0.044670
vt 0.599225 0.051188
vt 0.970160 0.139977
vt 0.970160 0.731435
vt 0.965841 0.726506
vt 0.965841 0.144905
vt 0.599225 0.820224
vt 0.597331 0.826741
vt 0.829115 0.044671
vt 0.827146 0.051188
vt 0.827146 0.820224
vt 0.829114 0.826741
vt 0.196979 0.656188
vt 0.025278 0.656188
vt 0.025278 0.819750
vt 0.196979 0.819750
vt 0.196979 0.819750
vt 0.025278 0.819750
vt 0.025278 0.656188
vt 0.196979 0.656188
vt 0.017312 0.819749
vt 0.017313 0.656188
vt 0.017312 0.819750
vt 0.017313 0.656188
vt 0.273087 0.987637
vt 0.655721 0.987637
vt 0.655721 0.865865
vt 0.273087 0.865865
vt 0.655721 0.987637
vt 0.273087 0.987637
vt 0.273087 0.865865
vt 0.655722 0.865865
vt 0.965120 0.989814
vt 0.829274 0.989814
vt 0.829274 0.864744
vt 0.965120 0.864744
vt 0.965120 0.864744
vt 0.829274 0.864744
vt 0.829274 0.989814
vt 0.965120 0.989814
vn 0.000000 0.000000 1.000000
vn 0.000000 0.000000 1.000000
vn 0.000000 0.000000 1.000000
vn 0.000000 0.000000 1.000000
vn 0.000000 1.000000 0.000000
vn 0.000000 1.000000 0.000000
vn 0.000000 1.000000 0.000000
vn 0.000000 1.000000 0.000000
vn 0.000000 0.000000 -1.000000
vn 0.000000 0.000000 -1.000000
vn 0.000000 0.000000 -1.000000
vn 0.000000 0.000000 -1.000000
vn 0.953166 0.302449 -0.000000
vn 0.953166 0.302449 -0.000001
vn 0.772197 0.635383 -0.000001
vn 0.772197 0.635383 -0.000000
vn 0.000000 -1.000000 0.000000
vn 0.000000 -1.000000 0.000000
vn 0.000000 -1.000000 0.000000
vn 0.000000 -1.000000 0.000000
vn 0.000000 0.000000 1.000000
vn 0.000000 0.000000 1.000000
vn 0.000000 0.000000 1.000000
vn 0.000000 0.000000 1.000000
vn -0.000002 0.000000 1.000000
vn -0.000001 0.000000 1.000000
vn -0.000001 0.000000 1.000000
vn -0.000002 0.000000 1.000000
vn 0.000000 0.000000 1.000000
vn 0.000000 0.000000 1.000000
vn 0.000000 0.000000 1.000000
vn 0.000000 0.000000 1.000000
vn 0.000001 0.000000 1.000000
vn 0.000001 0.000000 1.000000
vn 0.000002 0.000000 1.000000
vn 0.000002 0.000000 1.000000
vn 0.000000 1.000000 0.000000
vn 0.000000 1.000000 0.000000
vn 0.000000 -1.000000 0.000000
vn 0.000000 -1.000000 0.000000
vn 0.000000 -1.000000 0.000000
vn 0.000000 -1.000000 0.000000
vn -0.772197 0.635383 0.000000
vn -0.953166 0.302449 0.000000
vn -0.953166 0.302449 0.000000
vn -0.772197 0.635383 0.000000
vn 0.953166 -0.302449 0.000000
vn 0.953166 -0.302449 0.000000
vn 0.772197 -0.635383 0.000000
vn 0.772197 -0.635383 0.000000
vn 0.000000 -1.000000 0.000000
vn 0.000000 -1.000000 0.000000
vn 0.000000 -1.000000 0.000000
vn 0.000000 -1.000000 0.000000
vn 0.000000 1.000000 0.000000
vn 0.000000 1.000000 0.000000
vn 0.000000 1.000000 0.000000
vn 0.000000 1.000000 0.000000
vn 0.953166 0.302449 0.000000
vn 0.772197 0.635383 0.000000
vn -0.772197 -0.635383 0.000000
vn -0.953166 -0.302449 0.000000
vn -0.953166 -0.302449 0.000000
vn -0.772197 -0.635383 0.000000
vn -0.953166 0.302449 -0.000001
vn -0.953166 0.302449 -0.000001
vn -0.772197 0.635383 -0.000001
vn -0.772197 0.635383 -0.000001
vn -0.952121 -0.305720 0.000000
vn -0.952121 -0.305720 0.000000
vn 0.000001 0.000000 1.000000
vn 0.000001 0.000000 1.000000
vn 0.952122 0.305719 0.000000
vn 0.952122 0.305719 0.000000
vn 0.000000 0.000000 1.000000
vn 0.000000 0.000000 1.000000
vn -0.952122 0.305719 0.000000
vn -0.952122 0.305719 0.000000
vn -0.000001 0.000000 1.000000
vn -0.000001 0.000000 1.000000
vn 0.952121 -0.305720 0.000000
vn 0.952122 -0.305720 0.000000
vn 0.952122 -0.305720 0.000001
vn 0.000000 0.000000 -1.000000
vn 0.000000 0.000000 -1.000000
vn -0.952122 -0.305720 0.000001
vn -0.952122 -0.305720 0.000001
vn -0.762407 -0.647097 0.000000
vn -0.762407 -0.647097 0.000000
vn 0.000002 0.000000 1.000000
vn 0.000002 0.000000 1.000000
vn 0.762408 0.647096 0.000000
vn 0.762408 0.647096 0.000000
vn 0.000000 0.000000 1.000000
vn 0.000000 0.000000 1.000000
vn -0.762408 0.647096 0.000000
vn -0.762408 0.647096 0.000000
vn -0.000001 0.000000 1.000000
vn -0.000001 0.000000 1.000000
vn 0.762407 -0.647097 0.000000
vn 0.762407 -0.647097 0.000000
vn 0.762407 -0.647097 0.000002
vn 0.000000 0.000000 -1.000000
vn 0.000000 0.000000 -1.000000
vn -0.762407 -0.647097 0.000002
vn -0.762407 -0.647097 0.000002
s 1
g polySurface1 pCube1
usemtl lambert2SG
f 24/45/1 25/46/2 11/47/3 12/48/4
s 2
f 3/7/5 4/9/6 6/59/7 5/60/8
s 3
f 5/31/9 6/42/10 29/53/11 30/54/12
s 4
f 28/6/13 29/10/14 6/13/15 4/14/16
s off
f 1/61/17 7/62/18 8/63/19 2/64/20
f 14/69/21 13/70/22 15/71/23 16/72/24
s 5
f 13/70/25 22/73/26 23/74/27 15/71/28
s off
f 17/75/29 19/76/30 20/77/31 18/78/32
s 6
f 26/79/33 27/80/34 14/69/35 16/72/36
s 2
f 4/9/6 3/7/5 13/65/37 14/66/38
s off
f 12/97/39 11/98/40 16/99/41 15/100/42
s 7
f 3/5/43 21/8/44 22/11/45 13/12/46
s 8
f 23/2/47 24/4/48 12/17/49 15/22/50
s off
f 1/61/51 2/64/52 19/67/53 17/68/54
f 10/101/55 9/102/56 18/103/57 20/104/58
s 4
f 27/15/59 28/6/13 4/14/16 14/19/60
s 9
f 11/1/61 25/3/62 26/18/63 16/20/64
s 10
f 30/16/65 21/8/66 3/5/67 5/21/68
s 7
f 22/85/45 21/86/44 31/87/69 32/88/70
s 5
f 23/74/27 22/73/26 32/81/71 33/82/72
s 8
f 33/105/73 34/106/74 24/107/48 23/108/47
s 1
f 34/49/75 35/50/76 25/46/2 24/45/1
s 9
f 26/109/63 25/110/62 35/111/77 36/112/78
s 6
f 36/83/79 37/84/80 27/80/34 26/79/33
s 4
f 37/89/81 38/90/82 28/91/13 27/92/59
f 38/90/82 39/93/83 29/94/14 28/91/13
s 3
f 30/54/12 29/53/11 39/55/84 40/56/85
s 10
f 40/95/86 31/87/87 21/86/66 30/96/65
s 7
f 32/29/70 31/30/69 1/32/88 17/34/89
s 5
f 33/82/72 32/81/71 17/75/90 18/78/91
s 8
f 9/27/92 34/28/74 33/36/73 18/37/93
s 1
f 9/51/94 10/52/95 35/50/76 34/49/75
s 9
f 36/25/78 35/26/77 10/38/96 20/39/97
s 6
f 19/76/98 37/84/80 36/83/79 20/77/99
s 4
f 2/23/100 38/24/82 37/33/81 19/40/101
f 2/23/100 8/41/102 39/43/83 38/24/82
s 3
f 40/56/85 39/55/84 8/57/103 7/58/104
s 10
f 1/32/105 31/30/87 40/35/86 7/44/106
