# This file uses centimeters as units for non-parametric coordinates.

mtllib JarofSiliconeGrease.mtl
g default
v 0.703845 0.041458 -0.511373
v 0.268845 0.041458 -0.827419
v -0.268845 0.041458 -0.827419
v -0.703845 0.041458 -0.511373
v -0.870000 0.041458 0.000000
v -0.703845 0.041458 0.511373
v -0.268845 0.041458 0.827419
v 0.268845 0.041458 0.827419
v 0.703845 0.041458 0.511373
v 0.870000 0.041458 0.000000
v 0.809017 1.526594 -0.587785
v 0.309017 1.526594 -0.951057
v -0.309017 1.526594 -0.951057
v -0.809017 1.526594 -0.587785
v -1.000000 1.526594 0.000000
v -0.809017 1.526594 0.587785
v -0.309017 1.526594 0.951057
v 0.309017 1.526594 0.951057
v 0.809017 1.526594 0.587785
v 1.000000 1.526594 0.000000
v 0.000000 0.041458 0.000000
v 0.809017 1.886307 -0.587785
v 0.309017 1.886307 -0.951057
v 0.000000 1.880715 -0.000000
v -0.309017 1.886307 -0.951057
v -0.809017 1.886307 -0.587785
v -1.000000 1.886307 -0.000000
v -0.809017 1.886307 0.587785
v -0.309017 1.886307 0.951057
v 0.309017 1.886307 0.951057
v 0.809017 1.886307 0.587785
v 1.000000 1.886307 -0.000000
v 0.860935 1.570406 -0.625506
v 0.328848 1.570406 -1.012089
v 0.328848 1.839544 -1.012089
v 0.860935 1.839544 -0.625506
v -0.328848 1.570406 -1.012089
v -0.328848 1.839544 -1.012089
v -0.860935 1.570406 -0.625506
v -0.860935 1.839544 -0.625506
v -1.064174 1.570406 0.000000
v -1.064174 1.839544 0.000000
v -0.860935 1.570406 0.625506
v -0.860935 1.839544 0.625506
v -0.328848 1.570406 1.012089
v -0.328848 1.839544 1.012089
v 0.328848 1.570406 1.012089
v 0.328848 1.839544 1.012089
v 0.860935 1.570406 0.625506
v 0.860935 1.839544 0.625506
v 1.064174 1.570406 0.000000
v 1.064174 1.839544 0.000000
v 0.845111 1.526593 -0.614010
v 0.322804 1.526593 -0.993488
v -0.322804 1.526593 -0.993488
v -0.845112 1.526593 -0.614009
v -1.044615 1.526593 0.000000
v -0.845111 1.526593 0.614009
v -0.322804 1.526593 0.993488
v 0.322804 1.526593 0.993488
v 0.845111 1.526593 0.614009
v 1.044615 1.526593 0.000000
v 0.769382 0.103899 -0.558989
v 0.293878 0.103899 -0.904462
v -0.293878 0.103899 -0.904462
v -0.769382 0.103899 -0.558988
v -0.951008 0.103899 0.000000
v -0.769382 0.103899 0.558989
v -0.293878 0.103899 0.904462
v 0.293878 0.103899 0.904462
v 0.769382 0.103899 0.558988
v 0.951008 0.103899 -0.000000
vt 0.701299 0.660132
vt 0.589732 0.304808
vt 0.796102 0.912101
vt 0.701299 0.912101
vt 0.616302 0.399869
vt 0.890256 0.912101
vt 0.693672 0.461158
vt 0.987381 0.912101
vt 0.792291 0.465265
vt 0.133068 0.912101
vt 0.874489 0.410620
vt 0.226715 0.912101
vt 0.908870 0.318097
vt 0.322327 0.912101
vt 0.882300 0.223036
vt 0.416241 0.912101
vt 0.804929 0.161747
vt 0.513875 0.912101
vt 0.706311 0.157640
vt 0.607934 0.912101
vt 0.608762 0.305483
vt 0.639111 0.224016
vt 0.749301 0.311452
vt 0.632093 0.389230
vt 0.700194 0.443268
vt 0.787052 0.446958
vt 0.859490 0.398889
vt 0.889840 0.317422
vt 0.866508 0.233675
vt 0.798407 0.179637
vt 0.711550 0.175947
vt 0.284791 0.456956
vt 0.191980 0.456654
vt 0.238854 0.313989
vt 0.117080 0.401846
vt 0.088699 0.313485
vt 0.117670 0.225323
vt 0.192923 0.171026
vt 0.285717 0.171329
vt 0.360615 0.226117
vt 0.389009 0.314467
vt 0.360050 0.402641
vt 0.702464 0.568794
vt 0.796527 0.568794
vt 0.796527 0.606891
vt 0.289015 0.469897
vt 0.890934 0.568794
vt 0.890934 0.606891
vt 0.989589 0.568794
vt 0.042510 0.606891
vt 0.137919 0.568794
vt 0.137919 0.606891
vt 0.231026 0.568794
vt 0.231026 0.606891
vt 0.325586 0.568794
vt 0.325586 0.606891
vt 0.420649 0.568794
vt 0.420649 0.606891
vt 0.514108 0.568794
vt 0.514108 0.606891
vt 0.608811 0.568794
vt 0.608811 0.606891
vt 0.702465 0.558452
vt 0.796527 0.558452
vt 0.890934 0.558452
vt 0.042510 0.558452
vt 0.137919 0.558452
vt 0.231026 0.558452
vt 0.325586 0.558452
vt 0.420649 0.558452
vt 0.514108 0.558452
vt 0.608811 0.558452
vt 0.607934 0.660132
vt 0.624113 0.212285
vt 0.513875 0.660132
vt 0.416241 0.660132
vt 0.322327 0.660132
vt 0.226715 0.660132
vt 0.133068 0.660132
vt 0.987381 0.660132
vt 0.036273 0.660132
vt 0.890256 0.660132
vt 0.789437 0.660132
vt 0.989589 0.551274
vt 0.036273 0.912101
vt 0.608811 0.551274
vt 0.702465 0.551274
vt 0.514108 0.551274
vt 0.420649 0.551274
vt 0.325586 0.551274
vt 0.231026 0.551274
vt 0.137919 0.551274
vt 0.890934 0.551274
vt 0.796527 0.551274
vt 0.989589 0.558452
vt 0.042510 0.568794
vt 0.042510 0.551274
vt 0.371074 0.410625
vt 0.702464 0.606891
vt 0.402620 0.314447
vt 0.371615 0.218101
vt 0.289907 0.158379
vt 0.188701 0.158086
vt 0.106649 0.217334
vt 0.989589 0.606891
vt 0.075088 0.313499
vt 0.106077 0.409858
vt 0.187789 0.469607
vn 0.806610 -0.077080 -0.586037
vn 0.308097 -0.077080 -0.948227
vn 0.308172 -0.073871 -0.948458
vn 0.806807 -0.073871 -0.586179
vn -0.308098 -0.077080 -0.948227
vn -0.308173 -0.073871 -0.948458
vn -0.806610 -0.077080 -0.586036
vn -0.806807 -0.073871 -0.586179
vn -0.997025 -0.077080 0.000000
vn -0.997268 -0.073871 0.000000
vn -0.806610 -0.077080 0.586037
vn -0.806807 -0.073871 0.586179
vn -0.308098 -0.077080 0.948227
vn -0.308173 -0.073871 0.948458
vn 0.308098 -0.077080 0.948227
vn 0.308173 -0.073871 0.948458
vn 0.806610 -0.077080 0.586036
vn 0.806807 -0.073871 0.586179
vn 0.997025 -0.077080 0.000000
vn 0.997268 -0.073871 0.000000
vn 0.050987 -0.986294 -0.156922
vn 0.133486 -0.986294 -0.096983
vn 0.000000 -1.000000 0.000000
vn -0.050987 -0.986294 -0.156922
vn -0.133486 -0.986294 -0.096983
vn -0.164997 -0.986294 0.000000
vn -0.133486 -0.986294 0.096983
vn -0.050987 -0.986294 0.156922
vn 0.050987 -0.986294 0.156922
vn 0.133486 -0.986294 0.096983
vn 0.164997 -0.986294 0.000000
vn 0.089382 0.993878 -0.064939
vn 0.034141 0.993878 -0.105074
vn -0.000000 1.000000 0.000000
vn -0.034141 0.993878 -0.105074
vn -0.089382 0.993878 -0.064940
vn -0.110482 0.993878 -0.000000
vn -0.089382 0.993878 0.064939
vn -0.034141 0.993878 0.105074
vn 0.034141 0.993878 0.105074
vn 0.089381 0.993878 0.064939
vn 0.110482 0.993878 0.000000
vn 0.807629 -0.058552 -0.586777
vn 0.308487 -0.058552 -0.949425
vn 0.304474 0.170830 -0.937076
vn 0.797125 0.170830 -0.579145
vn -0.308487 -0.058552 -0.949425
vn -0.304475 0.170830 -0.937076
vn -0.807629 -0.058552 -0.586777
vn -0.797125 0.170830 -0.579145
vn -0.998284 -0.058552 0.000000
vn -0.985300 0.170830 0.000000
vn -0.807629 -0.058552 0.586777
vn -0.797125 0.170830 0.579145
vn -0.308487 -0.058552 0.949425
vn -0.304475 0.170830 0.937077
vn 0.308487 -0.058552 0.949425
vn 0.304475 0.170830 0.937076
vn 0.807629 -0.058551 0.586777
vn 0.797125 0.170830 0.579145
vn 0.998284 -0.058551 0.000000
vn 0.985300 0.170830 0.000000
vn 0.520474 -0.765580 -0.378146
vn 0.198803 -0.765580 -0.611854
vn -0.198803 -0.765580 -0.611854
vn -0.520474 -0.765580 -0.378146
vn -0.643341 -0.765580 -0.000000
vn -0.520474 -0.765580 0.378147
vn -0.198803 -0.765580 0.611854
vn 0.198803 -0.765580 0.611853
vn 0.520474 -0.765580 0.378147
vn 0.643341 -0.765580 0.000000
s 1
g pCylinder1
usemtl lambert2SG
f 63/1/1 64/83/2 12/3/3 11/4/4
f 64/83/2 65/82/5 13/6/6 12/3/3
f 65/82/5 66/80/7 14/8/8 13/6/6
f 66/81/7 67/79/9 15/10/10 14/85/8
f 67/79/9 68/78/11 16/12/12 15/10/10
f 68/78/11 69/77/13 17/14/14 16/12/12
f 69/77/13 70/76/15 18/16/16 17/14/14
f 70/76/15 71/75/17 19/18/18 18/16/16
f 71/75/17 72/73/19 20/20/20 19/18/18
f 72/73/19 63/1/1 11/4/4 20/20/20
f 2/21/21 1/22/22 21/23/23
f 3/24/24 2/21/21 21/23/23
f 4/25/25 3/24/24 21/23/23
f 5/26/26 4/25/25 21/23/23
f 6/27/27 5/26/26 21/23/23
f 7/28/28 6/27/27 21/23/23
f 8/29/29 7/28/28 21/23/23
f 9/30/30 8/29/29 21/23/23
f 10/31/31 9/30/30 21/23/23
f 1/22/22 10/31/31 21/23/23
f 22/32/32 23/33/33 24/34/34
f 23/33/33 25/35/35 24/34/34
f 25/35/35 26/36/36 24/34/34
f 26/36/36 27/37/37 24/34/34
f 27/37/37 28/38/38 24/34/34
f 28/38/38 29/39/39 24/34/34
f 29/39/39 30/40/40 24/34/34
f 30/40/40 31/41/41 24/34/34
f 31/41/41 32/42/42 24/34/34
f 32/42/42 22/32/32 24/34/34
f 33/43/43 34/44/44 35/45/45 36/99/46
f 34/44/44 37/47/47 38/48/48 35/45/45
f 37/47/47 39/49/49 40/105/50 38/48/48
f 39/96/49 41/51/51 42/52/52 40/50/50
f 41/51/51 43/53/53 44/54/54 42/52/52
f 43/53/53 45/55/55 46/56/56 44/54/54
f 45/55/55 47/57/57 48/58/58 46/56/56
f 47/57/57 49/59/59 50/60/60 48/58/58
f 49/59/59 51/61/61 52/62/62 50/60/60
f 51/61/61 33/43/43 36/99/46 52/62/62
f 53/63/63 54/64/64 34/44/44 33/43/43
f 23/33/33 22/32/32 36/46/46 35/108/45
f 54/64/64 55/65/65 37/47/47 34/44/44
f 25/35/35 23/33/33 35/108/45 38/107/48
f 55/65/65 56/95/66 39/49/49 37/47/47
f 26/36/36 25/35/35 38/107/48 40/106/50
f 56/66/66 57/67/67 41/51/51 39/96/49
f 27/37/37 26/36/36 40/106/50 42/104/52
f 57/67/67 58/68/68 43/53/53 41/51/51
f 28/38/38 27/37/37 42/104/52 44/103/54
f 58/68/68 59/69/69 45/55/55 43/53/53
f 29/39/39 28/38/38 44/103/54 46/102/56
f 59/69/69 60/70/70 47/57/57 45/55/55
f 30/40/40 29/39/39 46/102/56 48/101/58
f 60/70/70 61/71/71 49/59/59 47/57/57
f 31/41/41 30/40/40 48/101/58 50/100/60
f 61/71/71 62/72/72 51/61/61 49/59/59
f 32/42/42 31/41/41 50/100/60 52/98/62
f 62/72/72 53/63/63 33/43/43 51/61/61
f 22/32/32 32/42/42 52/98/62 36/46/46
f 11/87/4 12/94/3 54/64/64 53/63/63
f 12/94/3 13/93/6 55/65/65 54/64/64
f 13/93/6 14/84/8 56/95/66 55/65/65
f 14/97/8 15/92/10 57/67/67 56/66/66
f 15/92/10 16/91/12 58/68/68 57/67/67
f 16/91/12 17/90/14 59/69/69 58/68/68
f 17/90/14 18/89/16 60/70/70 59/69/69
f 18/89/16 19/88/18 61/71/71 60/70/70
f 19/88/18 20/86/20 62/72/72 61/71/71
f 20/86/20 11/87/4 53/63/63 62/72/72
f 1/22/22 2/21/21 64/2/2 63/74/1
f 2/21/21 3/24/24 65/5/5 64/2/2
f 3/24/24 4/25/25 66/7/7 65/5/5
f 4/25/25 5/26/26 67/9/9 66/7/7
f 5/26/26 6/27/27 68/11/11 67/9/9
f 6/27/27 7/28/28 69/13/13 68/11/11
f 7/28/28 8/29/29 70/15/15 69/13/13
f 8/29/29 9/30/30 71/17/17 70/15/15
f 9/30/30 10/31/31 72/19/19 71/17/17
f 10/31/31 1/22/22 63/74/1 72/19/19
