# This file uses centimeters as units for non-parametric coordinates.

mtllib MetalBarMurderWeapon.mtl
g default
v -0.500000 -0.500000 7.171015
v 0.500000 -0.500000 7.171015
v -0.500000 0.500000 7.171015
v 0.500000 0.500000 7.171015
v -0.500000 0.500000 -7.171015
v 0.500000 0.500000 -7.171015
v -0.500000 -0.500000 -7.171015
v 0.500000 -0.500000 -7.171015
v -0.428307 -0.428307 7.171015
v 0.428307 -0.428307 7.171015
v 0.428307 0.428307 7.171015
v -0.428307 0.428307 7.171015
v -0.428307 0.428307 -7.171015
v 0.428307 0.428307 -7.171015
v 0.428307 -0.428307 -7.171015
v -0.428307 -0.428307 -7.171015
v -0.500000 0.500000 6.030673
v 0.500000 0.500000 6.030673
v 0.500000 -0.500000 6.030666
v -0.500000 -0.500000 6.030666
v -0.500000 -0.500000 5.001093
v 0.500000 -0.500000 5.001093
v 0.500000 0.500000 5.001093
v -0.500000 0.500000 5.001093
v -0.500000 0.500000 5.556858
v 0.323494 0.341424 5.556858
v 0.500000 -0.500000 5.556854
v -0.500000 -0.500000 5.556854
v 0.089086 0.500000 7.171015
v 0.076312 0.428307 7.171015
v 0.076312 0.428307 -7.171015
v 0.089086 0.500000 -7.171015
v 0.089086 0.500000 5.001093
v 0.089086 0.500000 5.556858
v 0.089086 0.500000 6.030673
v 0.500000 0.018789 7.171015
v 0.500000 0.018789 6.030670
v 0.500000 0.018789 5.556857
v 0.500000 0.018789 5.001093
v 0.500000 0.018789 -7.171015
v 0.428307 0.016095 -7.171015
v 0.428307 0.016095 7.171015
v -0.428307 0.428307 6.524200
v 0.076312 0.428307 6.524200
v 0.428307 0.428307 6.524200
v 0.428307 0.016095 6.524204
v 0.428307 -0.428307 6.524200
v -0.428307 -0.428307 6.524200
v 0.428307 0.016095 4.855673
v 0.428308 -0.428308 4.855671
v -0.428308 -0.428308 4.855671
v -0.428308 0.428308 4.855671
v 0.076312 0.428308 4.855671
v 0.428308 0.428308 4.855671
v -0.428307 0.428307 5.598499
v -0.428307 -0.428307 5.598499
v 0.428307 -0.428307 5.598499
v 0.428307 0.016095 5.598502
v 0.279810 0.296191 5.598499
v 0.076312 0.428307 5.598499
vt 0.207978 0.206306
vt 0.171673 0.206306
vt 0.171673 0.180236
vt 0.207978 0.467571
vt 0.207978 0.309310
vt 0.207978 0.386416
vt 0.171673 0.386416
vt 0.171673 0.309310
vt 0.171673 0.429503
vt 0.207978 0.429503
vt 0.207978 0.238498
vt 0.171673 0.238498
vt 0.053673 0.309310
vt 0.053673 0.386416
vt 0.058044 0.671528
vt 0.058044 0.730828
vt 0.058044 0.640920
vt 0.053673 0.429503
vt 0.053673 0.467571
vt 0.058044 0.611670
vt 0.053673 0.206306
vt 0.058044 0.822142
vt 0.053673 0.238498
vt 0.058044 0.789775
vt 0.907284 0.822142
vt 0.929451 0.206306
vt 0.929451 0.180236
vt 0.907284 0.611670
vt 0.929451 0.429502
vt 0.907284 0.640920
vt 0.929451 0.386416
vt 0.929451 0.309311
vt 0.907284 0.730828
vt 0.907284 0.671528
vt 0.929451 0.238498
vt 0.907284 0.789775
vt 0.107801 0.822142
vt 0.107801 0.611670
vt 0.107801 0.730828
vt 0.107801 0.789775
vt 0.107801 0.640920
vt 0.107801 0.671528
vt 0.138274 0.206306
vt 0.138274 0.180236
vt 0.138274 0.429503
vt 0.138274 0.309310
vt 0.138274 0.386416
vt 0.138274 0.238498
vt 0.210124 0.789775
vt 0.210124 0.822142
vt 0.158789 0.822142
vt 0.158789 0.789775
vt 0.158789 0.844169
vt 0.210124 0.611670
vt 0.210124 0.640920
vt 0.158789 0.640920
vt 0.158789 0.671528
vt 0.210124 0.671528
vt 0.158789 0.730828
vt 0.210124 0.730828
vt 0.158789 0.611670
vt 0.210124 0.844169
vt 0.935556 0.467571
vt 0.935556 0.180236
vt 0.907284 0.844169
vt 0.107801 0.844169
vt 0.040972 0.429503
vt 0.058044 0.844169
vt 0.040972 0.180236
vt 0.040972 0.467571
vt 0.935556 0.429502
vt 0.935556 0.386416
vt 0.935556 0.206306
vt 0.040972 0.206306
vt 0.171673 0.467571
vt 0.207978 0.180236
vt 0.929451 0.467571
vt 0.138274 0.467571
vt 0.935556 0.238498
vt 0.935556 0.309311
vt 0.040972 0.309310
vt 0.040972 0.238498
vt 0.040972 0.386416
vt 0.053673 0.180236
vn 0.003475 0.999991 0.002570
vn 0.086636 0.996240 -0.000000
vn 0.238632 0.971110 -0.000046
vn 0.004116 0.999987 0.003043
vn 0.000000 -1.000000 0.000000
vn 0.000000 -1.000000 0.000000
vn 0.000000 -1.000000 0.000000
vn 0.000000 -1.000000 0.000000
vn 0.976731 0.214467 -0.000046
vn 0.995438 0.095416 0.000000
vn 0.999987 0.003867 0.003348
vn 0.999983 0.004442 0.003846
vn -1.000000 0.000000 0.000000
vn -1.000000 0.000000 0.000000
vn -1.000000 0.000000 0.000000
vn -1.000000 0.000000 0.000000
vn 0.000000 0.000000 1.000000
vn 0.000000 0.000000 1.000000
vn 0.000000 0.000000 1.000000
vn 0.000000 0.000000 1.000000
vn 0.000000 0.000000 1.000000
vn 0.000000 0.000000 1.000000
vn 0.000000 0.000000 1.000000
vn 0.000000 0.000000 1.000000
vn 0.000000 0.000000 1.000000
vn 0.000000 0.000000 1.000000
vn 0.000000 0.000000 1.000000
vn 0.000000 0.000000 1.000000
vn 0.000000 0.000000 1.000000
vn 0.000000 0.000000 1.000000
vn 0.000000 0.000000 1.000000
vn 0.000000 0.000000 1.000000
vn 0.000000 0.000000 -1.000000
vn 0.000000 0.000000 -1.000000
vn 0.000000 0.000000 -1.000000
vn 0.000000 0.000000 -1.000000
vn 0.000000 0.000000 -1.000000
vn 0.000000 0.000000 -1.000000
vn 0.000000 0.000000 -1.000000
vn 0.000000 0.000000 -1.000000
vn 0.000000 0.000000 -1.000000
vn 0.000000 0.000000 -1.000000
vn 0.000000 0.000000 -1.000000
vn 0.000000 0.000000 -1.000000
vn 0.000000 0.000000 -1.000000
vn 0.000000 0.000000 -1.000000
vn 0.000000 0.000000 -1.000000
vn 0.000000 0.000000 -1.000000
vn 0.000000 -1.000000 0.000000
vn 0.000000 -1.000000 0.000000
vn -0.047774 -0.998693 0.018166
vn -0.085129 -0.995844 0.032370
vn 1.000000 0.000000 0.000000
vn 1.000000 0.000000 0.000000
vn 1.000000 0.000000 0.000000
vn 1.000000 0.000000 0.000000
vn -0.995528 -0.086294 0.038427
vn -0.998293 -0.053360 0.023761
vn -1.000000 0.000000 0.000000
vn -1.000000 0.000000 0.000000
vn 0.000000 1.000000 0.000000
vn 0.000000 1.000000 0.000000
vn 0.000000 1.000000 0.000000
vn 0.000000 1.000000 0.000000
vn 0.023881 0.999500 -0.020711
vn 0.000000 1.000000 0.000000
vn 0.000000 1.000000 0.000000
vn 0.032803 0.999057 -0.028448
vn 1.000000 0.000000 0.000000
vn 0.999286 0.026504 -0.026918
vn 0.998784 0.034584 -0.035124
vn 1.000000 0.000000 0.000000
vn 0.000000 -1.000000 0.000000
vn 0.000000 -1.000000 0.000000
vn 0.000000 -1.000000 0.000000
vn 0.000000 -1.000000 0.000000
vn -1.000000 0.000000 0.000000
vn -1.000000 0.000000 0.000000
vn -1.000000 0.000000 0.000000
vn -1.000000 0.000000 0.000000
vn 0.000000 -1.000000 0.000000
vn 0.000000 -1.000000 0.000000
vn 1.000000 0.000000 0.000000
vn 1.000000 0.000000 0.000000
vn 0.000000 1.000000 0.000000
vn 0.000000 1.000000 0.000000
vn -1.000000 0.000000 0.000000
vn -1.000000 0.000000 0.000000
vn 0.000000 0.000000 1.000000
vn 0.000000 0.000000 1.000000
vn 0.000000 -1.000000 0.000000
vn 0.000000 -1.000000 0.000000
vn 0.000000 0.000000 -1.000000
vn 0.000000 0.000000 -1.000000
vn 0.000000 1.000000 0.000000
vn 0.000000 1.000000 0.000000
vn 0.000000 1.000000 0.000000
vn 0.000000 1.000000 0.000000
vn 0.000000 1.000000 0.000000
vn 1.000000 0.000000 0.000000
vn 1.000000 0.000000 0.000000
vn 1.000000 0.000000 0.000000
vn 1.000000 0.000000 0.000000
vn 1.000000 0.000000 0.000000
vn 0.000000 0.000000 -1.000000
vn 0.000000 0.000000 -1.000000
vn -1.000000 0.000000 0.000000
vn -1.000000 0.000000 0.000000
vn 0.000000 0.000000 1.000000
vn 0.000000 0.000000 1.000000
vn 0.000000 -1.000000 -0.000000
vn -0.004509 -0.999987 -0.002136
vn -0.084134 -0.996454 -0.000000
vn 0.000000 -1.000000 -0.000000
vn -0.231382 -0.972863 -0.000121
vn -0.005498 -0.999982 -0.002605
vn -0.999976 -0.006004 -0.003332
vn -0.999983 -0.005065 -0.002811
vn -0.995619 -0.093508 0.000000
vn -0.977760 -0.209726 -0.000116
vn -1.000000 0.000000 -0.000000
vn -1.000000 0.000000 0.000000
vn 0.000000 1.000000 -0.000000
vn 0.000000 1.000000 -0.000000
vn 0.000000 1.000000 0.000000
vn 0.000000 1.000000 0.000000
vn 1.000000 0.000000 -0.000000
vn 1.000000 0.000000 -0.000000
vn 1.000000 0.000000 0.000000
vn 1.000000 0.000000 0.000000
vn -1.000000 0.000000 0.000000
vn -1.000000 0.000000 0.000000
vn 0.000000 1.000000 0.000000
vn 0.000000 1.000000 0.000000
vn 1.000000 0.000000 0.000000
vn 1.000000 0.000000 0.000000
vn 0.000000 -1.000000 0.000000
vn 0.000000 -1.000000 0.000000
vn 0.000000 -1.000000 0.000000
vn -1.000000 0.000000 0.000000
s 1
g pCube1
usemtl lambert2SG
f 33/1/1 34/2/2 26/3/3 23/76/4
s 2
f 21/5/5 22/6/6 27/7/7 28/8/8
s 3
f 26/75/9 38/9/10 39/10/11 23/4/12
s 4
f 24/11/13 21/5/14 28/8/15 25/12/16
s off
f 1/13/17 2/14/18 10/83/19 9/81/20
s 5
f 42/67/21 36/18/22 4/19/23 11/70/24
s 6
f 4/84/25 29/21/26 30/74/27 11/69/28
s off
f 3/23/29 1/13/30 9/81/31 12/82/32
s 7
f 31/73/33 32/26/34 6/27/35 14/64/36
s 8
f 6/77/37 40/29/38 41/71/39 14/63/40
s off
f 8/31/41 7/32/42 16/80/43 15/72/44
f 7/32/45 5/35/46 13/79/47 16/80/48
s 9
f 11/68/49 30/22/50 44/37/51 45/66/52
s 10
f 12/24/53 9/16/54 48/39/55 43/40/56
s 11
f 45/38/57 46/41/58 42/17/59 11/20/60
s 12
f 9/16/61 10/15/62 47/42/63 48/39/64
s 1
f 35/43/65 29/21/66 4/84/67 18/44/68
s 3
f 36/18/69 37/45/70 18/78/71 4/19/72
s 2
f 20/46/73 19/47/74 2/14/75 1/13/76
s 4
f 17/48/77 20/46/78 1/13/79 3/23/80
s 2
f 7/32/81 8/31/82 22/6/6 21/5/5
s 3
f 23/4/12 39/10/11 40/29/83 6/77/84
s 1
f 32/26/85 33/1/1 23/76/4 6/27/86
s 4
f 7/32/87 21/5/14 24/11/13 5/35/88
s 1
f 34/2/2 35/43/65 18/44/68 26/3/3
s 3
f 18/78/71 37/45/70 38/9/10 26/75/9
s 2
f 28/8/8 27/7/7 19/47/74 20/46/73
s 4
f 25/12/16 28/8/15 20/46/78 17/48/77
s 6
f 30/74/27 29/21/26 3/23/89 12/82/90
s 9
f 43/40/91 44/37/51 30/22/50 12/24/92
s 7
f 5/35/93 32/26/34 31/73/33 13/79/94
s 1
f 24/11/95 33/1/1 32/26/85 5/35/96
f 25/12/97 34/2/2 33/1/1 24/11/95
f 17/48/98 35/43/65 34/2/2 25/12/97
f 3/23/99 29/21/66 35/43/65 17/48/98
s 3
f 2/14/100 19/47/101 37/45/70 36/18/69
f 38/9/10 37/45/70 19/47/101 27/7/102
f 39/10/11 38/9/10 27/7/102 22/6/103
f 40/29/83 39/10/11 22/6/103 8/31/104
s 8
f 41/71/39 40/29/38 8/31/105 15/72/106
s 11
f 10/15/107 42/17/59 46/41/58 47/42/108
s 5
f 2/14/109 36/18/22 42/67/21 10/83/110
s 9
f 52/49/111 53/50/112 60/51/113 55/52/114
f 59/53/115 60/51/113 53/50/112 54/62/116
s 11
f 54/54/117 49/55/118 58/56/119 59/61/120
f 57/57/121 58/56/119 49/55/118 50/58/122
s 12
f 56/59/123 57/57/124 50/58/125 51/60/126
s 10
f 55/52/127 56/59/128 51/60/129 52/49/130
s 11
f 50/58/122 49/55/118 41/30/131 15/34/132
s 12
f 51/60/126 50/58/125 15/34/133 16/33/134
s 10
f 52/49/130 51/60/129 16/33/135 13/36/136
s 9
f 31/25/137 53/50/112 52/49/111 13/36/138
f 54/62/116 53/50/112 31/25/137 14/65/139
s 11
f 41/30/131 49/55/118 54/54/117 14/28/140
s 10
f 43/40/56 48/39/55 56/59/128 55/52/127
s 12
f 48/39/64 47/42/63 57/57/124 56/59/123
s 11
f 47/42/108 46/41/58 58/56/119 57/57/121
f 59/61/120 58/56/119 46/41/58 45/38/57
s 9
f 45/66/52 44/37/51 60/51/113 59/53/115
f 55/52/114 60/51/113 44/37/51 43/40/91
