# This file uses centimeters as units for non-parametric coordinates.

mtllib Pills.mtl
g default
v 0.164715 0.164715 -0.827926
v -0.000000 0.232942 -0.827926
v -0.164715 0.164715 -0.827926
v -0.232942 0.000000 -0.827926
v -0.164715 -0.164715 -0.827926
v -0.000000 -0.232942 -0.827926
v 0.164715 -0.164715 -0.827926
v 0.232942 0.000000 -0.827926
v 0.233345 0.233345 -0.660000
v 0.000000 0.330000 -0.660000
v -0.233345 0.233345 -0.660000
v -0.330000 -0.000000 -0.660000
v -0.233345 -0.233345 -0.660000
v 0.000000 -0.330000 -0.660000
v 0.233345 -0.233345 -0.660000
v 0.330000 -0.000000 -0.660000
v 0.233345 0.233345 0.660000
v 0.000000 0.330000 0.660000
v -0.233345 0.233345 0.660000
v -0.330000 0.000000 0.660000
v -0.233345 -0.233345 0.660000
v 0.000000 -0.330000 0.660000
v 0.233345 -0.233345 0.660000
v 0.330000 0.000000 0.660000
v 0.164715 0.164715 0.827926
v -0.000000 0.232942 0.827926
v -0.164715 0.164715 0.827926
v -0.232942 0.000000 0.827926
v -0.164715 -0.164715 0.827926
v -0.000000 -0.232942 0.827926
v 0.164715 -0.164715 0.827926
v 0.232942 0.000000 0.827926
v 0.000000 -0.000000 -0.948865
v 0.000000 0.000000 0.948865
v 0.233345 0.233345 -0.005813
v 0.000000 0.330000 -0.005813
v -0.233345 0.233345 -0.005813
v -0.330000 -0.000000 -0.005813
v -0.233345 -0.233345 -0.005813
v 0.000000 -0.330000 -0.005813
v 0.233345 -0.233345 -0.005813
v 0.330000 -0.000000 -0.005813
vt 0.269575 0.146714
vt 0.214332 0.123832
vt 0.159089 0.146714
vt 0.136207 0.201957
vt 0.159089 0.257200
vt 0.214332 0.280082
vt 0.269575 0.257200
vt 0.292457 0.201957
vt 0.324817 0.091471
vt 0.214332 0.045707
vt 0.103847 0.091471
vt 0.058082 0.201957
vt 0.103847 0.312442
vt 0.214332 0.358207
vt 0.324817 0.312442
vt 0.370582 0.201957
vt 0.736135 0.694794
vt 0.057022 0.694671
vt 0.833133 0.922961
vt 0.154045 0.694810
vt 0.153335 0.923100
vt 0.251064 0.695129
vt 0.250080 0.923419
vt 0.348078 0.695442
vt 0.347396 0.923732
vt 0.445089 0.695564
vt 0.445115 0.923855
vt 0.542101 0.695426
vt 0.542818 0.923716
vt 0.639115 0.695106
vt 0.640099 0.923397
vt 0.735464 0.470490
vt 0.057046 0.470367
vt 0.824736 0.090512
vt 0.714251 0.044747
vt 0.603766 0.090512
vt 0.558001 0.200997
vt 0.603766 0.311482
vt 0.714251 0.357247
vt 0.824736 0.311482
vt 0.870501 0.200997
vt 0.769494 0.145754
vt 0.714251 0.122872
vt 0.659008 0.145754
vt 0.636126 0.200997
vt 0.659008 0.256240
vt 0.714251 0.279122
vt 0.769494 0.256240
vt 0.792376 0.200997
vt 0.214332 0.195707
vt 0.714251 0.194747
vt 0.154750 0.470506
vt 0.252031 0.470825
vt 0.348741 0.471138
vt 0.445065 0.471261
vt 0.541404 0.471122
vt 0.638148 0.470803
vt 0.736809 0.923084
vt 0.929472 0.923100
vt 0.833158 0.694671
vt 0.930182 0.694810
vt 0.833183 0.470367
vn 0.553873 0.553873 -0.621650
vn -0.000000 0.783295 -0.621650
vn 0.000000 0.865789 -0.500410
vn 0.612205 0.612205 -0.500410
vn -0.553873 0.553873 -0.621650
vn -0.612205 0.612205 -0.500410
vn -0.783295 -0.000000 -0.621650
vn -0.865789 0.000000 -0.500410
vn -0.553873 -0.553873 -0.621650
vn -0.612205 -0.612205 -0.500410
vn -0.000000 -0.783295 -0.621650
vn 0.000000 -0.865789 -0.500410
vn 0.553873 -0.553873 -0.621650
vn 0.612205 -0.612205 -0.500410
vn 0.783295 0.000000 -0.621650
vn 0.865789 -0.000000 -0.500410
vn 0.382683 0.923880 -0.000000
vn 0.382683 0.923880 -0.000000
vn 0.382683 0.923880 -0.000000
vn 0.382683 0.923880 -0.000000
vn -0.382683 0.923880 -0.000000
vn -0.382683 0.923880 -0.000000
vn -0.382683 0.923880 -0.000000
vn -0.382683 0.923880 -0.000000
vn -0.923880 0.382684 -0.000000
vn -0.923880 0.382684 -0.000000
vn -0.923880 0.382683 -0.000000
vn -0.923880 0.382683 -0.000000
vn -0.923880 -0.382684 0.000000
vn -0.923880 -0.382684 0.000000
vn -0.923880 -0.382683 0.000000
vn -0.923880 -0.382683 0.000000
vn -0.382683 -0.923880 0.000000
vn -0.382683 -0.923880 0.000000
vn -0.382683 -0.923880 0.000000
vn -0.382683 -0.923880 0.000000
vn 0.382683 -0.923880 0.000000
vn 0.382683 -0.923880 0.000000
vn 0.382683 -0.923880 0.000000
vn 0.382683 -0.923880 0.000000
vn 0.923880 -0.382683 0.000000
vn 0.923880 -0.382683 0.000000
vn 0.923880 -0.382683 0.000000
vn 0.923880 -0.382683 0.000000
vn 0.923880 0.382684 -0.000000
vn 0.923880 0.382684 -0.000000
vn 0.923880 0.382684 -0.000000
vn 0.923880 0.382684 -0.000000
vn 0.612205 0.612205 0.500410
vn 0.000000 0.865789 0.500410
vn 0.000000 0.783295 0.621650
vn 0.553873 0.553873 0.621650
vn -0.612205 0.612205 0.500410
vn -0.553873 0.553873 0.621650
vn -0.865789 -0.000000 0.500410
vn -0.783295 -0.000000 0.621650
vn -0.612205 -0.612205 0.500410
vn -0.553873 -0.553873 0.621650
vn 0.000000 -0.865789 0.500410
vn 0.000000 -0.783295 0.621651
vn 0.612205 -0.612205 0.500410
vn 0.553873 -0.553873 0.621651
vn 0.865789 0.000000 0.500410
vn 0.783295 0.000000 0.621651
vn -0.000000 0.000000 -1.000000
vn -0.000000 -0.000000 1.000000
vn 0.382683 0.923880 -0.000000
vn 0.382683 0.923880 -0.000000
vn -0.382683 0.923880 -0.000000
vn -0.382683 0.923880 -0.000000
vn -0.923880 0.382684 -0.000000
vn -0.923880 0.382684 -0.000000
vn -0.923880 -0.382684 0.000000
vn -0.923880 -0.382684 0.000000
vn -0.382684 -0.923880 0.000000
vn -0.382684 -0.923880 0.000000
vn 0.382683 -0.923880 0.000000
vn 0.382683 -0.923880 0.000000
vn 0.923880 -0.382683 0.000000
vn 0.923880 -0.382683 0.000000
vn 0.923880 0.382684 -0.000000
vn 0.923880 0.382684 -0.000000
s 1
g pCylinder1
usemtl phong1SG
f 1/1/1 2/2/2 10/10/3 9/9/4
f 2/2/2 3/3/5 11/11/6 10/10/3
f 3/3/5 4/4/7 12/12/8 11/11/6
f 4/4/7 5/5/9 13/13/10 12/12/8
f 5/5/9 6/6/11 14/14/12 13/13/10
f 6/6/11 7/7/13 15/15/14 14/14/12
f 7/7/13 8/8/15 16/16/16 15/15/14
f 8/8/15 1/1/1 9/9/4 16/16/16
s 2
f 35/17/17 36/60/18 18/19/19 17/58/20
s 3
f 36/60/21 37/61/22 19/59/23 18/19/24
s 4
f 37/20/25 38/22/26 20/23/27 19/21/28
s 5
f 38/22/29 39/24/30 21/25/31 20/23/32
s 6
f 39/24/33 40/26/34 22/27/35 21/25/36
s 7
f 40/26/37 41/28/38 23/29/39 22/27/40
s 8
f 41/28/41 42/30/42 24/31/43 23/29/44
s 9
f 42/30/45 35/17/46 17/58/47 24/31/48
s 10
f 17/40/49 18/39/50 26/47/51 25/48/52
f 18/39/50 19/38/53 27/46/54 26/47/51
f 19/38/53 20/37/55 28/45/56 27/46/54
f 20/37/55 21/36/57 29/44/58 28/45/56
f 21/36/57 22/35/59 30/43/60 29/44/58
f 22/35/59 23/34/61 31/42/62 30/43/60
f 23/34/61 24/41/63 32/49/64 31/42/62
f 24/41/63 17/40/49 25/48/52 32/49/64
s 1
f 2/2/2 1/1/1 33/50/65
f 3/3/5 2/2/2 33/50/65
f 4/4/7 3/3/5 33/50/65
f 5/5/9 4/4/7 33/50/65
f 6/6/11 5/5/9 33/50/65
f 7/7/13 6/6/11 33/50/65
f 8/8/15 7/7/13 33/50/65
f 1/1/1 8/8/15 33/50/65
s 10
f 25/48/52 26/47/51 34/51/66
f 26/47/51 27/46/54 34/51/66
f 27/46/54 28/45/56 34/51/66
f 28/45/56 29/44/58 34/51/66
f 29/44/58 30/43/60 34/51/66
f 30/43/60 31/42/62 34/51/66
f 31/42/62 32/49/64 34/51/66
f 32/49/64 25/48/52 34/51/66
s 2
f 9/32/67 10/62/68 36/60/18 35/17/17
s 3
f 10/33/69 11/52/70 37/20/22 36/18/21
s 4
f 11/52/71 12/53/72 38/22/26 37/20/25
s 5
f 12/53/73 13/54/74 39/24/30 38/22/29
s 6
f 13/54/75 14/55/76 40/26/34 39/24/33
s 7
f 14/55/77 15/56/78 41/28/38 40/26/37
s 8
f 15/56/79 16/57/80 42/30/42 41/28/41
s 9
f 16/57/81 9/32/82 35/17/46 42/30/45
